<svg id="Layer_1" data-name="Layer 1" xmlns="http://www.w3.org/2000/svg" viewBox="0 0 190 49"><defs><style>.cls-1{fill:#8d9092;}</style></defs><title>Allianz_grey</title><path class="cls-1" d="M21.61,102.28H15.27l3.37-11.14ZM12,114.76l2.16-7.4h8.54l2,7.4h7.91L24.76,86.68a2.93,2.93,0,0,0-3.15-2.43H10.42v2.61h.95c1.16,0,1.8.45,1.8,1.37a7.94,7.94,0,0,1-.59,2.48L4.7,114.76Z" transform="translate(-4.7 -75.94)"/><path class="cls-1" d="M42.35,114.76V86.59a2.1,2.1,0,0,0-2.22-2.33H33.3v2.61h.45c1.17,0,1.66.51,1.66,1.7v26.2Z" transform="translate(-4.7 -75.94)"/><path class="cls-1" d="M54.6,114.76V86.59a2.1,2.1,0,0,0-2.22-2.33H45.55v2.61H46c1.17,0,1.66.51,1.66,1.7v26.2Z" transform="translate(-4.7 -75.94)"/><path class="cls-1" d="M66.85,87c0-2-1.44-3.24-3.94-3.24S59,85,59,87s1.49,3.24,3.94,3.24S66.85,89.05,66.85,87Zm0,27.73V94a2.11,2.11,0,0,0-2.23-2.36H57.85v2.77h.4c1.17,0,1.66.55,1.66,1.75v18.59Z" transform="translate(-4.7 -75.94)"/><path class="cls-1" d="M82.49,103.84v4.41a5.8,5.8,0,0,1-3.87,2c-1.28,0-1.73-.63-1.73-2.32s.36-2.46,1.64-3A17.86,17.86,0,0,1,82.49,103.84Zm-9.43-5.32a16.53,16.53,0,0,1,6.87-1.78c1.88,0,2.55.69,2.55,2.69v.5c-2.84.45-3.73.64-5.33,1a15.23,15.23,0,0,0-2.61.87c-2.8,1.13-4.13,3.37-4.13,6.78,0,4.33,1.82,6.42,5.6,6.42a9.76,9.76,0,0,0,3.73-.73,13.07,13.07,0,0,0,3-2v.32a1.91,1.91,0,0,0,2.14,2.15h6.49v-2.61H91c-1.21,0-1.66-.5-1.66-1.86V99.46c0-5.81-2-7.81-7.68-7.81a23.44,23.44,0,0,0-5.39.64,18.32,18.32,0,0,0-4.76,1.83Z" transform="translate(-4.7 -75.94)"/><path class="cls-1" d="M102,114.76V99.24a5.35,5.35,0,0,1,4-1.93c1.59,0,2,.6,2,2.9v14.55H115V99c0-3.65-.28-4.8-1.43-6.05a5.6,5.6,0,0,0-4.33-1.62c-2.8,0-4.78.91-7.45,3.51v-.95c0-1.51-.71-2.29-2.14-2.29H93v2.77h.4c1.17,0,1.66.55,1.66,1.75v18.59Z" transform="translate(-4.7 -75.94)"/><path class="cls-1" d="M136.35,110.09h-9.8l9.35-13.31V92.11H121.1a2.13,2.13,0,0,0-2.45,2.46V98.7h2.77v-.41c0-1,.54-1.55,1.66-1.55h5l-9.48,13.45v4.58h17.7Z" transform="translate(-4.7 -75.94)"/><path class="cls-1" d="M173.9,113.33V87.89c0-2-.66-2.71-2.62-2.71h-5.73V88h.94a.88.88,0,0,1,.6.32,1.85,1.85,0,0,1,.34,1.32v23.75Zm3.24,0h6.47V94.07c0-1.94-.71-2.71-2.66-2.71h-3.81Zm-12.48,0v-22h-3.83c-1.89,0-2.64.77-2.64,2.71v19.26Zm25.42-12.92c0,11.52-8.22,19.9-19.41,19.9s-19.41-8.38-19.41-19.9,8.17-19.85,19.41-19.85S190.08,88.93,190.08,100.41Zm4.62,0c0-14-10.26-24.48-24-24.48s-24.06,10.46-24.06,24.48,10.31,24.52,24.06,24.52S194.7,114.47,194.7,100.41Z" transform="translate(-4.7 -75.94)"/></svg>