<?xml version="1.0" encoding="utf-8"?>
<!-- Generator: Adobe Illustrator 21.1.0, SVG Export Plug-In . SVG Version: 6.00 Build 0)  -->
<svg version="1.1" id="ETH" xmlns="http://www.w3.org/2000/svg" xmlns:xlink="http://www.w3.org/1999/xlink" x="0px" y="0px"
	 viewBox="0 0 140.7 22.9" style="enable-background:new 0 0 140.7 22.9;" xml:space="preserve">
<style type="text/css">
	.st0{opacity:0.58;}
	.st1{fill:#FEFEFE;}
	.st2{fill:#717171;}
</style>
<title>eth_logo_kurz_grey</title>
<g class="st0">
	<g>
		<path class="st1" d="M71.9,23c-10.3,0-20.6,0-30.9,0c-0.2,0-0.3,0-0.3-0.3c0-7.5,0-15.1,0-22.6c0-0.2,0-0.3,0.3-0.3
			c20.6,0,41.2,0,61.8,0c0.2,0,0.3,0,0.3,0.3c0,7.5,0,15.1,0,22.6c0,0.2,0,0.3-0.3,0.3C92.5,23,82.2,23,71.9,23z"/>
		<path class="st2" d="M88.6,13c0-1.6,0-3.3,0-4.9c0-0.6,0-1.2,0.2-1.8c0.3-1.2,1-2,2.2-2.2c0.6-0.2,1.3-0.2,2-0.3
			c1.4,0,2.9-0.1,4.3,0.2c0.2,0,0.2,0,0.2-0.2c0-0.3,0-0.5,0-0.8c0-0.8,0.4-1.2,1.2-1.3c0.2,0,0.4,0,0.7,0c0.8,0.1,1.2,0.5,1.2,1.3
			c0,2,0,4.1,0,6.1c0,0.3-0.1,0.6-0.1,0.8c-0.2,1.3-1,2.2-2.3,2.5c-0.9,0.3-1.9,0.3-2.8,0.3c-1.1,0-2.2,0-3.3-0.1
			c-0.2,0-0.3,0.1-0.3,0.3c0,0.9,0,0.9,0.8,0.9c1.4,0,2.8,0,4.2,0c0.5,0,1.1,0.1,1.6,0.3c1.3,0.4,2,1.3,2.2,2.6c0.1,1,0.1,2-0.1,3
			c-0.3,1.1-0.9,1.8-2,2.2c-0.8,0.3-1.6,0.4-2.4,0.4c-1.4,0.1-2.8,0.1-4.2-0.1c-0.5-0.1-1-0.2-1.4-0.4c-1.2-0.6-1.6-1.6-1.7-2.8
			c-0.1-1.1,0-2.1,0-3.2C88.6,14.7,88.6,13.9,88.6,13z"/>
		<path class="st2" d="M54.5,11.6c0-1.1,0-2.4,0-3.7c0-0.6,0.1-1.2,0.3-1.8C55.1,4.8,56,4,57.3,3.8c1.6-0.3,3.3-0.3,4.9,0.1
			c0.4,0.1,0.9,0.2,1.3,0.5c0.2,0.1,0.3,0.1,0.4,0c1-0.5,2-0.7,3.1-0.7s2.2,0,3.3,0.2c1.3,0.3,2,1,2.3,2.3C73.1,7.1,73.2,8,73.2,9
			c0,2.3,0,4.6,0,6.9c0,0.8-0.5,1.4-1.3,1.4c-0.2,0-0.4,0-0.7,0c-0.8-0.1-1.3-0.6-1.3-1.4c0-1.5,0-3.1,0-4.6c0-0.9,0-1.8,0-2.7
			c0-0.2,0-0.4-0.1-0.6c-0.2-0.7-0.5-1-1.2-1.1c-0.6-0.1-1.3-0.1-1.9,0s-1,0.4-1.1,1c-0.1,0.4-0.1,0.8-0.1,1.3c0,2.2,0,4.4,0,6.5
			c0,1-0.5,1.5-1.4,1.5c-0.2,0-0.4,0-0.6,0c-0.8-0.1-1.3-0.6-1.3-1.4c0-2.3,0-4.6,0-6.9c0-0.4,0-0.7-0.1-1.1c-0.1-0.5-0.4-0.9-1-1
			c-0.7-0.1-1.5-0.1-2.2,0c-0.6,0.1-0.9,0.5-1,1s-0.1,0.9-0.1,1.4c0,2.1,0,4.2,0,6.3c0,1.1-0.5,1.5-1.5,1.6c-0.2,0-0.4,0-0.6,0
			c-0.7-0.2-1.1-0.6-1.1-1.3C54.5,14.6,54.5,13.2,54.5,11.6z"/>
		<path class="st2" d="M52.5,10.9c0,1,0,2.1,0,3.2c-0.1,0.7-0.2,1.4-0.6,2c-0.5,0.7-1.3,1-2.1,1.1c-2,0.3-4,0.3-6,0
			c-1.3-0.2-2.1-0.9-2.4-2.3c0-0.2-0.1-0.5-0.1-0.7c-0.1-0.9-0.1-1.9,0.1-2.8C41.7,10,42.5,9.3,44,9c0.6,0,1.2,0,1.8,0
			c1,0,2.1,0,3.1,0c0.2,0,0.3-0.1,0.3-0.3c0-0.3,0-0.5,0-0.8c0-0.6-0.2-0.9-0.8-1c-0.7-0.1-1.4-0.1-2.1-0.1c-0.7,0-1.4,0.1-2.2,0.2
			c-0.3,0-0.7,0.1-1,0c-0.5,0-0.9-0.3-1-0.8c-0.1-0.4-0.1-0.9,0-1.4s0.5-0.7,0.9-0.9c0.5-0.2,1.1-0.3,1.7-0.3c1.4-0.1,2.7-0.1,4.1,0
			c0.6,0.1,1.1,0.2,1.6,0.4c1.1,0.4,1.7,1.3,2,2.5c0.1,0.6,0.1,1.3,0.1,1.9C52.5,9.3,52.5,10,52.5,10.9z"/>
		<path class="st2" d="M86.5,10.8c0,1,0,2,0,3c0,0.5-0.1,0.9-0.2,1.4c-0.3,1-0.9,1.6-1.9,1.9c-0.8,0.2-1.5,0.3-2.3,0.3
			c-1.3,0-2.7,0.1-4-0.1c-0.2,0-0.4-0.1-0.6-0.1c-1.2-0.3-1.9-1-2.1-2.2s-0.2-2.4,0-3.6s0.9-2,2.2-2.3C78.2,9,78.9,9,79.6,9
			c1.1,0,2.3,0,3.4,0c0.3,0,0.4-0.1,0.3-0.3c0-0.3,0-0.7,0-1c-0.1-0.3-0.2-0.6-0.6-0.7c-0.3-0.1-0.7-0.1-1.1-0.2
			c-1.2,0-2.3,0.1-3.5,0.3c-0.2,0-0.5,0-0.7,0c-0.8,0-1.3-0.4-1.3-1.2c0-0.2,0-0.4,0-0.6c0-0.6,0.4-1,0.9-1.1
			c0.6-0.2,1.2-0.3,1.8-0.3c1.3-0.1,2.7-0.1,4,0c0.6,0.1,1.3,0.2,1.9,0.4c0.9,0.4,1.4,1.1,1.7,2c0.1,0.5,0.2,1.1,0.2,1.6
			C86.5,8.8,86.5,9.8,86.5,10.8z"/>
		<path class="st1" d="M94.4,9.7c-0.6,0-1.2,0-1.8-0.1c-0.6-0.1-0.8-0.4-0.8-0.9c0-0.3,0-0.6,0-0.9c0-0.5,0.2-0.8,0.7-0.9
			c0.4-0.1,0.8-0.2,1.1-0.2c1.2,0,2.3,0,3.5,0.1c0.3,0,0.4,0.1,0.3,0.4c0,0.5,0,0.9,0,1.4c-0.1,0.5-0.4,0.8-0.9,0.9
			c-0.5,0.1-1.1,0.2-1.6,0.2C94.7,9.7,94.5,9.7,94.4,9.7z"/>
		<path class="st1" d="M93.9,16.5c0.8,0,1.7-0.1,2.6,0.1s1.2,0.7,1.1,1.6c-0.1,0.4-0.3,0.7-0.6,0.8c-0.4,0.2-0.8,0.2-1.2,0.3
			c-1,0.1-1.9,0.1-2.9-0.1c-0.2,0-0.4-0.1-0.6-0.2c-0.3-0.2-0.5-0.4-0.6-0.8c0-0.5,0-1,0-1.5c0-0.2,0.1-0.2,0.2-0.2
			C92.5,16.5,93.2,16.5,93.9,16.5z"/>
		<path class="st1" d="M47.3,11.8c0.6,0,1.1,0,1.7,0c0.2,0,0.3,0.1,0.3,0.3c0,0.4,0,0.9,0,1.3c0,0.5-0.2,0.8-0.7,0.9
			c-0.4,0.1-0.7,0.1-1.1,0.1c-0.7,0-1.3,0-2-0.1c-0.8-0.1-1.1-0.5-1-1.3c0-0.1,0-0.2,0-0.3c0.1-0.5,0.3-0.8,0.8-0.8
			c0.6-0.1,1.1-0.1,1.7-0.1C47,11.8,47.2,11.8,47.3,11.8z"/>
		<path class="st1" d="M81.3,11.8c0.5,0,1.1,0,1.6,0c0.2,0,0.3,0.1,0.3,0.3c0,0.5,0,0.9,0,1.4c0,0.4-0.2,0.7-0.6,0.8
			s-0.8,0.1-1.2,0.2c-0.7,0-1.3,0-2-0.1s-1-0.5-1-1.2v-0.1c0-0.7,0.2-1,1-1.1c0.1,0,0.1,0,0.2,0C80.1,11.9,80.7,11.9,81.3,11.8
			C81.3,11.9,81.3,11.9,81.3,11.8z"/>
	</g>
</g>
</svg>
