<?xml version="1.0" encoding="UTF-8" standalone="no"?>
<!-- Created with Inkscape (http://www.inkscape.org/) -->

<svg
   xmlns:dc="http://purl.org/dc/elements/1.1/"
   xmlns:cc="http://creativecommons.org/ns#"
   xmlns:rdf="http://www.w3.org/1999/02/22-rdf-syntax-ns#"
   xmlns:svg="http://www.w3.org/2000/svg"
   xmlns="http://www.w3.org/2000/svg"
   xmlns:sodipodi="http://sodipodi.sourceforge.net/DTD/sodipodi-0.dtd"
   xmlns:inkscape="http://www.inkscape.org/namespaces/inkscape"
   id="svg2985"
   version="1.1"
   inkscape:version="0.48.5 r10040"
   width="355.76764"
   height="28.364"
   xml:space="preserve"
   sodipodi:docname="eth_ec_logo_white.svg"><sodipodi:namedview
     pagecolor="#ffffff"
     bordercolor="#666666"
     borderopacity="1"
     objecttolerance="10"
     gridtolerance="10"
     guidetolerance="10"
     inkscape:pageopacity="0"
     inkscape:pageshadow="2"
     inkscape:window-width="1440"
     inkscape:window-height="851"
     id="namedview2987"
     showgrid="false"
     inkscape:zoom="0.7013148"
     inkscape:cx="-143.06324"
     inkscape:cy="-304.72353"
     inkscape:window-x="0"
     inkscape:window-y="0"
     inkscape:window-maximized="1"
     inkscape:current-layer="g2993"
     fit-margin-top="0"
     fit-margin-left="0"
     fit-margin-right="0"
     fit-margin-bottom="0" /><metadata
     id="metadata2991"><rdf:RDF><cc:Work
         rdf:about=""><dc:format>image/svg+xml</dc:format><dc:type
           rdf:resource="http://purl.org/dc/dcmitype/StillImage" /><dc:title></dc:title></cc:Work></rdf:RDF></metadata><defs
     id="defs2989"><clipPath
       clipPathUnits="userSpaceOnUse"
       id="clipPath3023"><path
         d="m 67.457,409.6 284.614,0 0,22.692 -284.614,0 0,-22.692 z"
         id="path3025"
         inkscape:connector-curvature="0" /></clipPath><clipPath
       clipPathUnits="userSpaceOnUse"
       id="clipPath3087"><path
         d="m 67.456,327.395 284.615,0 0,22.692 -284.615,0 0,-22.692 z"
         id="path3089"
         inkscape:connector-curvature="0" /></clipPath><clipPath
       clipPathUnits="userSpaceOnUse"
       id="clipPath3143"><path
         d="m 67.457,245.191 284.614,0 0,22.692 -284.614,0 0,-22.692 z"
         id="path3145"
         inkscape:connector-curvature="0" /></clipPath><clipPath
       clipPathUnits="userSpaceOnUse"
       id="clipPath3223"><path
         d="m 67.457,162.985 284.614,0 0,22.692 -284.614,0 0,-22.692 z"
         id="path3225"
         inkscape:connector-curvature="0" /></clipPath><clipPath
       clipPathUnits="userSpaceOnUse"
       id="clipPath3303"><path
         d="m 67.457,80.781 284.614,0 0,22.692 -284.614,0 0,-22.692 z"
         id="path3305"
         inkscape:connector-curvature="0" /></clipPath><clipPath
       clipPathUnits="userSpaceOnUse"
       id="clipPath3383"><path
         d="m 67.457,491.805 284.614,0 0,22.692 -284.614,0 0,-22.692 z"
         id="path3385"
         inkscape:connector-curvature="0" /></clipPath></defs><g
     id="g2993"
     inkscape:groupmode="layer"
     inkscape:label="eth_entrepreneur_club_logo (1)"
     transform="matrix(1.25,0,0,-1.25,-84.3205,643.12088)"><g
       id="g3359"
       transform="translate(121.3254,514.4967)"><path
         d="m 0,0 -1.793,-8.787 -5.949,0 1.791,8.787 -43.365,0 -4.553,-22.671 0,-0.005 17.289,0 1.133,5.668 -10.207,0 0.618,3.118 10.204,0 1.029,5.103 -10.207,0 0.616,3.119 16.182,0 -3.418,-17.008 7.089,0 3.414,17.008 5.95,0 -3.415,-17.008 7.087,0 1.751,8.786 5.948,0 -1.75,-8.786 7.087,0 L 7.087,0 0,0 z"
         style="fill:#e80000;fill-opacity:1;fill-rule:nonzero;stroke:none"
         id="path3361"
         inkscape:connector-curvature="0" /></g><g
       id="g3363"
       transform="translate(134.3745,514.4805)"><path
         d="m 0,0 -4.557,-22.675 217.699,0 4.554,22.676 L 0,0 z"
         style="fill:#231f20;fill-opacity:1;fill-rule:nonzero;stroke:none"
         id="path3365"
         inkscape:connector-curvature="0" /></g><g
       id="g3367"
       transform="translate(139.4564,496.1998)"><path
         d="m 0,0 0,13.884 8.619,0 0,-1.325 -7.138,0 0,-4.896 6.084,0 0,-1.325 -6.084,0 0,-5.012 7.138,0 L 8.619,0 0,0 z"
         style="fill:#ffffff;fill-opacity:1;fill-rule:nonzero;stroke:none"
         id="path3369"
         inkscape:connector-curvature="0" /></g><g
       id="g3371"
       transform="translate(160.2035,496.1998)"><path
         d="m 0,0 -7.371,11.135 0,-11.135 -1.482,0 0,13.884 1.404,0 7.371,-11.096 0,11.096 1.482,0 L 1.404,0 0,0 z"
         style="fill:#ffffff;fill-opacity:1;fill-rule:nonzero;stroke:none"
         id="path3373"
         inkscape:connector-curvature="0" /></g><g
       id="g3375"
       transform="translate(169.8949,508.7584)"><path
         d="m 0,0 0,-12.559 -1.481,0 0,12.559 -4.017,0 0,1.325 9.516,0 L 4.018,0 0,0 z"
         style="fill:#ffffff;fill-opacity:1;fill-rule:nonzero;stroke:none"
         id="path3377"
         inkscape:connector-curvature="0" /></g><g
       id="g3379"><g
         id="g3381"
         clip-path="url(#clipPath3383)"><g
           id="g3387"
           transform="translate(181.8871,508.7584)"><path
             d="m 0,0 -3.705,0 0,-5.09 3.705,0 c 1.619,0 2.77,0.839 2.77,2.535 C 2.77,-0.858 1.619,0 0,0 m 2.789,-12.559 -3.159,6.163 -3.335,0 0,-6.163 -1.482,0 0,13.884 5.324,0 c 2.418,0 4.115,-1.462 4.115,-3.86 0,-2.028 -1.229,-3.355 -3.023,-3.725 l 3.295,-6.299 -1.735,0 z"
             style="fill:#ffffff;fill-opacity:1;fill-rule:nonzero;stroke:none"
             id="path3389"
             inkscape:connector-curvature="0" /></g><g
           id="g3391"
           transform="translate(189.6878,496.1998)"><path
             d="m 0,0 0,13.884 8.619,0 0,-1.325 -7.138,0 0,-4.896 6.085,0 0,-1.325 -6.085,0 0,-5.012 7.138,0 L 8.619,0 0,0 z"
             style="fill:#ffffff;fill-opacity:1;fill-rule:nonzero;stroke:none"
             id="path3393"
             inkscape:connector-curvature="0" /></g><g
           id="g3395"
           transform="translate(206.6332,508.7584)"><path
             d="m 0,0 -3.57,0 0,-5.519 3.57,0 c 1.734,0 2.924,0.936 2.924,2.77 C 2.924,-0.917 1.734,0 0,0 m 0.117,-6.845 -3.687,0 0,-5.714 -1.481,0 0,13.884 5.168,0 c 2.514,0 4.289,-1.597 4.289,-4.074 0,-2.477 -1.775,-4.096 -4.289,-4.096"
             style="fill:#ffffff;fill-opacity:1;fill-rule:nonzero;stroke:none"
             id="path3397"
             inkscape:connector-curvature="0" /></g><g
           id="g3399"
           transform="translate(219.2484,508.7584)"><path
             d="m 0,0 -3.705,0 0,-5.09 3.705,0 c 1.619,0 2.77,0.839 2.77,2.535 C 2.77,-0.858 1.619,0 0,0 m 2.789,-12.559 -3.158,6.163 -3.336,0 0,-6.163 -1.481,0 0,13.884 5.323,0 c 2.418,0 4.115,-1.462 4.115,-3.86 0,-2.028 -1.229,-3.355 -3.022,-3.725 l 3.295,-6.299 -1.736,0 z"
             style="fill:#ffffff;fill-opacity:1;fill-rule:nonzero;stroke:none"
             id="path3401"
             inkscape:connector-curvature="0" /></g><g
           id="g3403"
           transform="translate(227.0492,496.1998)"><path
             d="m 0,0 0,13.884 8.619,0 0,-1.325 -7.137,0 0,-4.896 6.084,0 0,-1.325 -6.084,0 0,-5.012 7.137,0 L 8.619,0 0,0 z"
             style="fill:#ffffff;fill-opacity:1;fill-rule:nonzero;stroke:none"
             id="path3405"
             inkscape:connector-curvature="0" /></g><g
           id="g3407"
           transform="translate(247.7972,496.1998)"><path
             d="m 0,0 -7.371,11.135 0,-11.135 -1.483,0 0,13.884 1.405,0 7.371,-11.096 0,11.096 1.482,0 L 1.404,0 0,0 z"
             style="fill:#ffffff;fill-opacity:1;fill-rule:nonzero;stroke:none"
             id="path3409"
             inkscape:connector-curvature="0" /></g><g
           id="g3411"
           transform="translate(253.4125,496.1998)"><path
             d="m 0,0 0,13.884 8.619,0 0,-1.325 -7.137,0 0,-4.896 6.084,0 0,-1.325 -6.084,0 0,-5.012 7.137,0 L 8.619,0 0,0 z"
             style="fill:#ffffff;fill-opacity:1;fill-rule:nonzero;stroke:none"
             id="path3413"
             inkscape:connector-curvature="0" /></g><g
           id="g3415"
           transform="translate(269.9496,496.0826)"><path
             d="m 0,0 c -2.809,0 -4.836,1.931 -4.836,4.7 l 0,9.301 1.482,0 0,-9.184 c 0,-2.106 1.327,-3.491 3.354,-3.491 2.027,0 3.373,1.385 3.373,3.491 l 0,9.184 1.482,0 0,-9.301 C 4.855,1.931 2.809,0 0,0"
             style="fill:#ffffff;fill-opacity:1;fill-rule:nonzero;stroke:none"
             id="path3417"
             inkscape:connector-curvature="0" /></g><g
           id="g3419"
           transform="translate(284.0082,508.7584)"><path
             d="m 0,0 -3.705,0 0,-5.09 3.705,0 c 1.619,0 2.77,0.839 2.77,2.535 C 2.77,-0.858 1.619,0 0,0 m 2.789,-12.559 -3.16,6.163 -3.334,0 0,-6.163 -1.483,0 0,13.884 5.325,0 c 2.418,0 4.115,-1.462 4.115,-3.86 0,-2.028 -1.229,-3.355 -3.023,-3.725 l 3.294,-6.299 -1.734,0 z"
             style="fill:#ffffff;fill-opacity:1;fill-rule:nonzero;stroke:none"
             id="path3421"
             inkscape:connector-curvature="0" /></g><g
           id="g3423"
           transform="translate(301.1878,496.0826)"><path
             d="m 0,0 c -1.443,0 -2.613,0.507 -3.471,1.365 -1.306,1.307 -1.384,2.516 -1.384,5.695 0,3.178 0.078,4.387 1.384,5.693 0.858,0.859 2.028,1.365 3.471,1.365 2.516,0 4.33,-1.54 4.816,-4.134 l -1.519,0 C 2.926,11.7 1.736,12.792 0,12.792 c -0.936,0 -1.754,-0.331 -2.398,-0.975 -0.877,-0.896 -0.975,-1.91 -0.975,-4.757 0,-2.848 0.098,-3.862 0.975,-4.758 C -1.754,1.657 -0.936,1.326 0,1.326 c 1.736,0 2.965,1.093 3.336,2.808 l 1.48,0 C 4.33,1.54 2.496,0 0,0"
             style="fill:#ffffff;fill-opacity:1;fill-rule:nonzero;stroke:none"
             id="path3425"
             inkscape:connector-curvature="0" /></g><g
           id="g3427"
           transform="translate(309.475,496.1998)"><path
             d="m 0,0 0,13.884 1.482,0 0,-12.558 7.098,0 L 8.58,0 0,0 z"
             style="fill:#ffffff;fill-opacity:1;fill-rule:nonzero;stroke:none"
             id="path3429"
             inkscape:connector-curvature="0" /></g><g
           id="g3431"
           transform="translate(324.7035,496.0826)"><path
             d="m 0,0 c -2.807,0 -4.836,1.931 -4.836,4.7 l 0,9.301 1.482,0 0,-9.184 c 0,-2.106 1.327,-3.491 3.354,-3.491 2.029,0 3.375,1.385 3.375,3.491 l 0,9.184 1.482,0 0,-9.301 C 4.857,1.931 2.809,0 0,0"
             style="fill:#ffffff;fill-opacity:1;fill-rule:nonzero;stroke:none"
             id="path3433"
             inkscape:connector-curvature="0" /></g><g
           id="g3435"
           transform="translate(338.8421,502.6147)"><path
             d="m 0,0 -3.783,0 0,-5.089 3.783,0 c 1.717,0 2.789,0.995 2.789,2.555 C 2.789,-0.975 1.717,0 0,0 m -0.156,6.144 -3.627,0 0,-4.818 3.627,0 c 1.541,0 2.73,0.762 2.73,2.418 0,1.658 -1.189,2.4 -2.73,2.4 m 0.293,-12.559 -5.403,0 0,13.884 5.227,0 c 2.418,0 4.096,-1.384 4.096,-3.705 0,-1.462 -0.879,-2.613 -2.049,-3.041 1.326,-0.489 2.263,-1.639 2.263,-3.296 0,-2.516 -1.677,-3.842 -4.134,-3.842"
             style="fill:#ffffff;fill-opacity:1;fill-rule:nonzero;stroke:none"
             id="path3437"
             inkscape:connector-curvature="0" /></g></g></g></g></svg>