<?xml version="1.0" encoding="utf-8"?>
<!-- Generator: Adobe Illustrator 21.1.0, SVG Export Plug-In . SVG Version: 6.00 Build 0)  -->
<svg version="1.1" id="ETH" xmlns="http://www.w3.org/2000/svg" xmlns:xlink="http://www.w3.org/1999/xlink" x="0px" y="0px"
	 viewBox="0 0 140.7 22.9" style="enable-background:new 0 0 140.7 22.9;" xml:space="preserve">
<style type="text/css">
	.st0{opacity:0.53;}
	.st1{fill:#FEFEFE;}
	.st2{fill:#595959;}
	.st3{fill:#929292;}
	.st4{fill:#919191;}
	.st5{fill:#8D8D8D;}
	.st6{fill:#858585;}
	.st7{fill:#8A8A8A;}
	.st8{fill:#898989;}
	.st9{fill:#848484;}
	.st10{fill:#909090;}
	.st11{fill:#838383;}
	.st12{fill:#878787;}
	.st13{fill:#8C8C8C;}
	.st14{fill:#5A5A5A;}
	.st15{fill:#8E8E8E;}
	.st16{fill:#585858;}
	.st17{fill:#5B5B5B;}
	.st18{fill:#4F4F4F;}
	.st19{fill:#F0F0F0;}
	.st20{fill:#E5E5E5;}
	.st21{fill:#FCFCFC;}
	.st22{fill:#7F7F7F;}
	.st23{fill:#797979;}
	.st24{fill:#8F8F8F;}
	.st25{fill:#787878;}
	.st26{fill:#7B7B7B;}
	.st27{fill:#777777;}
	.st28{fill:#FDFDFD;}
	.st29{fill:#FAFAFA;}
	.st30{fill:#F9F9F9;}
	.st31{fill:#737373;}
	.st32{fill:#7E7E7E;}
</style>
<title>eth_logo_kurz_grey</title>
<g class="st0">
	<g>
		<path class="st1" d="M130.7,13.7c0,3,0,6.1,0,9.1c-40.2,0-80.4,0-120.6,0c0-7.6,0-15.2,0-22.8c40.2,0,80.4,0,120.6,0
			c0,4.5,0,9,0,13.5c-0.6,0-0.9-0.4-1.1-0.8c-0.2-0.3,0.1-0.6,0.2-0.9c-0.1,0.1-0.2,0.4-0.5,0.4s-0.4-0.1-0.6-0.3
			c-0.6-0.5-0.6-0.8-0.1-1.2c0.4-0.4,0.5-0.8,0.2-1.1s-0.9-0.4-1.2-0.2c-0.4,0.2-0.5,0.7-0.3,1.2c0.2,0.4,0.3,0.7-0.1,1
			c-0.5,0.4-0.7,0.9-0.4,1.4c0.2,0.5,0.8,0.7,1.4,0.5c0.3-0.1,0.5-0.2,0.7-0.4s0.5-0.2,0.7,0C130,13.4,130.4,13.5,130.7,13.7z"/>
		<path class="st2" d="M130.7,13.7c-0.3,0-0.5,0-0.8,0c-0.2-0.2-0.4-0.3-0.5-0.5c-1.3,0.8-2.2,0.8-2.7,0.1s-0.3-1.2,0.7-2.1
			c-0.6-1-0.6-1.5,0-1.9c0.5-0.4,1.4-0.3,1.8,0.2c0.4,0.5,0.2,1-0.7,1.8c0.2,0.3,0.5,0.6,0.8,0.8c0.2-0.3,0.4-0.6,0.6-0.8
			c0.2,0,0.4-0.1,0.6,0.1c-0.3,0.4-0.5,0.8-0.8,1.3C130,13.1,130.3,13.4,130.7,13.7C130.7,13.6,130.7,13.7,130.7,13.7z"/>
		<path class="st3" d="M39.3,3c0.3-1.1,0.9-1.8,2.2-1.8c2.8,0,5.6,0,8.4,0c1,0,2,0,3,0s1.7,0.6,2,1.5c0,2,0,3.9,0,5.9
			c-1.8,0.5-3.6,0.8-5.4,0.9c0-0.7,0-1.4,0-1.9c0,0.4,0,1,0,1.5c0,0.2,0,0.4,0.3,0.4c0,0.2-0.1,0.3-0.3,0.3s-0.3-0.1-0.3-0.3
			s0-0.4-0.1-0.6c0-0.6,0-1.3,0-1.9c0-0.5-0.3-0.8-0.8-0.8c-0.8,0-1.6,0-2.5,0c-0.2,0-0.5,0.1-0.6,0.3C45,7.3,44.8,8.1,45,9
			c0.1,0.5,0.2,0.9,0,1.4c-0.1,0.2-0.4,0.2-0.6,0.3c-1.1,0.2-2.2,0.3-3.3,0.5c-0.3,0-0.5-0.1-0.7-0.1c-0.1,0-0.2,0-0.2,0
			c-0.3,0.1-0.5,0.1-0.8,0.1c-0.2-0.2-0.1-0.4-0.1-0.6c0-2.3,0-4.6,0-7C39.3,3.3,39.4,3.1,39.3,3z"/>
		<path class="st4" d="M68.4,6.9c0.3,0.1,0.4,0.2,0.4,0.5c-0.1,0.3-0.4,0.4-0.7,0.5c-0.3,0.1-0.7,0.3-0.9,0.5
			c-0.3,0-0.5,0.1-0.8,0.2c-0.7-0.1-1.3,0.2-1.9,0.3C64,9,63.5,9.1,63,9.2c-0.3,0.1-0.7,0-1,0c-3,0.6-6,1.1-9,1.7
			c-0.9,0.2-1.9,0.3-2.9,0.5c-0.8-0.1-1.6,0.2-2.4,0.4c-2.4,0.4-4.8,0.9-7.1,1.3c-2.6,0.5-5.2,1-7.9,1.4c-1.5,0.3-3.1,0.4-4.7,0.3
			c-0.8,0-1.5,0.1-2.3,0.1c-0.6,0-1.3,0-1.9,0c-0.5,0-0.6-0.2-0.5-0.7c3.7-0.6,7.5-1.3,11.3-1.9c1.8-0.3,3.6-0.5,5.3-0.9
			c1.9-0.4,3.8-0.7,5.6-1c1.7-0.3,3.4-0.5,5.1-0.8c0.8-0.1,1.5-0.3,2.3-0.4c1.3-0.1,2.5-0.2,3.7-0.5c0.7-0.1,1.3-0.2,2-0.3
			c0.1,0,0.5,0,0.3-0.3c-0.6-0.8-1.5-1.4-2.4-1.9c0.9-0.2,1.8-0.1,2.6,0c0.5,0.1,1,0.2,1.5,0.4c0.4,0.1,0.8,0.2,1.2,0.2
			c0.5,0.1,1.1,0,1.6,0c1.3-0.1,2.5-0.1,3.8,0C67.9,6.8,68.2,7,68.4,6.9z"/>
		<path class="st5" d="M16.6,9.4c0-2.1,0-4.2,0-6.3c0-0.9,0.4-1.6,1.4-1.9c0.1,0.2,0.1,0.3,0,0.4c-0.3,0.3-0.7,0.6-0.6,1.1
			s0.5,0.9,0.8,1.1C19,4.3,19.8,5,20.8,5.3c0.3,0.1,0.5,0.1,0.8,0.1c0.7-0.1,1.5,0,2.2,0.1c0.8,0.1,1.6,0.1,2.5-0.1
			c1.6,0.1,3.2,0,4.8,0c0.3,0,0.6-0.1,0.9-0.4c1-1,2-2,3-3c0.1-0.1,0.2-0.2,0.2-0.4c-0.2-0.2-0.4-0.1-0.6-0.1c-5,0-10,0-15,0
			c-0.2,0-0.4,0-0.6,0c-0.2-0.1-0.4-0.1-0.7-0.1c-0.1,0-0.4,0-0.4-0.3H18c0.2-0.1,0.4,0,0.5,0c5.7,0,11.5,0,17.2,0
			c0.2,0,0.4-0.2,0.5,0.1c-1.5,1.5-3,3-4.5,4.5c-0.2,0.1-0.4,0.1-0.6,0.1c-2.9,0-5.8,0-8.7,0c-0.2,0-0.4-0.1-0.5,0.1
			c0,0.7,0,1.4,0,2C22.4,8.1,22.6,8,22.8,8c2.2,0,4.4,0,6.6,0c0.2,0,0.5-0.1,0.7,0.1c-0.2,0.1-0.3,0-0.5,0c-2.2,0-4.3,0-6.5,0
			c2.3,0,4.6,0,6.9,0c0,1.5,0,2.9,0,4.4c-1.2,0.1-2.3,0.1-3.4-0.6c-3-1.8-6.1-3.6-9.2-5.3c-0.1-0.1-0.3-0.2-0.4-0.1
			c-0.1,0.2,0,0.5-0.1,0.7c0,0.6,0,1.1,0,1.7C16.9,9.1,16.9,9.4,16.6,9.4z"/>
		<path class="st6" d="M16.6,9.4c0.2-0.9,0-1.8,0.1-2.7c0-0.3,0-0.7,0.1-1.1c1,1.1,2.3,1.6,3.5,2.3c2.2,1.4,4.6,2.6,6.8,4
			c1.1,0.6,2,0.8,2.9,0.5c0-1.3,0-2.7,0-4.1c-2.6,0-5.1,0-7.7,0c0-0.1,0-0.1,0-0.2c2.6,0,5.2,0,7.8,0c0.1,1.5,0,3,0,4.5
			c-2.7,0-5.3,0-7.9,0c-0.2,0.5,0,0.9-0.2,1.5c-1.8,0.3-3.6,0.6-5.4,0.9C16.6,13.1,16.6,11.3,16.6,9.4z"/>
		<path class="st7" d="M35,12.4c-2.5,0.4-5.1,0.8-7.6,1.2c-1,0.2-2,0.3-3,0.5c-0.2,0-0.5,0-0.6,0.2c0,0.2,0.2,0.3,0.4,0.3
			c1.1-0.1,2.3,0,3.4-0.1c1.3-0.1,2.6,0,4,0c0.9,0,1.8-0.2,2.6-0.4c4.7-0.9,9.5-1.7,14.2-2.6c0.6-0.1,1.3-0.4,1.9-0.2
			c-2.5,0.5-5,0.9-7.5,1.4c-2.9,0.5-5.7,1-8.6,1.6c-3.7,0.7-7.4,1.3-11,2c-0.1-0.1-0.3-0.1-0.5-0.1c-3.4,0.2-6.9,0-10.3,0.1
			c-0.7,0-1.3,0-1.9,0.3c-0.3-0.9,0-1.7,0.8-2.3c0.9-0.7,2.1-1,3.2-1.1c0.3,0,0.7-0.1,1-0.1c0.2,0.3,0,0.4-0.2,0.5
			c-0.5,0.1-1,0.3-1.4,0.6c-0.3,0.2-0.6,0.5-0.7,0.9c0.2,0.4,0.6,0.3,0.9,0.4c1.4,0.1,2.7-0.3,4-0.5c2.2-0.3,4.4-0.7,6.6-1
			c2.3-0.3,4.5-0.8,6.8-1.1C32.6,12.7,33.7,12.5,35,12.4C35,12.3,35,12.4,35,12.4z"/>
		<path class="st4" d="M32.8,6.7C34.4,5,36,3.4,37.6,1.8c0.2,0.1,0.2,0.3,0.2,0.4c0,2.4,0,4.9,0,7.3C37.7,9.8,37.4,10,37,10
			c-1.2,0-2.4,0-3.5,0c-0.6,0-0.7-0.1-0.7-0.7C32.8,8.5,32.8,7.6,32.8,6.7z"/>
		<path class="st8" d="M43.6,13.4c0.4-0.1,0.8-0.2,1.2-0.2c0.2,0.2,0.1,0.4,0.1,0.6c0,0.8,0,1.5,0,2.3c0,0.6,0.3,0.9,0.9,0.9
			c0.9,0,1.8,0,2.6,0c0.7,0,0.9-0.3,0.9-0.9c0-1,0-2,0-3.1c0-0.2,0-0.4,0-0.7c1.9-0.4,3.8-0.7,5.6-1c0.1,0.2,0.1,0.4,0.1,0.6
			c0,2.5,0,5,0,7.5c0,0.2,0,0.5-0.1,0.7c-0.3-0.2-0.3-0.5-0.3-0.8c0.1-0.6-0.2-0.9-0.7-1c-0.2,0-0.5,0-0.8,0c-4.3,0-8.5,0-12.8,0
			c-0.3,0-0.7,0.1-1.1-0.2c-0.1-0.5,0-1,0-1.6c0-0.2,0.1-0.2,0.3-0.2c1,0,2,0,3,0c0.4,0,0.8,0.1,1.2,0c0.4,0,0.7-0.3,0.7-0.7
			c0-0.3,0-0.7,0-1c0-0.5,0-0.9-0.6-0.9C43.7,13.7,43.5,13.6,43.6,13.4z"/>
		<path class="st1" d="M45,6.2c0.2-0.3,0.5-0.4,0.9-0.4c0.8,0,1.6,0,2.4,0c0.9,0,1.1,0.2,1.1,1.1s0,1.7,0,2.6
			c0.2,0.2,0.3,0.1,0.5,0.1c0.5-0.3,1.1-0.2,1.7-0.4C52.3,9,53,9,53.8,8.8c0.2,0,0.4-0.1,0.6,0.1c0,0.1,0,0.1,0,0.2
			c-1,0.4-2,0.4-3,0.6c-1.4,0.2-2.9,0.5-4.3,0.7c-1.9,0.3-3.9,0.7-5.8,1c-0.2,0-0.3,0.1-0.4-0.1c-0.1-0.1-0.2-0.1-0.3-0.2
			c1.3-0.2,2.7-0.4,4-0.6c0.1,0,0.3,0,0.4-0.2c-0.1-1.1,0-2.2-0.1-3.3C44.8,6.7,44.7,6.4,45,6.2z"/>
		<path class="st9" d="M39.4,16.4c0,0.5-0.1,1,0.1,1.5c0.3,0.2,0.5,0.1,0.8,0.1c4.6,0,9.2,0,13.7,0c1,0,1,0,1,1c0,0.4,0,0.7,0,1.1
			c-0.3,1.1-1.1,1.7-2.2,1.7c-2.7,0-5.5,0-8.2,0c-1,0-2,0-3,0c-1.5,0-2.3-0.9-2.3-2.3c0-1.7,0-3.5,0-5.2c0.1,0,0.2,0,0.3,0.1
			c0.2,0.6,0.1,1.1,0.1,1.7C39.6,16.2,39.5,16.3,39.4,16.4z"/>
		<path class="st10" d="M39.4,16.4c0-0.7,0-1.4,0-2c0.2-0.3,0.6-0.2,0.9-0.3c0.6-0.1,1.2-0.1,1.7-0.4c0.5-0.2,1.1-0.3,1.6-0.3
			c0.3,0.2,0.7-0.1,1,0.1c0.2,0.2,0.1,0.4,0.1,0.7c0,0.6,0,1.1,0,1.7c0,0.5-0.3,0.7-0.7,0.8c-0.3,0-0.7,0-1,0c-1-0.1-1.9-0.1-2.9,0
			C39.8,16.6,39.6,16.5,39.4,16.4z"/>
		<path class="st5" d="M26.3,5.6c-1.4,0-2.8,0.1-4.2-0.1c-0.3,0-0.4,0.2-0.7,0.3c-0.6-0.4-1.3-0.5-1.9-0.9c-0.5-0.3-1-0.6-1.4-0.9
			s-0.8-0.7-1-1.2s0.1-0.9,0.5-1.3c0.1-0.1,0.4-0.2,0.5-0.4h0.1c0.3,0.2,0.7,0.1,1.1,0.1c0.1,0.3-0.1,0.4-0.2,0.6
			c0.4,0.3,0.8,0.5,1.2,0.7c1.2,0.8,2.6,1.4,3.8,2.2C24.2,5,24.6,5.1,25,5.1c0.3,0,0.6,0.1,0.9,0.1C26.2,5.3,26.3,5.4,26.3,5.6z"/>
		<path class="st11" d="M10.5,16.6c0.1-0.4,0.3-0.6,0.8-0.6c3.8,0,7.5,0,11.3,0c0.3,0,0.6,0,0.7,0.3c-1.7,0.3-3.4,0.7-5.2,1
			c-1.2,0.2-2.4,0.5-3.6,0.6c-1,0.1-1.9,0.1-2.9-0.2C11.1,17.5,10.7,17.2,10.5,16.6z"/>
		<path class="st2" d="M109,5.8c-0.4,0-0.7,0-1.1,0c-0.7-1.1-1.5-2.3-2.2-3.4h-0.1c0,1.1,0,2.2,0,3.3c-0.3,0.2-0.5,0.1-0.8,0.1
			c0-1.5,0-3.1,0-4.7c0.4-0.1,0.7-0.1,1.1,0c0.7,1.1,1.5,2.2,2.2,3.4h0.1c0-1.1,0-2.2,0-3.2c0.3-0.2,0.6-0.1,0.8-0.1
			C109,2.7,109,4.2,109,5.8z"/>
		<path class="st2" d="M73.3,22.5c-0.2,0.1-0.3,0.1-0.5,0c0-7.4,0-14.8,0-22.2c0.2-0.1,0.3-0.1,0.5,0C73.3,7.7,73.3,15.1,73.3,22.5z
			"/>
		<path class="st10" d="M66.5,8.3c0.2-0.1,0.4-0.1,0.6-0.2c0.4-0.1,0.8-0.2,1.2-0.3c0.2-0.1,0.3-0.2,0.5-0.1
			c-0.2,0.7-0.8,1.1-1.4,1.4c-1.4,0.7-2.8,1.2-4.3,1.5c-0.6,0.1-1,0.3-1.4,0.8c-0.1,0.1-0.2,0.2-0.3,0.2c-0.5,0.1-0.9,0.2-1.4,0.2
			c-0.3,0-0.5-0.2-0.5-0.6c0.1-0.4,0.2-0.8,0.3-1.2c0.9-0.2,1.7-0.4,2.6-0.6C63.1,9.1,64,9,64.7,8.8C65.3,8.6,65.9,8.5,66.5,8.3z"/>
		<path class="st12" d="M37.7,14.5c0.2-0.1,0.3,0.1,0.3,0.2c0,2.3,0,4.5,0,6.8c0,0,0,0.1-0.1,0.1c-1.7,0-3.3,0-5,0
			c-0.2-0.2-0.1-0.4-0.1-0.6c0-1.7,0-3.4,0-5.2c0-0.2-0.1-0.5,0.3-0.6c0.1-0.1,0.2,0,0.3,0c0.1,0.2,0,0.4-0.1,0.5
			c-0.1,0.4,0.1,0.7,0.5,0.7c1.1,0.1,2.2,0.1,3.3,0c0.4,0,0.5-0.4,0.5-0.7C37.5,15.4,37.4,14.9,37.7,14.5z"/>
		<path class="st13" d="M32.8,6.7c0.2,0.7,0.1,1.4,0.1,2.2c0,0.9,0.1,0.9,0.9,0.9c1,0,2.1,0,3.1,0c0.3,0,0.6,0,0.8-0.2
			c0.2,0.6,0,1.2,0.1,1.8c-1.2,0.3-2.4,0.4-3.6,0.6c-0.5,0.1-1,0.3-1.5,0.2c-0.1-0.1-0.1-0.2-0.1-0.4c0-1.6,0-3.2,0-4.8
			C32.7,7,32.8,6.8,32.8,6.7z"/>
		<path class="st14" d="M126.6,1.1c0.3-0.1,0.5-0.1,0.8,0c0.2,0.6,0,1.2,0.1,1.8c0.7,0.1,1.4,0,2.1,0c0.2-0.6,0-1.2,0.1-1.8
			c0.3-0.1,0.5-0.1,0.8,0c0,1.5,0,3.1,0,4.7c-0.3,0.1-0.5,0.1-0.8,0c0-0.7,0-1.3,0-2c-0.7-0.1-1.4,0-2.1,0c-0.2,0.7,0,1.3-0.1,2
			c-0.3,0.1-0.5,0.1-0.8,0C126.6,4.3,126.6,2.7,126.6,1.1z"/>
		<path class="st15" d="M37.7,14.5c0.2,0.7,0.1,1.5,0,2.2c-0.2,0.2-0.5,0.2-0.7,0.2c-1.1,0-2.2,0-3.3,0c-0.8,0-1.1-0.6-0.7-1.3
			c0.1-0.1,0.2-0.2,0-0.2C34.6,15,36.1,14.7,37.7,14.5z"/>
		<path class="st2" d="M119.2,5.1c0.1,0.3,0.1,0.5,0,0.7c-1,0-2.1,0-3.2,0c0-1.5,0-3.1,0-4.7c1,0,2,0,3,0c0.1,0.2,0.1,0.4,0,0.7
			c-0.7,0-1.4,0-2.2,0c-0.1,0.4-0.1,0.8,0,1.2c0.7,0,1.3,0,2,0c0.2,0.3,0.1,0.5,0.1,0.8c-0.7,0-1.4,0-2.1,0c-0.1,0.5-0.1,0.8,0,1.3
			C117.6,5.1,118.4,5.1,119.2,5.1z"/>
		<path class="st2" d="M88.2,3.5c0-0.5,0-0.9,0.2-1.4C88.7,1.4,89.2,1,89.8,1c0.7,0,1.3,0.3,1.5,1c0.4,1,0.4,2,0,2.9
			c-0.3,0.7-0.8,1-1.5,1s-1.2-0.4-1.5-1.1C88.2,4.4,88.2,4,88.2,3.5z"/>
		<path class="st2" d="M85,12.6c0-1.1,0-2.3,0-3.4c0.2-0.2,0.4-0.1,0.6,0c0,1.5,0,3,0,4.5c-0.2,0.1-0.5,0.1-0.8,0
			c-0.8-1.2-1.6-2.4-2.4-3.6h-0.1c0,1.2,0,2.3,0,3.5c-0.2,0.1-0.4,0.1-0.6,0c0-1.5,0-3,0-4.5C82,9,82.2,9,82.5,9.1
			C83.3,10.3,84.1,11.4,85,12.6C84.9,12.7,85,12.6,85,12.6z"/>
		<path class="st2" d="M113.9,13.8c-1.4,0-2.4-1-2.4-2.4s1-2.4,2.4-2.4s2.4,1,2.4,2.4S115.3,13.8,113.9,13.8z"/>
		<path class="st2" d="M124.4,4.7c0.2,0.1,0.4,0.2,0.6,0.4c-0.4,0.7-1.3,1-2.4,0.8c-1-0.2-1.8-1.1-1.9-2.2s0.5-2.2,1.4-2.6
			c1-0.4,2-0.2,2.7,0.5c-0.1,0.2-0.4,0.3-0.5,0.5c-1.1-0.7-1.9-0.4-2.4,0.2c-0.5,0.7-0.5,1.8,0.1,2.4C122.7,5.4,123.4,5.4,124.4,4.7
			z"/>
		<path class="st2" d="M123.6,21.7c-1.3,0-2.3-1-2.4-2.3c0-1.4,1-2.4,2.3-2.4s2.4,1,2.4,2.4C126,20.7,125,21.7,123.6,21.7z"/>
		<path class="st2" d="M98,9.1c0.7,0,1.4-0.1,2,0.1c0.4,0.1,0.8,0.3,0.9,0.8s0,0.9-0.4,1.1c-0.1,0-0.1,0.1-0.2,0.2
			c0.4,0.2,0.7,0.5,0.8,0.9c0.1,0.7-0.3,1.3-1.2,1.5c-0.2,0-0.4,0-0.6,0c-0.4,0-0.9,0-1.4,0C98,12.2,98,10.7,98,9.1z"/>
		<path class="st16" d="M121.1,13.7c-0.3,0-0.5,0-0.8,0c-0.4-0.7-0.8-1.3-1.1-1.9c-0.2-0.1-0.4-0.1-0.7,0c0,0.6,0,1.2,0,1.8
			c-0.2,0.1-0.4,0.1-0.6,0.1c0-1.5,0-3,0-4.5c0.7,0,1.5-0.1,2.2,0.1c0.5,0.1,0.7,0.5,0.8,1c0.1,0.5-0.1,0.9-0.5,1.2
			c-0.1,0.1-0.3,0.2-0.5,0.3C120.2,12.3,120.6,13,121.1,13.7z"/>
		<path class="st14" d="M80,3.9c0,0.7,0,1.3,0,1.9c-0.3,0.1-0.5,0.1-0.8,0c0-1.5,0-3.1,0-4.7c1-0.1,2,0,2.9,0c0.2,0.2,0.1,0.5,0,0.8
			c-0.7,0-1.4,0-2.1,0c0,0.4,0.1,0.7,0.1,1.1c0.7,0.2,1.3,0,2,0.1c0.1,0.2,0.1,0.4,0,0.7C81.5,3.9,80.8,3.9,80,3.9z"/>
		<path class="st2" d="M110.9,21.5c-0.3,0.1-0.5,0.1-0.7,0c-0.4-0.6-0.7-1.3-1.1-1.9c-0.2-0.1-0.4-0.1-0.7,0c-0.1,0.6,0,1.3-0.1,1.9
			c-0.2,0.1-0.4,0.1-0.6,0c0-1.5,0-2.9,0-4.5c0.7,0,1.5-0.1,2.2,0c0.5,0.1,0.8,0.4,0.9,1c0.1,0.5-0.1,1-0.5,1.3
			c-0.1,0.1-0.3,0.2-0.5,0.3C110.1,20.2,110.5,20.8,110.9,21.5z"/>
		<path class="st2" d="M127.5,17.1c0.6-0.1,1.2-0.1,1.8,0c0.7,0.1,1,0.5,1.1,1c0.1,0.6-0.2,1-0.8,1.3c-0.1,0-0.1,0.1-0.3,0.1
			c0.4,0.6,0.8,1.3,1.2,1.9c-0.3,0.1-0.5,0.1-0.7,0c-0.4-0.6-0.7-1.3-1.1-1.9c-0.2-0.1-0.4-0.1-0.7,0c0,0.6,0,1.2,0,1.8
			c-0.2,0.1-0.4,0.1-0.6,0.1C127.5,20.1,127.5,18.6,127.5,17.1z"/>
		<path class="st2" d="M104.7,9.2c0.6,1.5,1.3,3,1.9,4.5c-0.2,0.1-0.4,0.1-0.7,0c-0.1-0.3-0.3-0.7-0.4-1c-0.7,0-1.4,0-2.2,0
			c-0.2,0.3-0.3,0.7-0.5,1.1c-0.2,0-0.4,0-0.7,0c0.7-1.5,1.3-3,2-4.5C104.3,9.1,104.5,9.1,104.7,9.2z"/>
		<path class="st2" d="M114,17.1c0.2-0.1,0.4-0.1,0.6,0c0.6,1.4,1.3,2.9,1.9,4.4c-0.2,0.1-0.4,0.1-0.6,0c-0.3-0.3-0.3-0.7-0.5-1
			c-0.7,0-1.4,0-2.1,0c-0.3,0.3-0.3,0.7-0.5,1c-0.2,0-0.4,0-0.7,0C112.7,20,113.4,18.5,114,17.1z"/>
		<path class="st2" d="M80.6,17.1c0.2-0.1,0.4-0.1,0.6,0c0.6,1.4,1.3,2.9,1.9,4.4c-0.2,0.2-0.4,0.1-0.7,0.1c-0.1-0.3-0.3-0.7-0.5-1
			c-0.7,0-1.4,0-2.2,0c-0.1,0.3-0.3,0.7-0.4,1c-0.2,0.1-0.4,0.1-0.7,0C79.3,20,80,18.5,80.6,17.1z"/>
		<path class="st2" d="M92.6,9.2c0.2-0.1,0.4-0.1,0.6,0c0,0.6,0,1.3,0,2c0,0.3,0,0.6,0,1c0.1,0.7,0.5,1.1,1.2,1
			c0.6,0,1.1-0.5,1.1-1.1c0-0.8,0-1.7,0-2.5c0-0.1,0-0.3,0-0.4c0.2-0.1,0.4-0.1,0.6,0c0,1.1,0.1,2.2-0.1,3.3
			c-0.2,0.9-0.9,1.4-1.8,1.3c-0.8-0.1-1.6-0.6-1.6-1.5C92.6,11.3,92.6,10.3,92.6,9.2z"/>
		<path class="st14" d="M100.2,1.2c0,0.2,0,0.4,0,0.6c-0.7,0.2-1.4,0-2.1,0.1C98,2.3,98,2.6,98.1,3c0.7,0.2,1.4,0,2,0.1
			c0.1,0.2,0.1,0.4,0,0.7c-0.7,0-1.3,0-2,0c-0.2,0.7,0,1.3-0.1,1.9c-0.3,0.1-0.5,0.1-0.8-0.1c0.1-0.3,0.1-0.7,0.1-1
			c0-1.2,0-2.3,0-3.6C98.2,1.2,99.2,1.1,100.2,1.2z"/>
		<path class="st2" d="M103.8,17.6c-0.1,0.4-0.1,0.8,0,1.3c0.7,0.2,1.4,0,2.1,0.1c0.1,0.2,0.1,0.3,0,0.5c-0.6,0-1.3,0-2,0
			c-0.1,0.5-0.1,1,0,1.5c0.8,0,1.5,0,2.3,0c0.2,0.2,0.1,0.4,0.1,0.5c-1,0-2,0-3,0c0-1.5,0-3,0-4.5c0.9,0,1.9,0,2.8,0
			c0.2,0.1,0.1,0.3,0.1,0.5C105.3,17.7,104.6,17.5,103.8,17.6z"/>
		<path class="st2" d="M94.6,17c1,0,1.9,0,2.8,0c0.1,0.2,0.1,0.3,0,0.5c-0.7,0-1.4,0-2.2,0c-0.1,0.5-0.1,0.9-0.1,1.3
			c0.7,0.2,1.4,0,2.1,0.1c0.1,0.2,0.1,0.3,0.1,0.5c-0.7,0.1-1.4,0-2.1,0.1c-0.1,0.5-0.1,0.9,0,1.4c0.8,0,1.6,0,2.3,0
			c0.1,0.2,0.1,0.4,0,0.6c-0.9,0-1.9,0-2.9,0C94.6,20,94.6,18.6,94.6,17z"/>
		<path class="st2" d="M113,5.8c-0.4,0.1-0.6,0.1-0.9,0c0-1.3,0-2.6,0-3.9c-0.5-0.2-1,0-1.4-0.1c-0.1-0.2-0.1-0.4,0-0.7
			c1.2,0,2.4,0,3.6,0c0.1,0.2,0.1,0.4,0.1,0.7c-0.5,0.2-0.9,0-1.4,0.1C113,3.2,113,4.5,113,5.8z"/>
		<path class="st2" d="M91.2,9.7c-0.1,0.2-0.3,0.3-0.4,0.4c-0.9-0.7-1.8-0.6-2.4,0.2c-0.6,0.7-0.6,1.9,0.1,2.5
			c0.6,0.7,1.5,0.7,2.5,0c0.2,0,0.3,0.2,0.4,0.3c-0.3,0.6-1.2,1-2.1,0.8c-1-0.2-1.7-1-1.8-2.1c-0.1-1.1,0.4-2.1,1.3-2.5
			C89.4,8.8,90.7,9,91.2,9.7z"/>
		<path class="st2" d="M92.7,20.6c0.2,0.1,0.3,0.2,0.4,0.3c-0.4,0.8-1.6,0.9-2.3,0.7c-1-0.3-1.7-1.2-1.7-2.3c0-1.1,0.6-2,1.5-2.3
			c1-0.3,1.9-0.1,2.4,0.6c-0.1,0.2-0.2,0.3-0.4,0.3c-1-0.7-1.9-0.6-2.5,0.2c-0.6,0.7-0.5,1.9,0.2,2.5C90.9,21.3,91.8,21.3,92.7,20.6
			z"/>
		<path class="st2" d="M87.6,20.6c0.2,0.1,0.3,0.2,0.4,0.3c-0.7,0.9-2.2,1.1-3.2,0.3c-1.1-0.9-1.2-2.7-0.2-3.6
			c0.9-0.9,2.5-0.9,3.2,0c0,0.2-0.2,0.3-0.4,0.4c-1.2-0.8-2-0.5-2.5,0.3s-0.4,1.9,0.2,2.5C85.8,21.3,86.6,21.3,87.6,20.6z"/>
		<path class="st17" d="M85.9,1.1c0,1.6,0,3.1,0,4.7c-0.2,0.1-0.5,0.1-0.8,0.1c0-1.2,0-2.4,0-3.7c-0.4,0.1-0.6,0.5-0.9,0.6
			c-0.2-0.1-0.3-0.3-0.4-0.5C84.5,1.9,84.8,0.9,85.9,1.1z"/>
		<path class="st14" d="M110.5,9.2c0.1,0.2,0.1,0.3,0,0.5c-0.4,0.1-0.9,0-1.4,0.1c0,1.3,0,2.6,0,3.8c-0.2,0.2-0.4,0.1-0.6,0.1
			c0-1.3,0-2.6,0-3.9c-0.5-0.2-1,0-1.4-0.2c-0.1-0.2-0.1-0.3,0-0.5C108.2,9.2,109.4,9.2,110.5,9.2z"/>
		<path class="st12" d="M22,17.3c0,1.5,0,2.9,0,4.3c-1.9,0-3.7,0-5.5,0c0-1.1,0-2.1,0-3.3C18.3,17.9,20.1,17.6,22,17.3z"/>
		<path class="st14" d="M120.3,17.1c0.1,0.2,0.1,0.3,0,0.5c-0.4,0.2-0.9,0-1.4,0.1c0,1.2,0,2.5,0,3.7c-0.2,0.2-0.4,0.2-0.6,0.1
			c0-1.2,0-2.5,0-3.8c-0.5-0.2-1,0-1.4-0.1c-0.1-0.2-0.1-0.3,0-0.5C118.1,17.1,119.2,17.1,120.3,17.1z"/>
		<path class="st14" d="M99.2,17.1c0.3-0.1,0.3-0.1,0.6,0c0,1.3,0,2.6,0,3.9c0.7,0,1.4,0,2,0c0.1,0.2,0.1,0.4,0,0.6
			c-0.8,0-1.7,0-2.6,0C99.2,20,99.2,18.6,99.2,17.1z"/>
		<path class="st2" d="M101.9,5.8c0-1.6,0-3.1,0-4.6c0.3-0.1,0.5-0.1,0.8,0c0,1.5,0,3.1,0,4.6C102.5,5.9,102.2,5.9,101.9,5.8z"/>
		<path class="st13" d="M40.8,11.2c1.4-0.1,2.8-0.4,4.2-0.7c2.7-0.4,5.4-0.9,8.1-1.3C53.5,9.1,53.9,9,54.4,9
			c0.8-0.1,1.7-0.3,2.5-0.4c0.1,0,0.3-0.2,0.4,0.1c-1.9,0.3-3.7,0.6-5.6,0.9c-5.4,0.9-10.7,1.8-16.1,2.6c-0.2,0-0.4,0.1-0.6,0.1
			c0-0.1,0-0.1,0-0.2c1.5-0.2,2.9-0.5,4.4-0.7C39.8,11.4,40.3,11.4,40.8,11.2z"/>
		<path class="st14" d="M79.8,13.7c-0.2,0.1-0.4,0.1-0.6,0c0-1.5,0-3,0-4.5c0.2-0.1,0.3-0.1,0.6,0C79.8,10.7,79.8,12.1,79.8,13.7z"
			/>
		<path class="st8" d="M54.3,8.9c-1.3,0.1-2.7,0.4-4,0.6c-0.1,0-0.3,0-0.4,0.1c-0.3,0-0.3-0.2-0.3-0.5c0-0.8,0-1.6,0-2.4
			c0.1,0.9,0,1.8,0.1,2.7c1.7-0.3,3.4-0.6,5-0.8c0.2-0.3,0.2-0.5,0.2-0.8c0-1.5,0-3,0-4.5c0-0.2,0-0.5,0.1-0.7
			c0.1,0.2,0.1,0.4,0.1,0.6c0,1.7,0,3.4,0,5c0,0.1,0,0.2,0,0.3C54.8,8.8,54.5,8.7,54.3,8.9z"/>
		<path class="st12" d="M59.5,11.3c0.2,0.3,0.5,0.3,0.8,0.3c0.4,0,0.7-0.1,1.1,0.1c-0.8,0.8-1.6,1.4-2.9,1.5
			C59,12.5,59.3,11.9,59.5,11.3z"/>
		<path class="st9" d="M37.9,11.5c-0.2-0.6-0.1-1.2-0.1-1.8c0-2.3,0-4.6,0-6.9c0-0.3,0-0.6-0.1-0.8c0.1-0.1,0.1-0.1,0.2-0.2
			c0.1,0,0,0.1,0,0.2c0,3,0,6,0,9C37.9,11.1,38,11.3,37.9,11.5z"/>
		<path class="st5" d="M36.5,1.2c-0.3-0.1-0.6-0.1-0.8-0.1c-5.8,0-11.6,0-17.5,0C18.4,1,18.6,1,18.8,1C24.6,1,30.3,1,36,1
			C36.1,1,36.4,0.8,36.5,1.2z"/>
		<path class="st13" d="M68.4,6.9c-0.3,0.1-0.6,0-0.9-0.1c-1.2-0.1-2.3-0.1-3.5,0C63.3,6.9,62.5,7,61.8,7c0.2-0.1,0.3-0.1,0.5-0.2
			c1.7-0.2,3.4-0.3,5.1-0.2C67.8,6.7,68.1,6.8,68.4,6.9z"/>
		<path class="st5" d="M22.1,5.9c0.2-0.2,0.5-0.1,0.8-0.1c3,0,6.1,0,9.1,0c-0.2,0.2-0.4,0.1-0.7,0.1c-2.8,0-5.6,0-8.4,0
			C22.6,5.9,22.3,5.9,22.1,5.9z"/>
		<path class="st6" d="M39.3,3c0.1,0.2,0.1,0.5,0.1,0.7c0,2.2,0,4.4,0,6.5c0,0.2,0,0.5,0.1,0.7c0.2,0.2,0.5,0.1,0.8,0.1
			c-0.3,0.2-0.6,0.2-0.9,0.2c-0.1-0.1-0.1-0.3-0.1-0.4c0-2.5,0-5,0-7.5C39.2,3.2,39.3,3.1,39.3,3z"/>
		<path class="st18" d="M100.2,1.2c-0.9,0-1.8,0-2.7,0c-0.3,0.3-0.2,0.5-0.2,0.7c0,1.1,0,2.1,0,3.2c0,0.2,0,0.5-0.1,0.7
			c0-1.5,0-3.1,0-4.7C98.2,1.1,99.2,1,100.2,1.2C100.1,1.1,100.1,1.2,100.2,1.2z"/>
		<path class="st19" d="M66.5,8.3c-0.6,0.4-1.3,0.4-2,0.6c-0.7,0.2-1.4,0.3-2.1,0.5c-0.1,0-0.1-0.1-0.2-0.1C63.6,9,65,8.5,66.5,8.3z
			"/>
		<path class="st13" d="M57.2,8.8c-0.1,0-0.2-0.1-0.4-0.1c0.6-0.2,1.2-0.3,1.9-0.3c0.2,0,0.5,0,0.6-0.3c0.2-0.1,0.2,0,0.3,0.2
			C58.9,8.6,58,8.5,57.2,8.8z"/>
		<path class="st8" d="M41.9,13.7c0,0,0.1,0,0.3,0.1c-1,0.2-1.9,0.4-2.8,0.6l-0.1-0.1c0.7-0.3,1.4-0.3,2-0.4
			C41.5,13.8,41.7,13.7,41.9,13.7z"/>
		<path class="st20" d="M68.9,7.7c-0.4,0.1-0.8,0.3-1.2,0.4c-0.2,0.1-0.4,0.1-0.6,0c0.6-0.2,1.2-0.4,1.7-0.7
			C68.9,7.5,68.9,7.6,68.9,7.7z"/>
		<path class="st21" d="M127.9,11.6c0.4,0.4,0.7,0.7,1.1,1.1c-0.3,0.5-0.7,0.7-1.2,0.6c-0.4-0.1-0.6-0.3-0.6-0.7
			C127.1,12,127.4,11.8,127.9,11.6z"/>
		<path class="st21" d="M128,10.9c-0.3-0.2-0.5-0.5-0.4-0.9c0.1-0.3,0.4-0.3,0.6-0.3s0.4,0.1,0.4,0.4
			C128.7,10.5,128.4,10.7,128,10.9z"/>
		<path class="st9" d="M45,6.2C44.8,7.1,44.9,8,44.9,9c0,0.4,0,0.9,0,1.3c-0.2-0.3-0.1-0.6-0.1-0.8c0-0.9,0-1.8,0-2.7
			C44.8,6.5,44.7,6.3,45,6.2z"/>
		<path class="st9" d="M45.6,5.7c1,0,2,0,3,0c0,0,0,0,0,0.1C47.6,5.7,46.6,5.7,45.6,5.7L45.6,5.7z"/>
		<path class="st4" d="M26.3,5.6c-0.3-0.3-0.7-0.3-1.1-0.3c-0.7,0.1-1.2-0.2-1.7-0.6s-1-0.6-1.6-0.9c-1.1-0.6-2.1-1.4-3.3-1.9
			c-0.1-0.1-0.3-0.1-0.3-0.3c0.2-0.3,0.7-0.2,0.9-0.5c5.6,0,11.2,0,16.9,0c0,0.3-0.2,0.4-0.3,0.5c-1.1,1.2-2.3,2.3-3.4,3.5
			c-0.3,0.3-0.7,0.4-1.1,0.4C29.5,5.6,27.9,5.6,26.3,5.6z"/>
		<path class="st22" d="M16.8,11.6c0-0.7-0.1-1.4,0.1-2.1c0.5,0.2,1,0.4,1.4,0.7c1,0.6,1.9,1.2,2.9,1.7c0.5,0.3,0.7,0.6,0.6,1.1
			c0,0.3,0,0.6-0.1,0.9c-0.4,0.3-0.8,0.2-1.2,0.3c-0.3-0.3-0.7-0.4-1-0.6c-0.6-0.4-1.3-0.7-1.9-1.1C17.2,12.2,17,11.9,16.8,11.6z"/>
		<path class="st23" d="M16.8,11.6c1.2,0.7,2.4,1.4,3.6,2.1c0.2,0.1,0.3,0.2,0.2,0.5c-1,0.1-1.9,0.3-2.9,0.5c-0.3,0.1-0.6,0.1-1,0.1
			C16.8,13.6,16.8,12.6,16.8,11.6z"/>
		<path class="st24" d="M49.6,12.5c1.8-0.3,3.4-0.6,5-0.9c0.2,0.2,0.2,0.4,0.2,0.6c0,1.3,0,2.5,0,3.8c0,0.5-0.3,0.8-0.8,0.8
			c-1.3-0.2-2.6,0-4-0.1c-0.1,0-0.2,0-0.4-0.1C49.5,15.2,49.6,13.9,49.6,12.5z"/>
		<path class="st25" d="M54.7,20.4c-0.4,0.8-1,1.2-1.8,1.2c-3.8,0-7.5,0-11.3,0c-0.9,0-1.6-0.4-1.9-1.3c0.1-0.2,0.2-0.3,0.5-0.4
			c0.2,0,0.4,0,0.6,0c4.3,0,8.5,0,12.8,0c0.2,0,0.5,0,0.7,0C54.5,20,54.7,20.1,54.7,20.4z"/>
		<path class="st22" d="M54.7,20.4c-0.2-0.2-0.4-0.2-0.6-0.2c-4.6,0-9.2,0-13.8,0c-0.2,0-0.4,0-0.6,0.1c-0.1-0.3-0.2-0.7,0-1
			c0.2-0.2,0.5-0.2,0.8-0.2c4.5,0,9,0,13.5,0C54.9,19.1,55.1,19.4,54.7,20.4z"/>
		<path class="st26" d="M18.1,17c-2,0.4-3.9,1-5.9,0.7c-0.4-0.1-0.8-0.2-1.2-0.7C13.4,16.9,15.8,17,18.1,17z"/>
		<path class="st22" d="M32.9,20.4c0-0.3,0-0.7-0.1-1c-0.1-0.7,0.2-1,0.9-1c1,0,2.1,0,3.1,0c0.5,0,0.7,0.1,0.8,0.7
			c0.2,0.8,0.1,1.6,0,2.4c-0.2-0.2-0.3-0.4-0.3-0.6c0-0.4-0.2-0.6-0.6-0.6c-1,0-2,0-2.9,0C33.5,20.2,33.2,20.5,32.9,20.4z"/>
		<path class="st27" d="M32.9,20.4c0.1-0.1,0.1-0.3,0.4-0.4c1.4,0,2.8,0,4.3,0c0.1,0.5,0,1,0.1,1.5c-1.5,0-3.1,0-4.6,0
			C32.8,21.1,33,20.7,32.9,20.4z"/>
		<path class="st28" d="M90.8,3.5c0,0.4,0,0.8-0.2,1.2c-0.2,0.3-0.4,0.5-0.7,0.5c-0.3,0-0.5-0.2-0.7-0.5c-0.3-0.8-0.3-1.6,0-2.4
			c0.1-0.3,0.3-0.5,0.7-0.5c0.4,0,0.5,0.2,0.7,0.5C90.8,2.7,90.8,3.1,90.8,3.5z"/>
		<path class="st1" d="M113.9,9.6c1,0,1.7,0.8,1.7,1.8s-0.7,1.8-1.7,1.8s-1.8-0.8-1.7-1.9C112.2,10.4,112.9,9.6,113.9,9.6z"/>
		<path class="st1" d="M123.6,17.6c1,0,1.7,0.7,1.7,1.7s-0.7,1.8-1.7,1.8s-1.7-0.8-1.7-1.8C121.9,18.3,122.6,17.6,123.6,17.6z"/>
		<path class="st21" d="M98.6,13.2c-0.1-0.6-0.1-1,0-1.6c0.6,0,1.2-0.2,1.7,0.3c0.2,0.2,0.3,0.6,0.1,0.8
			C99.9,13.4,99.3,13.1,98.6,13.2z"/>
		<path class="st29" d="M98.6,9.7c0.4-0.1,0.7-0.1,1,0c0.4,0,0.6,0.2,0.6,0.7c0,0.4-0.2,0.6-0.6,0.7c-0.3,0-0.7,0.1-1,0
			C98.5,10.6,98.6,10.2,98.6,9.7z"/>
		<path class="st21" d="M118.5,11.1c-0.1-0.5-0.1-0.9,0-1.4c0.4-0.1,0.9-0.1,1.3,0c0.3,0.1,0.5,0.3,0.5,0.6s-0.1,0.6-0.5,0.7
			C119.4,11.2,119,11.2,118.5,11.1z"/>
		<path class="st28" d="M108.4,19c-0.1-0.5,0-0.9,0-1.3c0.4-0.1,0.8-0.1,1.2,0c0.4,0,0.6,0.3,0.6,0.7c0,0.4-0.2,0.6-0.5,0.7
			C109.2,19,108.8,19,108.4,19z"/>
		<path class="st21" d="M128.1,17.6c0.6,0,1.2-0.2,1.6,0.3c0.2,0.2,0.2,0.6,0,0.8c-0.4,0.5-1,0.3-1.6,0.3
			C128.1,18.6,128.1,18.1,128.1,17.6z"/>
		<path class="st28" d="M103.6,12c0.3-0.7,0.5-1.3,0.8-2.1c0.3,0.8,0.6,1.4,0.8,2.1C104.7,12.1,104.2,12,103.6,12z"/>
		<path class="st29" d="M114.3,17.8c0.3,0.7,0.6,1.4,0.8,2.1c-0.6,0.1-1.1,0-1.7,0C113.7,19.2,114,18.5,114.3,17.8z"/>
		<path class="st30" d="M80,19.9c0.3-0.7,0.6-1.3,0.9-2.1c0.3,0.8,0.6,1.4,0.8,2.1C81.2,20,80.7,19.9,80,19.9z"/>
		<path class="st31" d="M21.8,18.8c0,0.9,0,1.7,0,2.5c-0.5,0.2-4.5,0.2-5.1,0.1c-0.2-0.8,0-1.6-0.1-2.5c0.1-0.3,0.4-0.3,0.6-0.3
			c1.3-0.1,2.6-0.1,3.9-0.1C21.5,18.5,21.7,18.6,21.8,18.8z"/>
		<path class="st32" d="M21.8,18.8c-1.5,0-2.9,0-4.4,0c-0.3,0-0.5,0-0.8,0.1c0-0.2,0-0.4,0.3-0.4c1.6-0.4,3.2-0.4,4.7-0.3
			C21.9,18.4,21.8,18.6,21.8,18.8z"/>
	</g>
</g>
</svg>
