<?xml version="1.0" encoding="utf-8"?>
<!-- Generator: Adobe Illustrator 21.1.0, SVG Export Plug-In . SVG Version: 6.00 Build 0)  -->
<svg version="1.1" id="ETH" xmlns="http://www.w3.org/2000/svg" xmlns:xlink="http://www.w3.org/1999/xlink" x="0px" y="0px"
	 viewBox="0 0 140.7 22.9" style="enable-background:new 0 0 140.7 22.9;" xml:space="preserve">
<style type="text/css">
	.st0{opacity:0.55;}
	.st1{fill:#FEFEFE;}
	.st2{fill:#282625;}
	.st3{fill:#191918;}
	.st4{fill:#FCFCFC;}
	.st5{fill:#CCCDCE;}
	.st6{fill:#44423F;}
	.st7{fill:#B9BABB;}
	.st8{fill:#9E9FA0;}
	.st9{fill:#ABACAD;}
	.st10{fill:#909193;}
	.st11{fill:#979899;}
	.st12{fill:#898A8C;}
	.st13{fill:#808183;}
	.st14{fill:#D9D7D5;}
	.st15{fill:#020202;}
</style>
<title>eth_logo_kurz_grey</title>
<g class="st0">
	<g>
		<path class="st1" d="M73.7,22.9c-7.4,0-14.8,0-22.3,0c-0.1,0-0.1,0-0.1-0.1c0-7.5,0-15.1,0-22.6c0-0.1,0-0.1,0.1-0.1
			c14.8,0,29.7,0,44.5,0c0.1,0,0.1,0,0.1,0.1c0,7.5,0,15.1,0,22.6c0,0.1,0,0.1-0.1,0.1C88.5,22.9,81.1,22.9,73.7,22.9z M73,16.2
			c0,0,0.1,0,0.1,0c1.7,0.3,3.4,0.6,5.1,0.9c2.1,0.4,4.2,0.7,6.3,1.1c2,0.4,4,0.7,6,1.1c1.8,0.3,3.5,0.6,5.3,0.9
			c0.2,0,0.2,0,0.1-0.1c0,0,0,0,0,0c-0.1-0.7-0.2-1.4-0.3-2c-0.1-0.9-0.2-1.8-0.3-2.7c-0.1-1-0.2-1.9-0.4-2.9
			c-0.1-0.9-0.2-1.8-0.3-2.7c-0.1-1-0.2-1.9-0.4-2.9c-0.1-1-0.2-1.9-0.4-2.9c-0.1-1-0.2-1.9-0.4-2.9c0-0.2,0-0.2-0.2-0.1
			C86.9,3.9,80.4,6.6,74,9.3c0,0-0.1,0.1-0.2,0c0-0.1,0-0.2-0.1-0.3c-0.5-2.3-1.6-4.2-3.3-5.8c-2-1.9-4.4-2.9-7.2-3.1
			c-1.4-0.1-2.8,0.1-4.2,0.6c-2.7,0.9-4.8,2.6-6.2,5c-1.5,2.5-1.9,5.1-1.3,7.9c0.4,2.1,1.4,4,2.8,5.5c2.1,2.2,4.7,3.4,7.8,3.6
			c1.2,0.1,2.4-0.1,3.6-0.4c2.1-0.6,3.9-1.7,5.4-3.4C71.9,18.2,72.5,17.2,73,16.2z"/>
		<path class="st2" d="M73,16.2c-0.5,1-1.1,2-1.8,2.8c-1.5,1.6-3.3,2.8-5.4,3.4c-1.2,0.3-2.4,0.5-3.6,0.4c-3.1-0.2-5.7-1.4-7.8-3.6
			c-1.5-1.6-2.4-3.4-2.8-5.5c-0.5-2.8-0.1-5.5,1.3-7.9c1.4-2.5,3.5-4.1,6.2-5c1.4-0.5,2.8-0.6,4.2-0.6c2.8,0.2,5.2,1.2,7.2,3.1
			c1.7,1.6,2.8,3.5,3.3,5.8c0,0.1,0.1,0.2,0.1,0.3c-0.2,0.1-0.4,0.2-0.5,0.2c-0.1,0.1-0.3,0.1-0.4,0.1c0,0,0-0.1,0-0.1
			c0-0.2,0-0.4-0.1-0.5c0,0,0-0.1,0-0.1c-0.2-0.7-0.4-1.4-0.7-2.1c-0.3-0.6-0.6-1.1-1-1.6c-0.1-0.1-0.2-0.3-0.3-0.4
			c0-0.1-0.1-0.1-0.1-0.1c-0.4-0.4-0.8-0.9-1.2-1.2c-2.5-2.1-5.3-2.9-8.5-2.3c-2.3,0.4-4.3,1.5-5.9,3.2c-0.2,0.2-0.3,0.4-0.2,0.6
			c0,0.2,0.1,0.4,0.2,0.6c0.3,0.3,0.5,0.6,0.7,0.9c0.2,0.2,0.4,0.3,0.7,0.3c0.1,0,0.1-0.1,0.2,0c0.1,0.3,0.2,0.7,0.3,1
			c0.2,0.7,0.5,1.4,1,2c0.1,0.1,0.2,0.3,0.2,0.5c0,0.1,0,0.2,0,0.3c0,0.3,0,0.3-0.3,0.4c-0.2-0.1-0.3-0.3-0.5-0.4
			c-0.3-0.2-0.7-0.3-1.1-0.3c-0.4-0.1-0.8-0.1-1.2-0.1c-0.5,0-0.9,0-1.4,0c-0.5-0.1-0.9-0.1-1.3-0.5c0,0,0,0-0.1,0c0,0,0,0.1,0,0.1
			c-0.1,0.4-0.1,0.9-0.1,1.3c0,0.4,0,0.7,0,1.1c0,0.5,0.1,1.1,0.2,1.6c0.1,0.6,0.3,1.2,0.6,1.7c0.1,0.3,0.3,0.6,0.5,1
			c0.2,0.3,0.4,0.7,0.6,1c0.3,0.4,0.6,0.8,0.9,1.1c0,0,0,0,0,0.1c0.6,0.6,1.2,1.1,1.8,1.5c0.2,0.1,0.3,0.2,0.5,0.3c0,0,0,0,0,0
			c0,0,0,0,0,0c0,0,0,0,0,0c0,0,0,0,0,0c0-0.1-0.1-0.1-0.2-0.2c0.1,0,0.2-0.1,0.2-0.2c0.1-0.2,0.1-0.5,0.3-0.7
			c0.2-0.2,0.3-0.5,0.4-0.8c0.1-0.4,0.4-0.7,0.5-1.1c0.4,0.6,0.6,1.2,0.6,1.9c0,0.1,0,0.2,0.1,0.2c0.2,0.1,0.3,0.3,0.3,0.5
			c0,0.1,0,0.2,0.1,0.3c0.1,0.4,0.1,0.8,0.5,1.1c0,0.1-0.1,0-0.1,0c-0.2,0-0.3-0.1-0.5-0.1c0.8,0.2,1.5,0.3,2.3,0.4
			c0.5,0,1,0,1.5-0.1c0.2,0,0.3,0,0.5-0.1c0,0,0.1,0,0.1,0c0,0,0.1,0,0.1,0c0.7-0.1,1.3-0.3,1.9-0.5c0.4-0.1,0.6-0.4,0.7-0.7
			c0.1-0.3,0.1-0.5,0.1-0.8c0-0.3,0-0.5,0.1-0.8c0.1,0,0.1-0.1,0.1-0.2c0.1-0.1,0.1-0.1,0.2,0c0.2,0.3,0.5,0.7,0.7,1
			c0.1,0.1,0.3,0.2,0.5,0.1c0.3-0.3,0.6-0.5,0.9-0.8c0.2-0.2,0.4-0.4,0.6-0.6c0.3-0.3,0.6-0.6,0.8-1c0.2-0.3,0.4-0.6,0.6-0.9
			c0.1-0.2,0.2-0.3,0.3-0.5C72.3,16.1,72.6,16.1,73,16.2z M59.9,21.4C59.9,21.4,59.9,21.4,59.9,21.4C59.9,21.4,59.9,21.4,59.9,21.4
			C59.9,21.4,59.8,21.4,59.9,21.4C59.8,21.4,59.9,21.4,59.9,21.4z M57.7,20.5L57.7,20.5L57.7,20.5L57.7,20.5z"/>
		<path class="st3" d="M73,16.2c-0.3-0.1-0.7-0.1-1-0.2c-0.1,0-0.2,0-0.4-0.1c-0.3-0.1-0.3-0.1-0.3-0.3c0,0,0,0,0,0
			c0-0.4-0.1-0.9-0.2-1.3c0-0.4-0.1-0.8-0.1-1.2c0-0.3-0.1-0.7-0.1-1c0-0.1,0-0.2,0-0.3c0-0.3-0.1-0.6-0.1-0.8c0-0.1,0-0.1,0.1-0.2
			c0.7-0.3,1.3-0.6,2-0.8c0,0,0.1,0,0.1-0.1c0.2,0,0.3-0.1,0.4-0.1c0.2-0.1,0.4-0.1,0.5-0.2c0.1,0,0.1,0,0.2,0
			c6.5-2.7,12.9-5.5,19.4-8.2c0.2-0.1,0.2-0.1,0.2,0.1c0.1,1,0.2,1.9,0.4,2.9C94,5.1,94.1,6,94.3,7c0.1,1,0.2,1.9,0.4,2.9
			c0.1,0.9,0.2,1.8,0.3,2.7c0.1,1,0.2,1.9,0.4,2.9c0.1,0.9,0.2,1.8,0.3,2.7c0.1,0.7,0.2,1.4,0.3,2c0,0,0,0,0,0c0,0.2,0,0.2-0.1,0.1
			c-1.8-0.3-3.5-0.6-5.3-0.9c-2-0.4-4-0.7-6-1.1c-2.1-0.4-4.2-0.7-6.3-1.1c-1.7-0.3-3.4-0.6-5.1-0.9C73.1,16.2,73,16.2,73,16.2z
			 M92.8,2.2c-0.1,0-0.1,0-0.2,0.1c-6.4,2.7-12.8,5.4-19.2,8.1c-0.6,0.3-1.2,0.5-1.8,0.8c-0.1,0-0.1,0-0.1,0.1
			c0.1,0.4,0.1,0.8,0.1,1.2c0.1,0.9,0.2,1.9,0.3,2.8c0,0.1,0,0.1,0.1,0.2c0.9,0.2,1.8,0.3,2.7,0.5c1.5,0.3,3.1,0.6,4.6,0.8
			c1.5,0.3,3,0.5,4.5,0.8c1.5,0.3,3,0.5,4.5,0.8c1.4,0.3,2.9,0.5,4.3,0.8c0.7,0.1,1.5,0.3,2.2,0.4c0.1,0,0.2,0,0.1-0.1
			c0-0.2,0-0.3-0.1-0.5c-0.1-1-0.2-1.9-0.4-2.9c-0.1-0.9-0.2-1.9-0.4-2.8c-0.1-1-0.2-1.9-0.4-2.9c-0.1-0.9-0.2-1.8-0.3-2.6
			c-0.1-1-0.2-1.9-0.4-2.9C93,3.9,92.9,3.1,92.8,2.2z"/>
		<path class="st4" d="M64.4,21.6C64.3,21.6,64.3,21.6,64.4,21.6c-0.1,0-0.1,0-0.1,0c-0.7,0.1-1.5,0.1-2.2,0.1c-0.5,0-1,0-1.4-0.2
			c-0.4-0.3-0.5-0.7-0.5-1.1c0-0.1,0-0.2-0.1-0.3c0-0.2-0.1-0.4-0.3-0.5c-0.1-0.1-0.1-0.1-0.1-0.2c0-0.7-0.2-1.3-0.6-1.9
			c0,0,0,0,0,0c-0.1-0.1-0.1-0.2-0.1-0.3c0-0.2-0.1-0.4-0.1-0.6c0-0.3-0.1-0.6-0.2-1c0-0.1,0.1-0.2,0-0.4c0-0.3-0.1-0.5-0.1-0.8
			c0-0.2,0-0.4-0.1-0.5c0,0,0-0.1,0-0.1c-0.1-0.5-0.1-1-0.2-1.5c0-0.4,0-0.8,0-1.2c0.3,0,0.3,0,0.3-0.4c0-0.1,0-0.2,0-0.3
			c0-0.2-0.1-0.4-0.2-0.5c-0.5-0.6-0.8-1.2-1-2c-0.1-0.3-0.2-0.7-0.3-1c0,0,0.1-0.1,0.1-0.1c0.3-0.4,0.6-0.7,0.8-1.1
			c0.3-0.5,0.6-1,1-1.5c0.4-0.5,0.7-1,1.2-1.4c0.8-0.6,1.6-0.9,2.6-0.8C63,1.9,63.6,2.2,64,2.6c0.4,0.4,0.8,0.7,1.2,1
			c0.6,0.4,1.2,0.7,1.9,0.8c0.5,0.1,0.9,0.4,1.2,0.9c0.1,0.1,0.1,0.2,0.1,0.4c-0.3-0.1-0.6,0.1-0.8,0.4c-0.3,0.5-0.7,1-0.9,1.6
			c-0.1,0.2-0.1,0.3-0.1,0.5c0,0.6,0.6,1.2,1.3,1.2c0.5,0,1,0.2,1.4,0.5c0,0,0.1,0,0.1,0.1c0,0.1,0,0.2,0,0.3
			c-0.1,0-0.2-0.1-0.2-0.1c-0.1-0.2-0.3-0.2-0.5-0.3c-0.3-0.1-0.6-0.1-0.8-0.1c-0.8,0-1.5,0.1-2.3,0.2c-0.2,0-0.3,0.1-0.5,0.2
			c0.2,0.1,0.4,0.1,0.6,0.2c0.4,0.3,0.6,0.7,0.7,1.2c0.1,0.5,0,0.9-0.5,1.2c-0.3,0.2-0.4,0.4-0.5,0.7c0,0.2,0,0.5,0.1,0.7
			c0,0,0,0,0,0c-0.3,0-0.5,0-0.8,0.1c-0.5,0.1-0.6,0.4-0.6,0.9c0,0.3,0.3,0.5,0.5,0.5c0.1,0.1,0.2,0.1,0.3,0.1c0.2,0,0.5,0,0.7,0
			c0.2,0.2,0.4,0.2,0.6,0.2c0.2,0,0.3,0,0.4,0.1c0,0,0.1,0.1,0.1,0.1c0.4,0,0.8-0.1,1.2-0.3c0.2-0.1,0.3-0.3,0.5-0.5
			c0.2,0,0.3,0,0.5,0c0.3,0,0.4-0.2,0.3-0.5c0-0.1-0.1-0.3-0.2-0.4c0-0.2,0.1-0.3,0.1-0.5c0.2,0,0.4-0.1,0.6-0.1
			c0.1,0,0.1,0,0.1-0.1c0,0,0-0.1-0.1-0.1c-0.2-0.4-0.4-0.8-0.5-1.3c0-0.3,0.1-0.5,0.3-0.6c0.1,0,0.1,0.1,0.1,0.1
			c0.1,0.3,0.2,0.5,0.3,0.8c0.2,0.6,0.4,1.1,0.4,1.7c0,0.1,0,0.2,0,0.3c-0.1,0.4-0.3,0.7-0.8,0.7c-0.3,0-0.5,0.1-0.7,0.3
			c-0.2,0.3-0.3,0.6-0.4,0.9c-0.1,0.3-0.2,0.6-0.4,0.9c-0.2,0.3-0.3,0.7-0.6,1c-0.1,0.1-0.3,0.3-0.3,0.5c-0.1,0.2-0.1,0.5-0.1,0.8
			c0,0.3,0,0.5-0.1,0.8c-0.1,0.3-0.4,0.6-0.7,0.7C65.8,21.3,65.1,21.5,64.4,21.6C64.4,21.6,64.4,21.6,64.4,21.6z M58.2,7.2
			C58.1,7.3,58,7.5,58,7.7c0,0.2,0,0.3,0,0.4c0.1,0.2,0.2,0.3,0.4,0.5c-0.2,0.5-0.1,1,0.2,1.5c0.1,0.2,0.2,0.4,0.2,0.6
			c0,0.5,0,1,0.1,1.6c0,0.6,0.1,1.1,0.3,1.7c0.1,0.3,0.3,0.5,0.5,0.7c0.2,0.1,0.4,0.1,0.4-0.2c0-0.1,0.1-0.2,0.2-0.3
			c0.2-0.1,0.3-0.2,0.5-0.3c0.3-0.1,0.6-0.2,0.8-0.3c0.6-0.2,0.9-0.7,0.9-1.3c0-0.1,0-0.1,0.1-0.1c0.2-0.1,0.3-0.3,0.3-0.6
			c0-0.3,0.1-0.6,0.1-0.8c0-0.3,0-0.6,0.1-0.9c0.1-0.2,0-0.4-0.3-0.5c-0.1,0-0.1,0-0.2,0c-0.2,0-0.3-0.1-0.4-0.2
			c-0.3-0.2-0.4-0.6-0.4-1c0-0.4-0.2-0.7-0.5-1c-0.2-0.2-0.5-0.4-0.7-0.6c-0.3-0.2-0.7-0.4-1-0.6c-0.6-0.2-1,0-1.2,0.5
			C58.3,6.7,58.2,7,58.2,7.2z M64.5,11.4c0,0.4,0.3,0.7,0.6,0.7c0.4,0,0.7-0.3,0.7-0.7c0-0.4-0.3-0.7-0.7-0.7
			C64.8,10.7,64.5,11,64.5,11.4z M62.2,7c0-0.6-0.1-1.2-0.4-1.6c-0.1-0.2-0.2-0.2-0.4-0.3c-0.2,0-0.3,0-0.5,0c-0.1,0-0.2,0-0.2,0.1
			c0,0.1,0,0.2,0.1,0.2c0.3,0.4,0.7,0.7,1,1.1C61.9,6.6,62,6.8,62.2,7z M65.3,18.8c-0.1,0.1-0.2,0.2-0.3,0.4
			c-0.1,0.2-0.3,0.3-0.4,0.5c-0.1,0.1-0.1,0.2,0,0.2c0.1,0.1,0.1,0,0.2,0c0.1-0.1,0.2-0.2,0.3-0.2C65.3,19.4,65.4,19.2,65.3,18.8z"
			/>
		<path class="st5" d="M68.4,5.7c0-0.2,0-0.3-0.1-0.4c-0.2-0.5-0.7-0.8-1.2-0.9c-0.7-0.1-1.3-0.4-1.9-0.8c-0.4-0.3-0.8-0.7-1.2-1
			c-0.4-0.4-1-0.6-1.6-0.7c-1-0.1-1.9,0.2-2.6,0.8c-0.5,0.4-0.9,0.9-1.2,1.4c-0.3,0.5-0.7,1-1,1.5c-0.2,0.4-0.5,0.7-0.8,1.1
			c0,0-0.1,0.1-0.1,0.1c-0.1,0-0.1,0-0.2,0c-0.3,0.1-0.6,0-0.7-0.3c-0.2-0.3-0.5-0.6-0.7-0.9c-0.2-0.2-0.2-0.4-0.2-0.6
			c0-0.3,0.1-0.4,0.2-0.6c1.6-1.7,3.5-2.8,5.9-3.2c3.2-0.5,6.1,0.3,8.5,2.3c0.4,0.4,0.8,0.8,1.2,1.2c0,0,0.1,0.1,0.1,0.1
			c-0.1-0.1-0.2,0-0.3,0.1c-0.5,0.4-1,0.8-1.4,1.2c-0.2,0.1-0.2,0.1-0.3-0.1C68.6,5.9,68.6,5.8,68.4,5.7z"/>
		<path class="st6" d="M68.4,5.7c0.2,0.1,0.2,0.3,0.3,0.4c0.1,0.2,0.1,0.2,0.3,0.1c0.5-0.4,1-0.8,1.4-1.2c0.1-0.1,0.2-0.2,0.3-0.1
			C70.8,5,70.9,5.2,71,5.3c0.3,0.5,0.7,1.1,1,1.6c0.3,0.7,0.6,1.3,0.7,2.1c0,0,0,0.1,0,0.1c-0.1,0.1-0.3,0.1-0.5,0.2
			c-0.9,0.4-1.9,0.6-2.9,0.6c0,0-0.1,0-0.1-0.1c-0.4-0.4-0.9-0.5-1.4-0.5c-0.6,0-1.2-0.6-1.3-1.2c0-0.2,0-0.4,0.1-0.5
			c0.3-0.6,0.6-1.1,0.9-1.6C67.8,5.7,68.1,5.6,68.4,5.7z M68.7,8.2L68.7,8.2C68.6,8.2,68.7,8.3,68.7,8.2c0.1,0.1,0.1,0.1,0.2,0.1
			c0.1,0,0.2,0,0.3,0c0.2-0.1,0.2-0.5,0-0.7c0.1-0.2,0-0.2-0.1-0.3c0-0.2-0.1-0.2-0.3-0.2c-0.1,0.1-0.1,0.1-0.2,0.3
			c0,0.1,0,0.2,0,0.3C68.5,7.9,68.5,8,68.7,8.2L68.7,8.2C68.6,8.2,68.6,8.2,68.7,8.2z"/>
		<path class="st7" d="M57.9,11c0,0.4,0,0.8,0,1.2c-1.9,0-3.8,0-5.6,0c0-0.4-0.1-0.7,0-1.1c0-0.4,0.1-0.9,0.1-1.3c0,0,0-0.1,0-0.1
			c0,0,0,0,0.1,0c0.4,0.3,0.8,0.4,1.3,0.5c0.5,0.1,0.9,0,1.4,0c0.4,0,0.8,0,1.2,0.1c0.4,0.1,0.7,0.2,1.1,0.3
			C57.6,10.8,57.8,10.9,57.9,11z"/>
		<path class="st8" d="M58.1,13.8c0.1,0.2,0.1,0.4,0.1,0.5c0.1,0.3,0.1,0.5,0.1,0.8c0,0.1,0,0.3,0,0.4c-1.7,0-3.5,0-5.2,0
			c-0.3-0.6-0.4-1.1-0.6-1.7C54.4,13.8,56.3,13.8,58.1,13.8z"/>
		<path class="st9" d="M58.1,13.8c-1.9,0-3.7,0-5.6,0c-0.1-0.5-0.2-1.1-0.2-1.6c1.9,0,3.8,0,5.6,0c0,0.5,0.1,1,0.2,1.5
			C58.1,13.7,58.1,13.8,58.1,13.8z"/>
		<path class="st10" d="M58.6,16.5c0,0.2,0.1,0.4,0.1,0.6c0,0.1,0.1,0.2,0.1,0.3c0,0.1-0.1,0-0.2,0c-1.5,0-3,0-4.4,0
			c-0.2-0.3-0.4-0.6-0.6-1c0.1,0,0.1,0,0.2,0c1.5,0,3,0,4.5,0C58.4,16.5,58.5,16.5,58.6,16.5z"/>
		<path class="st11" d="M58.6,16.5c-0.1,0-0.1,0-0.2,0c-1.5,0-3,0-4.5,0c-0.1,0-0.1,0-0.2,0c-0.2-0.3-0.3-0.6-0.5-1
			c1.7,0,3.5,0,5.2,0C58.5,15.8,58.6,16.2,58.6,16.5z"/>
		<path class="st12" d="M54.2,17.5c1.5,0,3,0,4.4,0c0.1,0,0.1,0,0.2,0c0,0,0,0,0,0c-0.1,0.4-0.4,0.7-0.5,1.1c-0.9,0-1.9,0-2.8,0
			c-0.1,0-0.3,0-0.4,0C54.8,18.2,54.5,17.9,54.2,17.5z"/>
		<path class="st7" d="M69.3,9.9c1,0,2-0.2,2.9-0.6c0.2-0.1,0.3-0.1,0.5-0.2c0.1,0.2,0.1,0.4,0.1,0.5c0,0,0,0.1,0,0.1
			c0,0.1-0.1,0.1-0.1,0.1c-0.7,0.3-1.3,0.6-2,0.8c-0.1,0-0.1,0.1-0.1,0.2c0,0.3,0.1,0.6,0.1,0.8c-0.4,0-0.7,0-1.1,0
			c0,0,0-0.1-0.1-0.1c0-0.1,0-0.2-0.1-0.3c0-0.1,0-0.1,0-0.2c0-0.4-0.1-0.8-0.4-1c0,0,0,0,0,0c0.1,0,0.1,0.1,0.2,0.1
			C69.3,10.1,69.3,10,69.3,9.9z"/>
		<path class="st13" d="M55.2,18.6c0.1,0,0.3,0,0.4,0c0.9,0,1.9,0,2.8,0c-0.1,0.3-0.2,0.5-0.4,0.8c-0.1,0.2-0.2,0.5-0.3,0.7
			c0,0.1-0.1,0.2-0.2,0.2c0,0.1,0.1,0.1,0.2,0.2c0,0,0,0,0,0c-0.2-0.1-0.4-0.2-0.5-0.3C56.4,19.7,55.8,19.2,55.2,18.6
			C55.2,18.6,55.2,18.6,55.2,18.6z"/>
		<path class="st12" d="M67.6,18.4c0.2-0.3,0.4-0.6,0.6-1c0.9,0,1.8,0,2.8,0c0.1,0,0.1,0,0.2,0c-0.2,0.4-0.5,0.7-0.8,1
			c0-0.1-0.1,0-0.2,0C69.3,18.4,68.4,18.4,67.6,18.4z"/>
		<path class="st10" d="M71.1,17.4c-0.1,0-0.1,0-0.2,0c-0.9,0-1.8,0-2.8,0c0.1-0.3,0.2-0.6,0.4-0.9c1.1,0,2.1,0,3.2,0
			C71.5,16.8,71.3,17.1,71.1,17.4z"/>
		<path class="st11" d="M71.7,16.5c-1.1,0-2.1,0-3.2,0c0.1-0.3,0.2-0.7,0.4-0.9c0.1,0,0.1,0,0.2,0c0.7,0,1.4,0,2.1,0c0,0,0,0,0,0
			c0,0.3,0,0.3,0.3,0.3c0.1,0,0.2,0,0.4,0.1C71.9,16.2,71.8,16.3,71.7,16.5z"/>
		<path class="st13" d="M67.6,18.4c0.8,0,1.7,0,2.5,0c0.1,0,0.1,0,0.2,0c-0.2,0.2-0.4,0.4-0.6,0.6c-0.3,0.3-0.6,0.5-0.9,0.8
			c-0.1,0.1-0.4,0.1-0.5-0.1c-0.2-0.4-0.5-0.7-0.7-1c-0.1-0.1-0.1-0.1-0.2,0c0,0.1-0.1,0.1-0.1,0.2C67.3,18.6,67.5,18.5,67.6,18.4z"
			/>
		<path class="st13" d="M60.6,21.5c0.5,0.2,0.9,0.2,1.4,0.2c0.8,0.1,1.5,0,2.2-0.1c0,0,0,0,0.1,0c-0.1,0.1-0.3,0.1-0.5,0.1
			c-0.5,0.1-1,0.1-1.5,0.1c-0.8,0-1.6-0.1-2.3-0.4c0.2,0,0.3,0.1,0.5,0.1C60.5,21.5,60.5,21.6,60.6,21.5z"/>
		<path class="st13" d="M64.4,21.6C64.4,21.6,64.4,21.6,64.4,21.6C64.4,21.7,64.4,21.7,64.4,21.6z"/>
		<path class="st13" d="M59.9,21.4C59.9,21.4,59.8,21.4,59.9,21.4C59.8,21.4,59.9,21.4,59.9,21.4C59.9,21.4,59.9,21.4,59.9,21.4
			C59.9,21.4,59.9,21.4,59.9,21.4z"/>
		<path class="st13" d="M57.6,20.4C57.6,20.4,57.6,20.5,57.6,20.4L57.6,20.4C57.6,20.5,57.6,20.5,57.6,20.4
			C57.6,20.4,57.6,20.4,57.6,20.4z"/>
		<path class="st13" d="M57.6,20.5C57.6,20.5,57.6,20.5,57.6,20.5C57.6,20.5,57.6,20.5,57.6,20.5C57.6,20.5,57.6,20.5,57.6,20.5z"/>
		<polygon class="st13" points="57.7,20.5 57.7,20.5 57.7,20.5 		"/>
		<path class="st4" d="M92.8,2.2c0.1,0.9,0.2,1.8,0.3,2.6c0.1,1,0.2,1.9,0.4,2.9c0.1,0.9,0.2,1.8,0.3,2.6c0.1,1,0.2,1.9,0.4,2.9
			c0.1,0.9,0.2,1.9,0.4,2.8c0.1,1,0.2,1.9,0.4,2.9c0,0.2,0,0.3,0.1,0.5c0,0.1,0,0.2-0.1,0.1c-0.7-0.1-1.5-0.3-2.2-0.4
			c-1.4-0.3-2.9-0.5-4.3-0.8c-1.5-0.3-3-0.5-4.5-0.8c-1.5-0.3-3-0.5-4.5-0.8c-1.5-0.3-3.1-0.6-4.6-0.8c-0.9-0.2-1.8-0.3-2.7-0.5
			c-0.1,0-0.1-0.1-0.1-0.2c-0.1-0.9-0.2-1.9-0.3-2.8c0-0.4-0.1-0.8-0.1-1.2c0-0.1,0-0.1,0.1-0.1c0.6-0.3,1.2-0.5,1.8-0.8
			c6.4-2.7,12.8-5.4,19.2-8.1C92.7,2.2,92.8,2.2,92.8,2.2z M89.3,12.2C89.3,12.2,89.3,12.2,89.3,12.2c-0.4-2.3-0.8-4.5-1.2-6.8
			c-0.1,0-0.1,0-0.2,0.1c-0.1,0-0.3,0.1-0.4,0.2c-0.3,0.1-0.3,0.1-0.2,0.4c0.4,2,0.7,3.9,1.1,5.9c0.3,1.8,0.7,3.6,1,5.4
			c0,0.1,0.1,0.1,0.1,0.1c0.2,0,0.4,0.1,0.6,0.1c0.1,0,0.1,0,0.1-0.1c0-0.4-0.1-0.9-0.1-1.3c-0.1-1-0.2-2-0.3-3
			c-0.1-0.9-0.1-1.8-0.2-2.6c0,0,0,0,0,0c0,0.1,0,0.2,0.1,0.3c0.2,1.1,0.4,2.3,0.6,3.4c0.2,1.1,0.4,2.2,0.5,3.4c0,0.1,0,0.1,0.1,0.1
			c0.2,0,0.5,0.1,0.7,0.1c0.1,0,0.1,0,0.1-0.1c-0.1-0.8-0.1-1.7-0.2-2.5c-0.1-1-0.1-1.9-0.2-2.9c-0.1-0.8-0.1-1.6-0.2-2.5
			c-0.1-1-0.1-2-0.2-3c-0.1-0.8-0.1-1.6-0.2-2.5c-0.3,0.1-0.5,0.2-0.8,0.3c0,0,0,0.1,0,0.1c0,0.2,0,0.4,0.1,0.6
			c0.1,0.6,0.1,1.3,0.1,1.9c0,0.5,0,1.1,0.1,1.6c0.1,0.8,0.2,1.6,0.3,2.4c0,0,0,0.1,0,0.1c-0.2-1-0.4-2-0.5-3.1
			c-0.2-1.1-0.4-2.3-0.5-3.4c0-0.1,0-0.1-0.1-0.1C89.2,5,89,5.1,88.9,5.1c-0.1,0-0.1,0.1-0.1,0.2c0.1,0.8,0.1,1.6,0.2,2.3
			C89.1,9.2,89.2,10.7,89.3,12.2z M88.1,14.1c0-1.4-0.2-2.6-0.4-3.8c-0.2-0.9-0.4-1.8-0.7-2.8C87,7.3,86.9,7,86.8,6.7
			c-0.1-0.2-0.3-0.4-0.6-0.5c-0.1,0-0.2,0-0.3,0.1c-0.2,0.2-0.3,0.4-0.4,0.6c-0.2,0.5-0.3,1-0.3,1.6c-0.1,1.1,0,2.2,0.1,3.3
			c0.2,1.3,0.4,2.5,0.8,3.7c0.1,0.4,0.3,0.8,0.5,1.1c0.2,0.3,0.4,0.4,0.7,0.4c0.1,0,0.1,0,0.2-0.1c0.2-0.2,0.3-0.5,0.3-0.8
			C88.1,15.5,88.1,14.7,88.1,14.1z M84.8,9.8c0-0.2-0.1-0.5-0.1-0.7c-0.1-0.6-0.1-1.2-0.2-1.9c0,0,0-0.1,0-0.1C84.4,7,84.1,6.9,84,7
			c-0.3,0.2-0.5,0.4-0.6,0.7C83.1,8.4,83.1,9,83,9.7c-0.1,1.3,0.1,2.6,0.4,3.9c0.2,0.8,0.5,1.6,0.8,2.3c0.2,0.3,0.4,0.6,0.7,0.7
			c0.2,0.1,0.4,0.1,0.5,0c0.1-0.1,0.2-0.2,0.2-0.3c-0.1-0.5-0.1-1-0.1-1.6c0-0.3-0.1-0.6-0.1-0.9c0,0,0,0,0,0.1
			c-0.1,0.1-0.1,0.2-0.2,0.4c-0.1,0.2-0.2,0.2-0.3,0c-0.1-0.1-0.2-0.3-0.3-0.5c-0.4-1.2-0.5-2.4-0.5-3.6c0-0.2,0.1-0.5,0.2-0.7
			c0.1-0.2,0.2-0.2,0.4,0C84.7,9.5,84.7,9.6,84.8,9.8z M80.3,10.7c0-0.1,0-0.2-0.1-0.3c-0.2-0.6-0.3-1.1-0.5-1.7
			c0-0.1-0.1-0.1-0.1-0.1c-0.2,0.1-0.5,0.2-0.7,0.2c-0.1,0-0.1,0.1-0.1,0.2c0.3,1,0.6,2,1,2.9c0.1,0.3,0.2,0.5,0.3,0.8
			c0.1,0.5,0.1,1.1,0.2,1.6c0.1,0.5,0.1,1,0.2,1.5c0,0.1,0,0.1,0.1,0.1c0.2,0,0.5,0,0.7,0.1c0.1,0,0.1,0,0.1-0.1
			c-0.1-0.7-0.2-1.4-0.2-2.1c0-0.4-0.1-0.9-0.1-1.4c0-0.7,0.1-1.5,0.1-2.2c0-0.7,0.1-1.4,0.1-2.2c0-0.1,0-0.1-0.1-0.1
			c-0.2,0.1-0.4,0.2-0.6,0.2c-0.1,0-0.2,0.1-0.2,0.3c0,0.6,0,1.3,0,1.9C80.3,10.6,80.3,10.7,80.3,10.7z M77.5,13.2
			c0-0.2,0-0.5-0.1-0.7c-0.1-0.6-0.2-1.1-0.4-1.6c-0.1-0.3-0.3-0.5-0.5-0.7c-0.2-0.1-0.4-0.2-0.6-0.1c-0.2,0.1-0.4,0.3-0.6,0.5
			c-0.4,0.6-0.5,1.2-0.5,1.9c0,0.7,0.2,1.4,0.6,2c0.2,0.3,0.4,0.7,0.8,0.9c0.4,0.2,0.8,0.1,1-0.2c0.1-0.1,0.1-0.3,0.2-0.4
			C77.5,14.2,77.5,13.7,77.5,13.2z M72.2,11.6c0.1,1.1,0.2,2.1,0.3,3.1c0,0.1,0,0.1,0.1,0.1c0.2,0,0.5,0.1,0.7,0.1
			c0.1,0,0.1,0,0.1-0.1c0-0.4-0.1-0.8-0.1-1.1c0-0.3,0-0.2,0.2-0.3c0.1,0,0.2,0,0.2,0.2c0.1,0.5,0.1,0.9,0.2,1.4
			c0,0.1,0,0.1,0.1,0.1c0.2,0,0.4,0.1,0.7,0.1c0.2,0,0.2,0,0.1-0.1c-0.2-1.4-0.3-2.8-0.5-4.2c0-0.1,0-0.1-0.1-0.1
			c-0.2,0.1-0.5,0.2-0.7,0.3c-0.1,0-0.1,0.1-0.1,0.2c0.1,0.3,0.1,0.7,0.2,1c0,0.2,0,0.2-0.2,0.3c-0.2,0-0.2,0-0.2-0.1
			c0-0.4-0.1-0.7-0.1-1.1c0-0.1,0-0.1-0.1-0.1c-0.2,0.1-0.4,0.1-0.6,0.2C72.2,11.5,72.2,11.5,72.2,11.6z M92.5,12.8
			c0.1,0,0.3,0,0.5,0c0.1,0,0.1,0,0.1-0.1c0-0.3-0.1-0.5-0.1-0.8c-0.1-0.8-0.2-1.6-0.3-2.4c-0.1-0.9-0.2-1.9-0.3-2.8
			c-0.1-0.9-0.2-1.7-0.3-2.6C92.1,4,92.1,4,92,4c-0.2,0.1-0.4,0.2-0.6,0.2c-0.1,0-0.1,0-0.1,0.1c0,0.3,0.1,0.6,0.1,1
			c0.1,1,0.2,2.1,0.4,3.1c0.2,1.4,0.3,2.8,0.5,4.2C92.3,12.8,92.3,12.8,92.5,12.8z M79.8,15.8c0-0.4-0.1-0.8-0.1-1.2
			c0-0.3,0-0.3-0.4-0.3c-0.4,0-0.4,0-0.4-0.4c0,0,0-0.1,0-0.1c0-0.5-0.1-1-0.1-1.5c-0.1-1-0.2-2-0.3-2.9c0-0.1,0-0.1-0.1-0.1
			c-0.1,0.1-0.3,0.1-0.4,0.2c-0.3,0.1-0.3,0.1-0.3,0.5c0,0.4,0.1,0.8,0.2,1.3c0.1,1.1,0.2,2.2,0.4,3.2c0,0.4,0.1,0.8,0.1,1.2
			c0,0.1,0,0.1,0.1,0.1c0.5,0.1,0.9,0.2,1.4,0.2C79.8,15.9,79.8,15.9,79.8,15.8z M92.5,15.1c0,0.7,0.1,1.3,0.3,2
			c0.1,0.3,0.2,0.5,0.4,0.7c0.2,0.2,0.2,0.2,0.4-0.1c0.1-0.2,0.1-0.4,0.1-0.7c0-0.6-0.1-1.2-0.2-1.8c-0.1-0.5-0.2-0.9-0.5-1.4
			c-0.1-0.1-0.1-0.1-0.2-0.1c-0.1,0-0.1,0.1-0.1,0.2C92.5,14.3,92.5,14.8,92.5,15.1z"/>
		<path class="st9" d="M69.7,11.7c0.4-0.1,0.7,0,1.1,0c0,0.1,0,0.2,0,0.3c0,0.3,0.1,0.7,0.1,1c0,0.4,0.1,0.8,0.1,1.2
			c-0.2,0-0.4,0-0.6,0c0-0.6-0.2-1.2-0.4-1.7C69.9,12.3,69.8,12,69.7,11.7z"/>
		<path class="st8" d="M70.5,14.2c0.2,0,0.4,0,0.6,0c0.1,0.4,0.1,0.9,0.2,1.3c-0.7,0-1.4,0-2.1,0c-0.1,0-0.1,0-0.2,0
			c0.2-0.2,0.4-0.3,0.7-0.3c0.5,0,0.7-0.3,0.8-0.7C70.4,14.4,70.5,14.3,70.5,14.2z"/>
		<path class="st6" d="M58.2,7.2c0-0.2,0.1-0.4,0.2-0.6C58.6,6,59,5.9,59.6,6c0.4,0.1,0.7,0.3,1,0.6c0.2,0.2,0.5,0.4,0.7,0.6
			c0.3,0.3,0.5,0.6,0.5,1c0,0.4,0.1,0.7,0.4,1c0.1,0.1,0.3,0.2,0.4,0.2c0.1,0,0.1,0,0.2,0c0.2,0.1,0.3,0.3,0.3,0.5
			C63,10.1,63,10.5,63,10.8c0,0.3,0,0.6-0.1,0.8c0,0.2-0.1,0.4-0.3,0.6c0,0-0.1,0.1-0.1,0.1c0,0.6-0.3,1-0.9,1.3
			c-0.3,0.1-0.5,0.2-0.8,0.3c-0.2,0.1-0.4,0.2-0.5,0.3c-0.1,0.1-0.2,0.2-0.2,0.3c-0.1,0.2-0.2,0.3-0.4,0.2c-0.3-0.2-0.4-0.4-0.5-0.7
			c-0.2-0.5-0.3-1.1-0.3-1.7c0-0.5,0-1-0.1-1.6c0-0.2-0.1-0.4-0.2-0.6c-0.3-0.5-0.4-1-0.2-1.5c0.3,0,0.6,0,0.9-0.2c0,0,0,0,0,0l0,0
			c0,0,0,0,0-0.1l0,0c0,0,0,0,0,0l0,0c0,0,0,0,0-0.1l0,0c0.1-0.2,0.1-0.3,0.1-0.5l0,0c0,0,0-0.1,0-0.1l0,0c0,0,0,0,0,0
			c-0.1-0.2-0.2-0.3-0.4-0.4c0,0,0,0-0.1,0l0,0c0,0,0,0-0.1,0l0,0c-0.1-0.1-0.2-0.1-0.4,0C58.4,7.1,58.3,7.2,58.2,7.2z"/>
		<path class="st2" d="M69.5,11.3c0.1,0.1,0.1,0.2,0.1,0.3c-0.3,0.1-0.3,0.3-0.3,0.6c0,0.5,0.3,0.9,0.5,1.3c0,0,0,0.1,0.1,0.1
			c0,0.1,0,0.1-0.1,0.1c-0.2,0-0.4,0-0.6,0.1c0,0,0,0-0.1,0c-0.5,0-1.1,0-1.6,0.1c-0.5,0-1,0.1-1.4,0.1c-0.2,0-0.4,0.1-0.6,0.1
			c-0.1-0.2-0.1-0.5-0.1-0.7c0-0.3,0.2-0.6,0.5-0.7c0.5-0.3,0.6-0.7,0.5-1.2c-0.1-0.5-0.3-0.9-0.7-1.2c-0.2-0.1-0.4-0.1-0.6-0.2
			c0.2-0.1,0.3-0.2,0.5-0.2c0.8-0.1,1.5-0.2,2.3-0.2c0.3,0,0.6,0,0.8,0.1c0.2,0.1,0.4,0.1,0.5,0.3c0,0,0,0,0,0
			c-0.3,0.2-0.4,0.5-0.3,0.8C68.9,11.3,69.2,11.4,69.5,11.3z"/>
		<path class="st14" d="M65.6,15.6c-0.2,0.1-0.5,0-0.7,0c-0.1,0-0.2,0-0.3-0.1c0,0,0,0,0-0.1c0-0.3,0-0.4,0.4-0.5
			c0.3-0.1,0.6-0.2,0.9-0.2c0.7-0.2,1.4-0.3,2.1-0.3c0.2,0,0.5,0,0.7,0c0.1,0,0.3,0,0.4,0c0.1,0.1,0.2,0.3,0.2,0.4
			c0.1,0.3,0,0.5-0.3,0.5c-0.2,0-0.3,0-0.5,0c0-0.1-0.1-0.1-0.2-0.1c-0.1,0-0.1,0-0.2,0c-0.3,0-0.5,0-0.8,0c-0.1,0-0.1,0-0.2-0.1
			c-0.1-0.1-0.2-0.1-0.3,0c0,0-0.1,0-0.1,0.1c-0.3,0-0.6,0.1-0.8,0.1C65.6,15.3,65.5,15.4,65.6,15.6z"/>
		<path class="st8" d="M69,14.3c-0.1,0.1-0.3,0-0.4,0c-0.2,0-0.5,0-0.7,0c-0.7,0-1.4,0.2-2.1,0.3c-0.3,0.1-0.6,0.1-0.9,0.2
			c-0.3,0.1-0.4,0.2-0.4,0.5c0,0,0,0,0,0.1c-0.2,0-0.5-0.1-0.5-0.5c0-0.5,0.2-0.7,0.6-0.9c0.3-0.1,0.5-0.1,0.8-0.1c0,0,0,0,0,0
			c0.2,0,0.4,0,0.6-0.1c0.5-0.1,1-0.1,1.4-0.1c0.5,0,1.1-0.1,1.6-0.1c0,0,0,0,0.1,0C69.1,14,69,14.1,69,14.3z"/>
		<path class="st11" d="M65.6,15.6c-0.1-0.2,0-0.3,0.2-0.3c0.3,0,0.6-0.1,0.8-0.1c0,0,0.1,0,0.1-0.1c0.1-0.1,0.2-0.1,0.3,0
			c0.1,0,0.1,0.1,0.2,0.1c0.3,0,0.5,0,0.8,0c0.1,0,0.1,0,0.2,0c0.1,0,0.2,0,0.2,0.1c-0.1,0.2-0.2,0.4-0.5,0.5
			c-0.4,0.2-0.8,0.3-1.2,0.3c-0.1,0-0.1,0-0.1-0.1c-0.1-0.1-0.3-0.1-0.4-0.1C66,15.8,65.7,15.8,65.6,15.6z"/>
		<path class="st2" d="M58.2,7.2c0.1,0,0.2,0,0.4-0.1c0.1,0,0.2,0,0.4,0c0,0,0,0,0,0c0,0,0,0,0.1,0l0,0c0,0,0,0,0.1,0
			c0.2,0.1,0.3,0.3,0.4,0.4c0,0,0,0,0,0c0,0,0,0,0,0c0,0,0,0,0,0c0,0,0,0.1,0,0.1c0,0,0,0,0,0c0,0.2-0.1,0.3-0.1,0.5c0,0,0,0,0,0
			c0,0,0,0,0,0.1c0,0,0,0,0,0c0,0,0,0,0,0c0,0,0,0,0,0c0,0,0,0,0,0.1c0,0,0,0,0,0c0,0,0,0,0,0c-0.2,0.2-0.6,0.2-0.9,0.2
			c-0.2-0.1-0.3-0.3-0.4-0.5c-0.1-0.1-0.1-0.3,0-0.4C58,7.5,58.1,7.3,58.2,7.2z M59.1,7.5c-0.1,0-0.2,0.1-0.2,0.2
			c0,0.1,0.1,0.2,0.2,0.2c0.1,0,0.2-0.1,0.2-0.2C59.2,7.6,59.2,7.5,59.1,7.5z"/>
		<path class="st13" d="M64.5,11.4c0-0.4,0.2-0.7,0.6-0.7c0.4,0,0.7,0.3,0.7,0.7c0,0.3-0.3,0.7-0.7,0.7C64.8,12,64.5,11.8,64.5,11.4
			z"/>
		<path class="st2" d="M62.2,7c-0.2-0.2-0.3-0.3-0.4-0.5c-0.3-0.4-0.7-0.7-1-1.1c-0.1-0.1-0.1-0.1-0.1-0.2c0-0.1,0.1-0.1,0.2-0.1
			c0.2,0,0.3,0,0.5,0c0.2,0,0.3,0.1,0.4,0.3C62,5.8,62.2,6.4,62.2,7z"/>
		<path class="st8" d="M65.3,18.8c0.1,0.3,0,0.6-0.2,0.8c-0.1,0.1-0.2,0.2-0.3,0.2c-0.1,0.1-0.1,0.1-0.2,0c-0.1-0.1-0.1-0.2,0-0.2
			c0.1-0.2,0.3-0.3,0.4-0.5C65.1,19.1,65.2,19,65.3,18.8z"/>
		<path class="st2" d="M69.1,7.6c0.2,0.1,0.2,0.5,0,0.7c-0.1,0.1-0.2,0.1-0.3,0c0,0-0.1-0.1-0.1-0.1c0,0,0-0.1,0-0.1l0,0
			c0,0,0,0,0-0.1c0,0,0,0,0,0c0-0.1-0.1-0.3-0.1-0.4c0-0.1,0-0.2,0-0.3c0-0.1,0-0.2,0.2-0.3c0.2-0.1,0.3,0,0.3,0.2
			c-0.1,0-0.2,0-0.2,0.1c0,0.1,0,0.1,0.1,0.2C69,7.7,69,7.7,69.1,7.6z"/>
		<path class="st14" d="M69.1,7.6c-0.1,0.1-0.1,0.1-0.2,0c-0.1,0-0.1-0.1-0.1-0.2c0-0.1,0.1-0.1,0.2-0.1C69.1,7.4,69.1,7.5,69.1,7.6
			z"/>
		<path class="st10" d="M68.6,7.7c0,0.1,0.1,0.3,0.1,0.4C68.5,8,68.5,7.9,68.6,7.7z"/>
		<path class="st10" d="M68.7,8.2C68.7,8.2,68.7,8.2,68.7,8.2C68.7,8.3,68.6,8.2,68.7,8.2z"/>
		<path class="st10" d="M68.6,8.1C68.7,8.1,68.7,8.2,68.6,8.1C68.6,8.2,68.6,8.2,68.6,8.1z"/>
		<path class="st13" d="M69.5,11.3c-0.4,0.1-0.6-0.1-0.8-0.4c-0.1-0.3,0-0.6,0.3-0.8c0.4,0.3,0.4,0.6,0.4,1
			C69.5,11.2,69.5,11.3,69.5,11.3z"/>
		<path class="st15" d="M89.3,12.2c-0.1-1.5-0.2-3.1-0.4-4.6c-0.1-0.8-0.1-1.6-0.2-2.3c0-0.1,0-0.1,0.1-0.2C89,5.1,89.2,5,89.4,5
			c0.1,0,0.1,0,0.1,0.1c0.2,1.1,0.4,2.3,0.5,3.4c0.2,1,0.3,2,0.5,3.1c0,0,0-0.1,0-0.1c-0.1-0.8-0.2-1.6-0.3-2.4
			c0-0.5-0.1-1.1-0.1-1.6c0-0.7-0.1-1.3-0.1-1.9c0-0.2,0-0.4-0.1-0.6c0,0,0-0.1,0-0.1c0.3-0.1,0.5-0.2,0.8-0.3
			C90.9,5.2,90.9,6,91,6.8c0.1,1,0.1,2,0.2,3c0.1,0.8,0.1,1.6,0.2,2.5c0.1,1,0.1,1.9,0.2,2.9c0.1,0.8,0.1,1.7,0.2,2.5
			c0,0.1,0,0.1-0.1,0.1c-0.2,0-0.5-0.1-0.7-0.1c-0.1,0-0.1-0.1-0.1-0.1c-0.2-1.1-0.4-2.2-0.5-3.4c-0.2-1.1-0.4-2.3-0.6-3.4
			c0-0.1,0-0.2-0.1-0.3c0,0,0,0,0,0c0.1,0.9,0.2,1.7,0.2,2.6c0.1,1,0.2,2,0.3,3c0,0.4,0.1,0.9,0.1,1.3c0,0.1,0,0.1-0.1,0.1
			c-0.2-0.1-0.4-0.1-0.6-0.1c-0.1,0-0.1,0-0.1-0.1c-0.3-1.8-0.6-3.6-1-5.4c-0.4-2-0.7-3.9-1.1-5.9c-0.1-0.3-0.1-0.3,0.2-0.4
			c0.1-0.1,0.3-0.1,0.4-0.2c0.1,0,0.1,0,0.2-0.1C88.5,7.7,88.9,10,89.3,12.2c0,0.1,0,0.1,0,0.2C89.3,12.4,89.3,12.3,89.3,12.2z"/>
		<path class="st15" d="M88.1,14.1c0,0.6,0,1.4-0.2,2.1c-0.1,0.3-0.2,0.5-0.3,0.8c0,0.1-0.1,0.1-0.2,0.1c-0.3,0-0.6-0.2-0.7-0.4
			c-0.2-0.3-0.4-0.7-0.5-1.1c-0.4-1.2-0.7-2.4-0.8-3.7c-0.1-1.1-0.2-2.2-0.1-3.3c0-0.5,0.1-1.1,0.3-1.6c0.1-0.2,0.2-0.4,0.4-0.6
			c0.1-0.1,0.2-0.1,0.3-0.1c0.3,0.1,0.4,0.2,0.6,0.5C86.9,7,87,7.3,87.1,7.6c0.2,0.9,0.5,1.8,0.7,2.8C87.9,11.5,88.1,12.7,88.1,14.1
			z M87.1,13.4c0-1.4-0.3-2.8-0.6-4.2c0-0.1-0.1-0.2-0.2-0.3c0,0-0.1,0-0.1,0c-0.1,0.2-0.1,0.4-0.1,0.6c0,1.2,0.1,2.4,0.3,3.6
			c0.1,0.4,0.2,0.9,0.4,1.3c0,0,0,0.1,0.1,0.1c0.1,0,0.1-0.1,0.1-0.1C87.1,14,87.1,13.7,87.1,13.4z"/>
		<path class="st15" d="M84.8,9.8c-0.1-0.1-0.1-0.2-0.2-0.3c-0.1-0.1-0.3-0.1-0.4,0c-0.1,0.2-0.2,0.4-0.2,0.7
			c-0.1,1.2,0,2.4,0.5,3.6c0.1,0.2,0.2,0.4,0.3,0.5c0.2,0.2,0.2,0.1,0.3,0c0.1-0.1,0.1-0.2,0.2-0.4c0,0,0,0,0-0.1
			c0,0.3,0.1,0.6,0.1,0.9c0,0.5,0.1,1,0.1,1.6c0,0.2,0,0.3-0.2,0.3c-0.2,0.1-0.4,0.1-0.5,0c-0.3-0.2-0.5-0.4-0.7-0.7
			c-0.4-0.7-0.6-1.5-0.8-2.3C83.1,12.3,83,11,83,9.7c0-0.7,0.1-1.3,0.4-1.9C83.5,7.4,83.7,7.2,84,7c0.1-0.1,0.4,0,0.5,0
			c0,0,0,0.1,0,0.1c0.1,0.6,0.1,1.2,0.2,1.9C84.7,9.3,84.8,9.5,84.8,9.8z"/>
		<path class="st15" d="M80.3,10.7c0-0.1,0-0.1,0-0.2c0-0.6,0-1.3,0-1.9c0-0.1,0-0.2,0.2-0.3c0.2-0.1,0.4-0.2,0.6-0.2
			c0.1,0,0.1,0,0.1,0.1c0,0.7-0.1,1.4-0.1,2.2c0,0.7-0.1,1.5-0.1,2.2c0,0.5,0.1,0.9,0.1,1.4c0.1,0.7,0.2,1.4,0.2,2.1
			c0,0.1,0,0.1-0.1,0.1c-0.2,0-0.5-0.1-0.7-0.1c-0.1,0-0.1,0-0.1-0.1c-0.1-0.5-0.1-1-0.2-1.5c-0.1-0.5-0.1-1.1-0.2-1.6
			c0-0.3-0.2-0.6-0.3-0.8c-0.3-1-0.6-2-1-2.9c0-0.1,0-0.1,0.1-0.2c0.2-0.1,0.5-0.2,0.7-0.2c0.1,0,0.1,0,0.1,0.1
			c0.1,0.6,0.3,1.1,0.5,1.7C80.2,10.5,80.3,10.6,80.3,10.7z"/>
		<path class="st15" d="M77.5,13.2c0,0.5,0,1-0.2,1.5c0,0.2-0.1,0.3-0.2,0.4c-0.2,0.3-0.6,0.4-1,0.2c-0.4-0.2-0.6-0.6-0.8-0.9
			c-0.3-0.6-0.5-1.3-0.6-2c0-0.7,0.1-1.3,0.5-1.9c0.1-0.2,0.3-0.4,0.6-0.5c0.2-0.1,0.4,0,0.6,0.1c0.2,0.2,0.4,0.4,0.5,0.7
			c0.2,0.5,0.4,1.1,0.4,1.6C77.5,12.7,77.5,13,77.5,13.2z M76.6,13.2c0-0.2,0-0.5-0.1-0.7c-0.1-0.4-0.1-0.7-0.3-1.1
			c0,0-0.1-0.1-0.1-0.1c-0.1,0-0.1,0-0.1,0.1c0,0.1-0.1,0.2-0.1,0.3c-0.1,0.5,0,0.9,0,1.4c0.1,0.3,0.1,0.6,0.3,0.9
			c0.1,0.1,0.1,0.1,0.2,0.1c0.1,0,0.1-0.1,0.1-0.1C76.6,13.7,76.6,13.5,76.6,13.2z"/>
		<path class="st15" d="M72.2,11.6c0-0.1,0-0.1,0.1-0.1c0.2-0.1,0.4-0.1,0.6-0.2c0.1,0,0.1,0,0.1,0.1c0,0.4,0.1,0.7,0.1,1.1
			c0,0.2,0,0.2,0.2,0.1c0.2-0.1,0.3-0.1,0.2-0.3c0-0.4-0.1-0.7-0.2-1c0-0.1,0-0.1,0.1-0.2c0.2-0.1,0.5-0.2,0.7-0.3
			c0.1,0,0.1,0,0.1,0.1c0.2,1.4,0.3,2.8,0.5,4.2c0,0.2,0,0.2-0.1,0.1c-0.2,0-0.4-0.1-0.7-0.1c-0.1,0-0.1,0-0.1-0.1
			c-0.1-0.5-0.1-0.9-0.2-1.4c0-0.1,0-0.2-0.2-0.2c-0.3,0-0.3,0-0.2,0.3c0,0.4,0.1,0.8,0.1,1.1c0,0.1,0,0.1-0.1,0.1
			c-0.2,0-0.5-0.1-0.7-0.1c-0.1,0-0.1,0-0.1-0.1C72.5,13.7,72.3,12.6,72.2,11.6z"/>
		<path class="st15" d="M92.5,12.8c-0.3,0-0.3,0-0.3-0.2c-0.2-1.4-0.3-2.8-0.5-4.2c-0.1-1-0.2-2.1-0.4-3.1c0-0.3-0.1-0.6-0.1-1
			c0-0.1,0-0.1,0.1-0.1C91.6,4.2,91.8,4.1,92,4c0.1,0,0.1,0,0.1,0.1c0.1,0.9,0.2,1.7,0.3,2.6c0.1,0.9,0.2,1.9,0.3,2.8
			c0.1,0.8,0.2,1.6,0.3,2.4c0,0.3,0.1,0.5,0.1,0.8c0,0.1,0,0.1-0.1,0.1C92.9,12.8,92.7,12.8,92.5,12.8z"/>
		<path class="st15" d="M79.8,15.8c0,0.2,0,0.2-0.1,0.1c-0.5-0.1-0.9-0.2-1.4-0.2c-0.1,0-0.1-0.1-0.1-0.1c0-0.4-0.1-0.8-0.1-1.2
			c-0.1-1.1-0.2-2.2-0.4-3.2c-0.1-0.4-0.1-0.8-0.2-1.3c0-0.4,0-0.4,0.3-0.5c0.1-0.1,0.3-0.1,0.4-0.2c0.1,0,0.1,0,0.1,0.1
			c0.1,1,0.2,2,0.3,2.9c0.1,0.5,0.1,1,0.1,1.5c0,0,0,0.1,0,0.1c0.1,0.4,0.1,0.4,0.4,0.4c0.3,0,0.3,0,0.4,0.3
			C79.7,14.9,79.7,15.3,79.8,15.8z"/>
		<path class="st15" d="M92.5,15.1c0-0.4,0-0.8,0.1-1.2c0-0.1,0-0.2,0.1-0.2c0.1,0,0.2,0,0.2,0.1c0.2,0.4,0.4,0.9,0.5,1.4
			c0.1,0.6,0.2,1.2,0.2,1.8c0,0.2,0,0.5-0.1,0.7c-0.2,0.3-0.2,0.3-0.4,0.1c-0.2-0.2-0.3-0.5-0.4-0.7C92.6,16.5,92.5,15.8,92.5,15.1z
			"/>
		<path class="st7" d="M89.3,12.2c0,0.1,0,0.1,0,0.2C89.3,12.4,89.3,12.3,89.3,12.2C89.3,12.2,89.3,12.2,89.3,12.2z"/>
		<path class="st10" d="M59.4,8.2c0-0.2,0.1-0.3,0.1-0.5C59.6,7.9,59.5,8.1,59.4,8.2z"/>
		<path class="st10" d="M58.9,7.1c-0.1,0-0.2,0-0.4,0C58.7,7,58.8,7.1,58.9,7.1z"/>
		<path class="st10" d="M59.5,7.7C59.5,7.7,59.5,7.6,59.5,7.7C59.5,7.6,59.5,7.7,59.5,7.7z"/>
		<path class="st10" d="M59.4,8.3C59.4,8.2,59.4,8.2,59.4,8.3C59.4,8.2,59.4,8.3,59.4,8.3z"/>
		<path class="st10" d="M59.3,8.4C59.3,8.3,59.3,8.3,59.3,8.4C59.4,8.3,59.4,8.3,59.3,8.4z"/>
		<path class="st10" d="M59,7.2C59,7.2,59,7.2,59,7.2C59,7.1,59,7.1,59,7.2z"/>
		<path class="st10" d="M59,7.1C59,7.1,58.9,7.1,59,7.1C58.9,7.1,59,7.1,59,7.1z"/>
		<path class="st10" d="M59.4,8.3C59.4,8.3,59.4,8.3,59.4,8.3C59.4,8.3,59.4,8.3,59.4,8.3z"/>
		<path class="st10" d="M59.3,8.4C59.3,8.4,59.3,8.3,59.3,8.4C59.3,8.4,59.3,8.4,59.3,8.4z"/>
		<path class="st10" d="M59.5,7.6C59.5,7.6,59.5,7.6,59.5,7.6C59.5,7.6,59.5,7.6,59.5,7.6C59.5,7.6,59.5,7.6,59.5,7.6z"/>
		<path class="st14" d="M59.1,7.5c0.1,0,0.2,0.1,0.2,0.2c0,0.1-0.1,0.2-0.2,0.2c-0.1,0-0.2-0.1-0.2-0.2C58.9,7.6,59,7.5,59.1,7.5z"
			/>
		<path class="st4" d="M87.1,13.4c0,0.3,0,0.6,0,0.9c0,0.1,0,0.1-0.1,0.1c-0.1,0-0.1-0.1-0.1-0.1c-0.2-0.4-0.3-0.8-0.4-1.3
			c-0.2-1.2-0.4-2.4-0.3-3.6c0-0.2,0-0.4,0.1-0.6c0-0.1,0.1-0.1,0.1,0c0.1,0.1,0.2,0.2,0.2,0.3C86.8,10.6,87.1,11.9,87.1,13.4z"/>
		<path class="st4" d="M76.6,13.2c0,0.3,0,0.5-0.1,0.8c0,0.1,0,0.1-0.1,0.1c-0.1,0-0.2,0-0.2-0.1c-0.2-0.3-0.2-0.6-0.3-0.9
			c-0.1-0.5-0.1-0.9,0-1.4c0-0.1,0-0.2,0.1-0.3c0-0.1,0.1-0.1,0.1-0.1c0.1,0,0.1,0,0.1,0.1c0.2,0.3,0.3,0.7,0.3,1.1
			C76.6,12.7,76.6,13,76.6,13.2z"/>
	</g>
</g>
</svg>
