<svg xmlns="http://www.w3.org/2000/svg" viewBox="0 0 91.32 134.16"><defs><style>.cls-1{fill:#fff;}.cls-2{fill:none;stroke:#000;stroke-miterlimit:10;stroke-width:3px;}</style></defs><title>InCube_logo_1</title><g id="Layer_2" data-name="Layer 2"><g id="Layer_1-2" data-name="Layer 1"><path id="path4655" class="cls-1" d="M4.1,0H87.22a4.1,4.1,0,0,1,4.1,4.1V87.22a4.1,4.1,0,0,1-4.1,4.1H4.1A4.1,4.1,0,0,1,0,87.22V4.1A4.1,4.1,0,0,1,4.1,0Z"/><path class="cls-2" d="M45.59,46.61a3.79,3.79,0,0,1,1.56.27c2.45,1,3.06,4.47,3.17,5.16l0,.21c.74,5.47-4,11.1-8.92,13.55a10.8,10.8,0,0,1-7,1.36c-3.93-.77-7.8-4.37-7.27-7.31A3.6,3.6,0,0,1,29.88,57c2-.28,3.82,2.14,4.72,3.34,4.92,6.58,6.93,26.38,7.46,32.15h7.22c.53-5.77,2.54-25.57,7.46-32.15.9-1.2,2.7-3.62,4.72-3.34a3.6,3.6,0,0,1,2.75,2.86c.53,2.93-3.34,6.54-7.27,7.31a10.8,10.8,0,0,1-7-1.36c-4.94-2.44-9.66-8.07-8.92-13.55L41,52c.11-.73.73-4.17,3.17-5.16A3.76,3.76,0,0,1,45.59,46.61Z"/><path class="cls-1" d="M61.83,106,32.35,116.64a1.52,1.52,0,0,0-.87,2.1v0a1.56,1.56,0,0,0,1.93.77L62.88,109a1.53,1.53,0,0,0,1-1.05v0A1.54,1.54,0,0,0,61.83,106Z"/><path class="cls-1" d="M25.76,95v.3a1.46,1.46,0,0,1,0-.21S25.76,95,25.76,95Z"/><path class="cls-1" d="M31.4,114.89,64,103.16a1.53,1.53,0,0,0,1-1.22v0A1.55,1.55,0,0,0,63,100.25L30.33,112a1.52,1.52,0,0,0-.93,2l0,.07A1.55,1.55,0,0,0,31.4,114.89Z"/><path class="cls-1" d="M65.56,95v0Z"/><path class="cls-1" d="M46.94,122.23a1,1,0,0,1-1.27-.59,1,1,0,0,1,.59-1.26l14.64-5.26a1.52,1.52,0,0,0,.91-.87l.08-.2a1.52,1.52,0,0,0-1.95-2l-25.14,9a1.5,1.5,0,0,0-.78,2.2c4.09,6.64,6.31,10.82,11.65,10.82s8.74-5.28,13.13-13.4a1.51,1.51,0,0,0-1.87-2.12Z"/><path class="cls-1" d="M42.92,100.09a1,1,0,0,1,1.27.59,1,1,0,0,1-.59,1.26l-14.88,5.35a1.48,1.48,0,0,0-.94,1.78v0a1.52,1.52,0,0,0,2,1l34.78-12.5a1.48,1.48,0,0,0,1-1.34q0-.62,0-1.25a1.64,1.64,0,0,0-1.66-1.45H27.42a1.63,1.63,0,0,0-1.66,1.52,50.09,50.09,0,0,0,.85,9,1.51,1.51,0,0,0,2,1.14Z"/></g></g></svg>