<?xml version="1.0" encoding="utf-8"?>
<!-- Generator: Adobe Illustrator 21.1.0, SVG Export Plug-In . SVG Version: 6.00 Build 0)  -->
<svg version="1.1" id="ETH" xmlns="http://www.w3.org/2000/svg" xmlns:xlink="http://www.w3.org/1999/xlink" x="0px" y="0px"
	 viewBox="0 0 140.7 22.9" style="enable-background:new 0 0 140.7 22.9;" xml:space="preserve">
<style type="text/css">
	.st0{opacity:0.38;}
	.st1{fill:#FFFFFF;}
</style>
<title>eth_logo_kurz_grey</title>
<g class="st0">
	<g>
		<path d="M40.6-0.7c21,0,42,0,62.9,0c0,7.9,0,15.8,0,23.7c-21,0-41.9,0-62.9,0C40.6,15.1,40.6,7.2,40.6-0.7z M57.8,16.9
			c0-3.3,0-6.5,0-9.7c-1.1,0-2.2,0-3.4,0c0,0.7-0.1,1.3-0.1,2c-1.5-1-2.8-1.9-4.2-2.8c0,3.2,0,6.3,0,9.5c1.2,0,2.3,0,3.4,0
			c0-0.6,0.1-1.1,0.1-1.8C55.1,15,56.4,15.9,57.8,16.9z M62.4,13.1c1.1-2.7,2.2-5.4,3.3-8.1c-0.7-0.2-1,0-1.2,0.6
			c-0.8,2-1.6,3.9-2.4,5.9c-0.2,0.5-0.4,0.7-1,0.4c1-2.3,1.9-4.6,2.8-6.9c-0.7-0.3-1,0-1.2,0.6c-0.2,0.5-0.5,1-0.7,1.6
			c-0.9,0-1.7,0-2.6,0c0,0.2-0.1,0.3-0.1,0.5c0,1.7,0,3.3,0,5c0,1.4,0.6,2.5,1.8,3.2c1.3,0.8,2.6,0.8,3.9,0.1
			c1.3-0.7,1.9-1.7,1.8-3.2c0-1.5,0-3.1,0-4.6c0-0.3,0-0.6-0.1-0.9c-0.4,0-0.8,0-1.1,0c-0.4,0.9-0.7,1.8-1.1,2.7
			c-0.4,0.9-0.8,1.8-1.1,2.7C63.3,13.1,63,13.3,62.4,13.1z M73.8,9.6c0.3-0.7,0.5-1.3,0.8-1.9c-0.5-0.2-0.8-0.5-1.2-0.6
			C71.8,6.6,70.3,6.7,69,8s-1.1,3.4,0.3,4.2c0.2,0.1,0.4,0.3,0.6,0.4c0.3,0.2,0.6,0.4,0.4,0.8c-0.2,0.4-0.6,0.1-0.9,0
			s-0.5-0.2-0.9-0.4c-0.3,0.7-0.6,1.4-0.8,2c1.8,1.7,4.1,1.8,5.8,0.4c1.6-1.4,1.6-3.5-0.1-4.8c-0.2-0.2-0.5-0.3-0.6-0.5
			c-0.2-0.2-0.2-0.5-0.3-0.8c0.3,0,0.5-0.1,0.8-0.1C73.4,9.3,73.6,9.5,73.8,9.6z M75.3,15c2,1.8,4.1,1.6,5.4,0.7
			c2-1.3,2-3.7,0.2-5.1c-0.3-0.2-0.6-0.4-0.8-0.6C80,9.8,80,9.5,80,9.4c0.1-0.1,0.4-0.2,0.6-0.2c0.3,0,0.5,0.2,0.8,0.3
			c0.3-0.7,0.5-1.3,0.8-2c-0.7-0.3-1.3-0.6-2-0.7c-1.5-0.3-2.9,0.1-3.9,1.3S75.5,11,76.7,12c0.3,0.2,0.6,0.4,0.8,0.6
			c0.2,0.2,0.2,0.4,0.4,0.6c-0.3,0-0.6,0.2-0.8,0.1c-0.3-0.1-0.7-0.2-1-0.4C75.9,13.7,75.6,14.3,75.3,15z M83.6,15.9
			c1.7,0,3.3,0,5,0c0.4-0.8,0.7-1.7,1.2-2.7c-0.8,0-1.5,0-2.3,0c0-2,0-4,0-6c-1.4,0-2.6,0-3.8,0C83.6,10.1,83.6,12.9,83.6,15.9z
			 M90,7.2c0,3,0,5.8,0,8.7c1.4,0,2.7,0,4.1,0c0-3,0-5.8,0-8.7c-0.4,0-0.8,0-1.2,0C92.6,8.1,92.3,9,92,9.9c-0.2,0.5-0.4,0.6-0.9,0.4
			c0.7-1.7,1.3-3.5,2-5.2C92,4.9,92,4.9,91.8,5.6c-0.2,0.5-0.4,1-0.6,1.5C90.7,7.1,90.4,7.2,90,7.2z"/>
		<path class="st1" d="M40.6-0.7c0,7.9,0,15.7,0,23.7c21,0,42,0,62.9,0c0,0.1-0.1,0.2-0.1,0.2c-0.3,0-0.5,0-0.8,0
			c-20.7,0-41.5,0-62.2,0c0-7.7,0-15.4,0-23.1C40.4-0.1,40.2-0.5,40.6-0.7z"/>
		<path class="st1" d="M57.8,16.9c-1.4-1-2.7-1.8-4.2-2.8c-0.1,0.6-0.1,1.2-0.1,1.8c-1.1,0-2.2,0-3.4,0c0-3.1,0-6.2,0-9.5
			c1.4,0.9,2.7,1.8,4.2,2.8c0-0.7,0.1-1.3,0.1-2c1.1,0,2.2,0,3.4,0C57.8,10.4,57.8,13.5,57.8,16.9z"/>
		<path class="st1" d="M62.4,13.1c0.6,0.2,0.8,0,1-0.5c0.3-0.9,0.7-1.8,1.1-2.7s0.7-1.8,1.1-2.7c0.3,0,0.7,0,1.1,0
			c0,0.3,0.1,0.6,0.1,0.9c0,1.5,0,3.1,0,4.6s-0.6,2.5-1.8,3.2c-1.3,0.7-2.6,0.7-3.9-0.1c-1.2-0.7-1.8-1.7-1.8-3.2c0-1.7,0-3.3,0-5
			c0-0.1,0-0.3,0.1-0.5c0.9,0,1.7,0,2.6,0c0.3-0.6,0.5-1.1,0.7-1.6C62.9,5,63.2,4.8,63.9,5c-0.9,2.3-1.8,4.5-2.8,6.8
			c0.5,0.3,0.8,0,1-0.4c0.8-2,1.6-3.9,2.4-5.9C64.7,5,65,4.8,65.7,5C64.6,7.7,63.5,10.4,62.4,13.1z"/>
		<path class="st1" d="M73.8,9.6c-0.3-0.1-0.4-0.2-0.6-0.2c-0.3,0-0.5,0-0.8,0.1c0.1,0.3,0.1,0.6,0.3,0.8c0.2,0.2,0.4,0.3,0.6,0.5
			c1.7,1.3,1.8,3.4,0.1,4.8c-1.7,1.4-4,1.3-5.8-0.4c0.3-0.6,0.5-1.3,0.8-2c0.3,0.2,0.6,0.3,0.9,0.4c0.3,0.1,0.6,0.4,0.9,0
			c0.2-0.4-0.1-0.6-0.4-0.8c-0.2-0.1-0.4-0.3-0.6-0.4c-1.4-0.8-1.7-2.9-0.3-4.2c1.3-1.3,2.8-1.4,4.4-0.9c0.4,0.1,0.8,0.4,1.2,0.6
			C74.4,8.3,74.1,8.9,73.8,9.6z"/>
		<path class="st1" d="M75.3,15c0.3-0.7,0.5-1.3,0.8-2c0.4,0.1,0.7,0.3,1,0.4c0.3,0,0.5-0.1,0.8-0.1c-0.1-0.2-0.2-0.5-0.4-0.6
			c-0.2-0.2-0.5-0.4-0.8-0.6c-1.3-1-1.4-2.7-0.4-3.9s2.4-1.6,3.9-1.3c0.6,0.1,1.2,0.5,2,0.7c-0.3,0.7-0.5,1.3-0.8,2
			c-0.3-0.1-0.6-0.3-0.8-0.3c-0.2,0-0.4,0.1-0.6,0.2c0,0,0,0.3,0.1,0.5c0.2,0.2,0.5,0.4,0.8,0.6c1.9,1.4,1.8,3.8-0.2,5.1
			C79.4,16.6,77.3,16.8,75.3,15z"/>
		<path class="st1" d="M83.6,15.9c0-3,0-5.8,0-8.7c1.3,0,2.5,0,3.8,0c0,2,0,4,0,6c0.8,0,1.5,0,2.3,0c-0.4,1-0.8,1.9-1.2,2.7
			C86.8,15.9,85.2,15.9,83.6,15.9z"/>
		<path class="st1" d="M90,7.2c0.4,0,0.8,0,1.2-0.1c0.2-0.5,0.4-1,0.6-1.5C92,4.9,92,4.9,92.9,5c-0.7,1.8-1.3,3.5-2,5.2
			c0.5,0.3,0.8,0.1,0.9-0.4c0.3-0.9,0.6-1.8,0.9-2.7c0.4,0,0.8,0,1.2,0c0,2.9,0,5.8,0,8.7c-1.3,0-2.7,0-4.1,0C90,13,90,10.2,90,7.2z
			"/>
	</g>
</g>
</svg>
