<svg id="Ebene_1" data-name="Ebene 1" xmlns="http://www.w3.org/2000/svg" viewBox="0 0 51.17 14.17"><defs><style>.cls-1{fill:#8a8a8a;}</style></defs><title>SIX_logo_bc_grey</title><path class="cls-1" d="M13,2a5.65,5.65,0,0,1,4.34-2h3.89V2.83H17.37a2.83,2.83,0,0,0-2.17,1l-7,8.3a5.65,5.65,0,0,1-4.34,2H0V11.34H3.89a2.83,2.83,0,0,0,2.17-1Z" transform="translate(0 0)"/><rect class="cls-1" x="24.1" width="2.98" height="14.17"/><path class="cls-1" d="M38.14,2l2.4,2.86L42.93,2a5.66,5.66,0,0,1,4.34-2h3.89V2.83H47.28a2.83,2.83,0,0,0-2.17,1L42.39,7.09l2.72,3.24a2.83,2.83,0,0,0,2.17,1h3.89v2.83H47.28a5.66,5.66,0,0,1-4.34-2l-2.4-2.86-2.4,2.86a5.66,5.66,0,0,1-4.34,2H29.91V11.34H33.8a2.83,2.83,0,0,0,2.17-1l2.72-3.24L36,3.85a2.83,2.83,0,0,0-2.17-1H29.91V0H33.8a5.66,5.66,0,0,1,4.34,2" transform="translate(0 0)"/></svg>