<?xml version="1.0" encoding="utf-8"?>
<!-- Generator: Adobe Illustrator 21.1.0, SVG Export Plug-In . SVG Version: 6.00 Build 0)  -->
<svg version="1.1" id="ETH" xmlns="http://www.w3.org/2000/svg" xmlns:xlink="http://www.w3.org/1999/xlink" x="0px" y="0px"
	 viewBox="0 0 140.7 22.9" style="enable-background:new 0 0 140.7 22.9;" xml:space="preserve">
<style type="text/css">
	.st0{opacity:0.48;}
	.st1{fill:#FFFFFF;}
</style>
<title>eth_logo_kurz_grey</title>
<g class="st0">
	<g>
		<path class="st1" d="M53.9,23c0-7.6,0-15.3,0-22.9c12,0,24,0,35.9,0c0,7.6,0,15.3,0,22.9C77.9,23,65.9,23,53.9,23z M74.2,13
			c-0.5,0-0.9,0-1.4,0c0,3.3,0,6.5,0,9.8c0.5,0,0.9,0,1.4,0c0-0.2,0.1-0.3,0.1-0.5c0.1,0.1,0.1,0.1,0.2,0.1c0.5,0.5,1.1,0.7,1.7,0.4
			c0.6-0.3,0.9-0.8,0.9-1.5c0-1.1,0-2.2,0-3.3c0-0.4,0-0.8-0.1-1.1c-0.2-1.1-1.5-1.5-2.3-0.8c-0.1,0.1-0.2,0.2-0.4,0.3
			C74.2,15.1,74.2,14.1,74.2,13z M71.4,9.6c0.1,0,0.1,0,0.1,0c0.5,0.5,1.1,0.7,1.8,0.4c0.7-0.3,0.9-0.9,0.9-1.7c0-1.2,0-2.5,0-3.7
			c0-0.7-0.2-1.3-0.9-1.6c-0.7-0.3-1.3-0.1-1.8,0.4c0,0-0.1,0-0.1,0c0-0.2,0-0.3-0.1-0.5c-0.5,0-0.9,0-1.3,0c0,3.3,0,6.5,0,9.8
			c0.5,0,0.9,0,1.4,0C71.4,11.8,71.4,10.7,71.4,9.6z M89.2,3.1c-0.5,0-1,0-1.4,0c-0.6,1-1.1,1.9-1.6,2.8c0,0-0.1,0-0.1,0
			c0-1.9,0-3.7,0-5.6c-0.5,0-0.9,0-1.4,0c0,3.3,0,6.5,0,9.8c0.5,0,0.9,0,1.4,0c0.1-1-0.3-2.1,0.8-2.9c0.4,1,0.8,1.9,1.2,2.9
			c0.5,0,1,0,1.6,0c-0.7-1.4-1.3-2.8-2-4.2C88.1,5,88.7,4.1,89.2,3.1z M78,5.9c-0.3,0-0.7,0-1,0c-1,0.1-1.7,0.7-1.7,1.7
			c0,0.4,0,0.9,0,1.3c0,0.6,0.4,1,1,1.2c0.5,0.2,1,0.1,1.5-0.3c0.1-0.1,0.2-0.2,0.3-0.3c0,0.2,0,0.4,0.1,0.5c0.5,0,0.9,0,1.3,0
			c0-1.8,0-3.6,0-5.4c0-0.7-0.5-1.1-1.1-1.4c-1.4-0.7-3.1,0.4-3,1.8c0.4,0,0.9,0,1.3,0c0.2-0.4,0.4-0.8,0.9-0.6
			C78,4.6,78.2,5,78,5.9z M71.6,22.8c0-0.1,0-0.1,0-0.2c0-1.7,0-3.3,0-5c0-0.9-0.7-1.7-1.6-1.9c-1.3-0.3-2.7,0.7-2.5,2
			c0.4,0,0.9,0,1.3,0c0.3-0.6,0.6-0.8,1-0.6c0.4,0.2,0.6,0.7,0.3,1.5c-0.3,0-0.7,0-1,0c-1,0.1-1.7,0.7-1.7,1.7c0,0.3,0,0.7,0,1.1
			c0,0.7,0.3,1.1,0.9,1.4c0.6,0.3,1.2,0.2,1.7-0.3c0.1-0.1,0.1-0.1,0.2-0.2c0,0.2,0.1,0.4,0.1,0.5C70.7,22.8,71.2,22.8,71.6,22.8z
			 M67.6,5c0.4,0,0.8,0,1.2,0c-0.1-1.1-0.8-1.9-1.8-2c-1-0.1-1.9,0.5-2.1,1.5c-0.3,1,0.2,2,1.1,2.4c0.4,0.2,0.8,0.3,1.2,0.5
			c0.4,0.2,0.5,0.5,0.4,0.8c-0.1,0.4-0.3,0.6-0.6,0.6c-0.4,0.1-0.7-0.1-0.8-0.4c-0.1-0.1-0.1-0.2-0.1-0.3c-0.4,0-0.8,0-1.2,0
			c0,0.1,0,0.1,0,0.2c0.1,1,0.9,1.8,1.9,1.9c1,0.1,1.9-0.5,2.2-1.5c0.3-1-0.2-2-1.1-2.5c-0.4-0.2-0.8-0.2-1.1-0.4
			c-0.2-0.1-0.5-0.4-0.5-0.6c-0.1-0.4,0.1-0.7,0.5-0.8C67.1,4.2,67.4,4.4,67.6,5z M82.1,17.7c0-0.1,0-0.2,0-0.3
			c-0.2-0.9-0.9-1.6-1.9-1.7c-1,0-1.8,0.6-2,1.5c-0.3,1,0.1,1.9,1,2.4c0.4,0.2,0.9,0.4,1.4,0.6c0.3,0.2,0.5,0.5,0.3,0.8
			c-0.1,0.2-0.4,0.6-0.6,0.6c-0.3,0-0.6-0.2-0.8-0.3c-0.1-0.1-0.1-0.2-0.2-0.4c-0.4,0-0.8,0-1.3,0c0,0.9,0.4,1.5,1.2,1.9
			c0.8,0.4,1.5,0.3,2.2-0.2c1.3-1,1-3-0.4-3.6c-0.4-0.2-0.8-0.3-1.2-0.5c-0.2-0.1-0.3-0.5-0.3-0.8c0-0.2,0.3-0.5,0.6-0.5
			c0.3-0.1,0.6,0.1,0.7,0.4c0,0.1,0.1,0.2,0.1,0.2C81.3,17.7,81.7,17.7,82.1,17.7z M66.9,21.5c-0.6,0-0.7-0.4-0.7-0.9
			c0-2.4,0-4.7,0-7.1c0-0.2,0-0.4,0-0.6c-0.5,0-0.9,0-1.4,0c0,0.2,0,0.4,0,0.5c0,1.9,0,3.8,0,5.6c0,0.7,0,1.4,0,2.1
			c0,1,1.1,1.8,2.1,1.4C66.9,22.3,66.9,21.9,66.9,21.5z M82,10.1c0-0.2,0-0.4,0-0.6c0-1.2,0-2.4,0-3.6c0-1,0.6-1.5,1.5-1.5
			c0.1,0,0.2,0,0.2,0c0-0.5,0-0.9,0-1.5c-0.6,0.3-1.2,0.5-1.8,0.8c0-0.1,0-0.3-0.1-0.5c-0.5,0-0.9,0-1.3,0c0,2.3,0,4.7,0,7
			C81.1,10.1,81.6,10.1,82,10.1z M58.9,3.2c-1.6,1.6-3.1,3.1-4.7,4.7c0,0.3,0,0.7,0,1c1.6-1.5,3.1-3.1,4.7-4.6
			C58.9,3.9,58.9,3.6,58.9,3.2z M54.2,11.4c1.6-1.6,3.1-3.1,4.7-4.7c0-0.3,0-0.6,0-1c-1.5,1.5-3.1,3.1-4.7,4.7
			C54.2,10.7,54.2,11,54.2,11.4z M55.2,12.9c1.2-1.2,2.5-2.5,3.7-3.7c0-0.3,0-0.7,0-1c-1.4,1.4-2.8,2.8-4.2,4.2
			C54.8,12.6,55,12.7,55.2,12.9z M54.2,6.4c1.1-1.1,2.2-2.2,3.4-3.4c-0.3,0-0.7,0-1,0c-0.8,0.8-1.5,1.5-2.3,2.3
			C54.2,5.7,54.2,6.1,54.2,6.4z M58.9,10.7c-1,1-2,2-3,2.9c0.2,0.2,0.3,0.4,0.5,0.6c0.8-0.9,1.7-1.7,2.5-2.6
			C58.9,11.4,58.9,11,58.9,10.7z M54.8,22.1c0.2,0.2,0.4,0.3,0.5,0.4c0.6-0.5,1.1-1.1,1.6-1.5c-0.1-0.2-0.3-0.4-0.5-0.5
			C55.9,21,55.4,21.6,54.8,22.1z M57.2,14.8c0.2,0.2,0.3,0.4,0.5,0.6c0.5-0.4,0.9-0.8,1.3-1.2c0-0.4,0-0.8,0-1.2
			C58.3,13.7,57.7,14.3,57.2,14.8z M54.3,21.2c0.5-0.5,1-1,1.4-1.5c-0.1-0.1-0.3-0.3-0.5-0.4c-0.4,0.3-0.7,0.6-1.1,1
			C54.2,20.5,54.2,20.9,54.3,21.2z M57.8,21.8c-0.4,0.4-0.8,0.7-1.2,1.1c0.6,0,1.1-0.2,1.5-0.6C58,22.1,57.8,21.9,57.8,21.8z
			 M56.5,16.7c0.2-0.2,0.4-0.4,0.5-0.5c-0.2-0.2-0.4-0.4-0.5-0.6c-0.2,0.2-0.4,0.3-0.6,0.5C56.1,16.3,56.2,16.4,56.5,16.7z
			 M55.7,17.4c-0.2-0.2-0.4-0.4-0.5-0.6c-0.2,0.2-0.4,0.3-0.6,0.5c0.2,0.2,0.4,0.4,0.5,0.6C55.4,17.7,55.6,17.5,55.7,17.4z
			 M57.6,17.9c0.2-0.2,0.4-0.3,0.6-0.5c-0.2-0.2-0.4-0.4-0.5-0.6c-0.2,0.2-0.4,0.4-0.6,0.6C57.3,17.5,57.5,17.7,57.6,17.9z
			 M55.8,14.9c-0.2-0.2-0.4-0.4-0.6-0.5c-0.2,0.2-0.4,0.3-0.6,0.5c0.2,0.2,0.4,0.4,0.6,0.6C55.4,15.2,55.6,15.1,55.8,14.9z
			 M56.4,19.1c0.3-0.2,0.4-0.4,0.7-0.5c-0.2-0.2-0.4-0.4-0.6-0.6c-0.2,0.2-0.4,0.4-0.6,0.5C56.1,18.8,56.2,19,56.4,19.1z M57.6,20.3
			c0.2-0.2,0.4-0.3,0.6-0.5c-0.2-0.2-0.4-0.4-0.6-0.6c-0.2,0.2-0.4,0.4-0.6,0.6C57.3,20,57.5,20.2,57.6,20.3z M55.2,3.1
			c-0.4,0-0.7,0-1,0c0,0.3,0,0.6,0,1C54.6,3.7,54.9,3.4,55.2,3.1z M58.9,19.2c0-0.4,0-0.8,0-1c-0.2,0.1-0.4,0.3-0.5,0.4
			C58.6,18.7,58.7,18.9,58.9,19.2z M58.4,16c0.2,0.2,0.3,0.4,0.5,0.7c0-0.4,0-0.7,0-1.1C58.7,15.8,58.5,15.9,58.4,16z M59,20.6
			c0,0-0.1,0-0.1,0c-0.2,0.2-0.3,0.3-0.5,0.5c0.2,0.2,0.3,0.3,0.5,0.5C58.8,21.1,58.9,20.8,59,20.6z"/>
		<path d="M74.2,13c0,1.1,0,2.2,0,3.3c0.2-0.1,0.3-0.2,0.4-0.3c0.9-0.7,2.1-0.2,2.3,0.8c0.1,0.4,0.1,0.8,0.1,1.1c0,1.1,0,2.2,0,3.3
			c0,0.7-0.2,1.2-0.9,1.5c-0.7,0.3-1.2,0.2-1.7-0.4c0,0-0.1-0.1-0.2-0.1c0,0.2-0.1,0.3-0.1,0.5c-0.4,0-0.9,0-1.4,0
			c0-3.3,0-6.5,0-9.8C73.3,13,73.7,13,74.2,13z M75.6,19.3C75.6,19.3,75.6,19.3,75.6,19.3c0-0.5,0-1,0-1.5c0-0.5-0.3-0.8-0.7-0.8
			c-0.4,0-0.7,0.3-0.7,0.8c0,1,0,1.9,0,2.9c0,0.5,0.3,0.7,0.7,0.7c0.4,0,0.7-0.3,0.7-0.8C75.6,20.2,75.6,19.8,75.6,19.3z"/>
		<path d="M71.4,9.6c0,1.1,0,2.2,0,3.3c-0.5,0-0.9,0-1.4,0c0-3.3,0-6.5,0-9.8c0.4,0,0.9,0,1.3,0c0,0.2,0,0.3,0.1,0.5
			c0.1,0,0.1,0,0.1,0c0.5-0.5,1.1-0.7,1.8-0.4C74,3.4,74.2,4,74.2,4.7c0,1.2,0,2.5,0,3.7c0,0.7-0.2,1.3-0.9,1.7
			c-0.7,0.3-1.3,0.1-1.8-0.4C71.6,9.6,71.5,9.6,71.4,9.6z M72.8,6.6c0-0.5,0-1,0-1.5c0-0.5-0.3-0.7-0.7-0.7c-0.4,0-0.7,0.3-0.7,0.7
			c0,1,0,2,0,3c0,0.5,0.3,0.7,0.7,0.7c0.4,0,0.6-0.3,0.7-0.7C72.8,7.6,72.8,7.1,72.8,6.6z"/>
		<path d="M89.2,3.1c-0.6,1-1.1,1.9-1.6,2.8c0.6,1.4,1.3,2.8,2,4.2c-0.5,0-1,0-1.6,0c-0.4-0.9-0.8-1.9-1.2-2.9
			c-1,0.8-0.7,1.9-0.8,2.9c-0.5,0-0.9,0-1.4,0c0-3.3,0-6.5,0-9.8c0.4,0,0.9,0,1.4,0c0,1.9,0,3.7,0,5.6c0,0,0.1,0,0.1,0
			c0.5-0.9,1.1-1.9,1.6-2.8C88.3,3.1,88.7,3.1,89.2,3.1z"/>
		<path d="M78,5.9c0.2-0.9,0-1.3-0.4-1.5C77,4.3,76.8,4.6,76.6,5c-0.4,0-0.9,0-1.3,0c-0.1-1.5,1.6-2.5,3-1.8
			c0.6,0.3,1.1,0.8,1.1,1.4c0.1,1.8,0,3.6,0,5.4c-0.4,0-0.9,0-1.3,0c0-0.2,0-0.3-0.1-0.5c-0.1,0.1-0.2,0.2-0.3,0.3
			c-0.4,0.4-0.9,0.5-1.5,0.3c-0.5-0.2-0.9-0.6-1-1.2c0-0.4,0-0.9,0-1.3C75.3,6.6,76,6,77,5.9C77.3,5.9,77.7,5.9,78,5.9z M78,7.1
			c-0.3,0-0.5,0-0.8,0c-0.4,0-0.6,0.2-0.6,0.6c0,0.4-0.1,0.9,0.4,1.1C77.5,8.9,78,8.7,78,8.3C78.1,7.9,78,7.5,78,7.1z"/>
		<path d="M71.6,22.8c-0.4,0-0.9,0-1.3,0c0-0.2,0-0.3-0.1-0.5c-0.1,0.1-0.1,0.1-0.2,0.2c-0.5,0.5-1,0.6-1.7,0.3
			c-0.6-0.3-0.9-0.7-0.9-1.4c0-0.4,0-0.7,0-1.1c0.1-1,0.7-1.7,1.7-1.7c0.3,0,0.7,0,1,0c0.2-0.7,0.1-1.3-0.3-1.5
			c-0.4-0.2-0.7,0-1,0.6c-0.4,0-0.9,0-1.3,0c-0.1-1.2,1.2-2.3,2.5-2c0.9,0.2,1.6,1,1.6,1.9c0,1.7,0,3.3,0,5
			C71.7,22.6,71.6,22.7,71.6,22.8z M70.2,19.7c-0.3,0-0.5,0-0.8,0c-0.4,0-0.6,0.3-0.6,0.7c0,0.4,0,0.9,0.5,1
			c0.4,0.1,0.8-0.1,0.8-0.5C70.3,20.5,70.2,20.1,70.2,19.7z"/>
		<path d="M67.6,5c-0.2-0.6-0.5-0.8-0.9-0.6c-0.4,0.1-0.6,0.4-0.5,0.8c0.1,0.2,0.3,0.5,0.5,0.6c0.3,0.2,0.8,0.3,1.1,0.4
			c0.9,0.4,1.3,1.5,1.1,2.5c-0.3,1-1.2,1.6-2.2,1.5c-1.1-0.1-1.9-0.9-1.9-1.9c0,0,0-0.1,0-0.2c0.4,0,0.8,0,1.2,0
			c0,0.1,0.1,0.2,0.1,0.3c0.2,0.3,0.5,0.5,0.8,0.4c0.4-0.1,0.6-0.3,0.6-0.6c0.1-0.4,0-0.7-0.4-0.8c-0.4-0.2-0.8-0.3-1.2-0.5
			c-0.9-0.4-1.4-1.4-1.1-2.4c0.3-1,1.1-1.6,2.1-1.5c1,0.1,1.7,0.9,1.8,2C68.5,5,68.1,5,67.6,5z"/>
		<path d="M82.1,17.7c-0.4,0-0.8,0-1.2,0c0-0.1-0.1-0.2-0.1-0.2c-0.1-0.3-0.4-0.5-0.7-0.4c-0.2,0.1-0.5,0.3-0.6,0.5
			c0,0.2,0.1,0.6,0.3,0.8c0.3,0.2,0.8,0.3,1.2,0.5c1.5,0.7,1.7,2.6,0.4,3.6C80.7,23,80,23,79.2,22.6c-0.8-0.4-1.1-1-1.2-1.9
			c0.4,0,0.8,0,1.3,0c0.1,0.1,0.1,0.3,0.2,0.4c0.3,0.2,0.6,0.4,0.8,0.3c0.2,0,0.5-0.3,0.6-0.6c0.1-0.3,0-0.6-0.3-0.8
			c-0.4-0.2-0.9-0.4-1.4-0.6c-0.9-0.4-1.2-1.4-1-2.4c0.2-0.9,1.1-1.5,2-1.5c0.9,0,1.7,0.7,1.9,1.7C82.1,17.4,82.1,17.5,82.1,17.7z"
			/>
		<path d="M66.9,21.5c0,0.4,0,0.8,0,1.2c-1,0.3-2-0.4-2.1-1.4c0-0.7,0-1.4,0-2.1c0-1.9,0-3.8,0-5.6c0-0.2,0-0.3,0-0.5
			c0.5,0,0.9,0,1.4,0c0,0.2,0,0.4,0,0.6c0,2.4,0,4.7,0,7.1C66.2,21.1,66.2,21.5,66.9,21.5z"/>
		<path d="M82,10.1c-0.5,0-0.9,0-1.4,0c0-2.3,0-4.6,0-7c0.4,0,0.9,0,1.3,0c0,0.2,0,0.4,0.1,0.5c0.6-0.2,1.1-0.5,1.8-0.8
			c0,0.6,0,1.1,0,1.5c-0.1,0-0.2,0-0.2,0c-1,0-1.5,0.5-1.5,1.5c0,1.2,0,2.4,0,3.6C82,9.7,82,9.9,82,10.1z"/>
		<path d="M58.9,3.2c0,0.4,0,0.7,0,1c-1.6,1.5-3.1,3.1-4.7,4.6c0-0.3,0-0.7,0-1C55.8,6.3,57.3,4.8,58.9,3.2z"/>
		<path d="M54.2,11.4c0-0.4,0-0.7,0-1c1.6-1.6,3.1-3.1,4.7-4.7c0,0.3,0,0.7,0,1C57.3,8.3,55.8,9.8,54.2,11.4z"/>
		<path d="M55.2,12.9c-0.2-0.2-0.3-0.4-0.5-0.5c1.4-1.4,2.8-2.8,4.2-4.2c0,0.3,0,0.7,0,1C57.7,10.4,56.4,11.7,55.2,12.9z"/>
		<path d="M54.2,6.4c0-0.4,0-0.7,0-1c0.8-0.8,1.5-1.5,2.3-2.3c0.3,0,0.7,0,1,0C56.5,4.2,55.4,5.3,54.2,6.4z"/>
		<path d="M58.9,10.7c0,0.3,0,0.7,0,0.9c-0.9,0.9-1.7,1.7-2.5,2.6c-0.2-0.2-0.3-0.4-0.5-0.6C56.9,12.7,57.9,11.7,58.9,10.7z"/>
		<path d="M54.8,22.1c0.6-0.6,1.1-1.1,1.6-1.6c0.2,0.2,0.3,0.4,0.5,0.5c-0.5,0.5-1,1-1.6,1.5C55.2,22.5,55,22.3,54.8,22.1z"/>
		<path d="M57.2,14.8c0.6-0.6,1.1-1.1,1.7-1.8c0,0.4,0,0.8,0,1.2c-0.4,0.4-0.8,0.7-1.3,1.2C57.5,15.2,57.3,15,57.2,14.8z"/>
		<path d="M54.3,21.2c0-0.3-0.1-0.6-0.1-1c0.4-0.3,0.7-0.6,1.1-1c0.2,0.1,0.3,0.3,0.5,0.4C55.2,20.2,54.8,20.7,54.3,21.2z"/>
		<path d="M57.8,21.8c0.1,0.1,0.2,0.3,0.4,0.5c-0.4,0.4-0.9,0.6-1.5,0.6C57,22.5,57.4,22.2,57.8,21.8z"/>
		<path d="M56.5,16.7c-0.2-0.2-0.4-0.4-0.6-0.6c0.2-0.2,0.4-0.3,0.6-0.5c0.2,0.2,0.3,0.4,0.5,0.6C56.8,16.3,56.7,16.5,56.5,16.7z"/>
		<path d="M55.7,17.4c-0.2,0.1-0.3,0.3-0.6,0.5c-0.1-0.2-0.3-0.4-0.5-0.6c0.2-0.1,0.4-0.3,0.6-0.5C55.4,17,55.5,17.2,55.7,17.4z"/>
		<path d="M57.6,17.9c-0.2-0.2-0.4-0.3-0.6-0.5c0.2-0.2,0.4-0.4,0.6-0.6c0.2,0.2,0.3,0.4,0.5,0.6C58.1,17.5,57.8,17.7,57.6,17.9z"/>
		<path d="M55.8,14.9c-0.2,0.2-0.4,0.4-0.6,0.6c-0.2-0.2-0.4-0.4-0.6-0.6c0.2-0.1,0.4-0.3,0.6-0.5C55.4,14.5,55.6,14.6,55.8,14.9z"
			/>
		<path d="M56.4,19.1c-0.1-0.2-0.3-0.3-0.5-0.5c0.2-0.2,0.4-0.4,0.6-0.5c0.2,0.2,0.3,0.3,0.6,0.6C56.8,18.8,56.6,18.9,56.4,19.1z"/>
		<path d="M57.6,20.3c-0.2-0.1-0.3-0.3-0.6-0.5c0.2-0.2,0.4-0.4,0.6-0.6c0.2,0.2,0.3,0.4,0.6,0.6C58.1,20,57.9,20.1,57.6,20.3z"/>
		<path d="M55.2,3.1c-0.4,0.3-0.6,0.6-1,1c0-0.3,0-0.6,0-1C54.5,3.1,54.8,3.1,55.2,3.1z"/>
		<path d="M58.9,19.2c-0.2-0.3-0.3-0.4-0.5-0.6c0.1-0.1,0.3-0.2,0.5-0.4C58.9,18.4,58.9,18.7,58.9,19.2z"/>
		<path d="M58.4,16c0.1-0.1,0.3-0.3,0.5-0.5c0,0.4,0,0.7,0,1.1C58.7,16.4,58.6,16.2,58.4,16z"/>
		<path d="M59,20.6c-0.1,0.3-0.1,0.5-0.2,0.9c-0.2-0.2-0.3-0.3-0.5-0.5c0.2-0.2,0.4-0.3,0.5-0.5C58.9,20.5,58.9,20.6,59,20.6z"/>
		<path class="st1" d="M75.6,19.3c0,0.5,0,0.9,0,1.4c0,0.4-0.3,0.8-0.7,0.8c-0.4,0-0.7-0.3-0.7-0.7c0-1,0-1.9,0-2.9
			c0-0.5,0.3-0.8,0.7-0.8c0.4,0,0.7,0.3,0.7,0.8C75.6,18.3,75.6,18.8,75.6,19.3C75.6,19.3,75.6,19.3,75.6,19.3z"/>
		<path class="st1" d="M72.8,6.6c0,0.5,0,1,0,1.4c0,0.4-0.3,0.7-0.7,0.7c-0.4,0-0.7-0.2-0.7-0.7c0-1,0-2,0-3c0-0.4,0.3-0.7,0.7-0.7
			c0.4,0,0.7,0.3,0.7,0.7C72.8,5.7,72.8,6.2,72.8,6.6z"/>
		<path class="st1" d="M78,7.1c0,0.4,0,0.8,0,1.2c-0.1,0.4-0.5,0.6-0.9,0.5c-0.5-0.2-0.4-0.6-0.4-1.1c0-0.4,0.3-0.6,0.6-0.6
			C77.5,7,77.7,7.1,78,7.1z"/>
		<path class="st1" d="M70.2,19.7c0,0.4,0,0.8,0,1.2c0,0.4-0.5,0.7-0.8,0.5c-0.5-0.2-0.5-0.6-0.5-1c0-0.4,0.2-0.6,0.6-0.7
			C69.7,19.7,69.9,19.7,70.2,19.7z"/>
	</g>
</g>
</svg>
