<svg id="Ebene_1" data-name="Ebene 1" xmlns="http://www.w3.org/2000/svg" viewBox="0 0 219.69 64.66"><defs><style>.cls-1{fill:#a6a6a5;}</style></defs><title>vseth_Logo_grey</title><path class="cls-1" d="M146.74,86.31c0,5.83,3.57,10.09,9.92,10.09,5,0,7.4-1.39,10.27-4.26l6.87,6.7c-4.61,4.61-9,7.13-17.23,7.13-10.7,0-21-4.87-21-23.23,0-14.79,8-23.14,19.75-23.14,12.62,0,19.75,9.22,19.75,21.66v5ZM162.92,73.7a8.45,8.45,0,0,0-15.14,0,12.49,12.49,0,0,0-1,4.87H164A12.49,12.49,0,0,0,162.92,73.7Z" transform="translate(-33.79 -43.5)"/><path class="cls-1" d="M199.72,105.45c-9.22,0-13.14-6.53-13.14-13V70h-4.79V61.43h4.79V48h11.31v13.4h8V70h-8V91.79c0,2.61,1.22,4.09,3.92,4.09h4.09v9.57Z" transform="translate(-33.79 -43.5)"/><path class="cls-1" d="M242.17,105.45V77.79c0-6-3.83-8-7.4-8s-7.31,2.09-7.31,8v27.67H216.16V43.5h11.31V64.3a15,15,0,0,1,10.87-4.7c9.92,0,15.14,7,15.14,16.53v29.32Z" transform="translate(-33.79 -43.5)"/><path class="cls-1" d="M59.08,104.05H50.31L33.79,59.25H45.58l9.12,27.69,9-27.69H75.5Z" transform="translate(-33.79 -43.5)"/><path class="cls-1" d="M102.91,54.58a27,27,0,0,0-7,53.06v0a21.72,21.72,0,0,0,5.07.57,20.74,20.74,0,0,0,9.4-2,14.21,14.21,0,0,0,6.83-7.63,12.83,12.83,0,0,0-.38-9.94,19,19,0,0,0-3.59-5.08L109.88,80c-3.4-3.55-4.62-5.22-5-6a4.32,4.32,0,0,1-.53-3.51,5.74,5.74,0,0,1,3.38-3.14,7.9,7.9,0,0,1,2.41-.75l.75-2.94c-4.12-1.23-12.65-1.1-16.51,7.93a11.17,11.17,0,0,0-.16,8.38c.91,2.49,2.85,5.27,5.93,8.5l2.93,3.08a19.56,19.56,0,0,1,3.2,3.92,4.31,4.31,0,0,1,.12,3.53,4.7,4.7,0,0,1-2.21,2.65,11.27,11.27,0,0,1-8.85.94h0A22.65,22.65,0,1,1,122.24,93l3.11,3.29a27,27,0,0,0-22.43-41.74Z" transform="translate(-33.79 -43.5)"/></svg>