<?xml version="1.0" encoding="utf-8"?>
<!-- Generator: Adobe Illustrator 21.1.0, SVG Export Plug-In . SVG Version: 6.00 Build 0)  -->
<svg version="1.1" id="ETH" xmlns="http://www.w3.org/2000/svg" xmlns:xlink="http://www.w3.org/1999/xlink" x="0px" y="0px"
	 viewBox="0 0 140.7 22.9" style="enable-background:new 0 0 140.7 22.9;" xml:space="preserve">
<style type="text/css">
	.st0{opacity:0.48;}
	.st1{fill:#FEFEFE;}
	.st2{fill:#525252;}
	.st3{fill:#535353;}
	.st4{fill:#858585;}
	.st5{fill:#868686;}
	.st6{fill:#FFFFFF;}
</style>
<title>eth_logo_kurz_grey</title>
<g class="st0">
	<g>
		<path class="st1" d="M26.3,22.9c0-7.6,0-15.2,0-22.8c28.9,0,57.9,0,86.8,0c0,7.6,0,15.2,0,22.8C84.2,22.9,55.3,22.9,26.3,22.9z
			 M58.4,13.7c0.5-1.6,1-3.1,1.5-4.7c0,0,0,0,0,0c0.5,1.6,1,3.1,1.5,4.7c0.7,0,1.3,0,1.9,0c0.3-1.1,2.6-9.4,2.6-9.6
			c-0.8,0-1.6,0-2.4,0c-0.1,0.6-0.3,1.1-0.4,1.7c-0.1,0.6-0.3,1.1-0.4,1.7c-0.1,0.5-0.3,1.1-0.4,1.7c-0.1-0.1-0.1-0.2-0.1-0.2
			c-0.5-1.5-0.9-3-1.4-4.5c0-0.1-0.1-0.1-0.1-0.2c-0.6,0-1.1,0-1.7,0c-0.3,0.8-0.5,1.7-0.8,2.5c-0.3,0.8-0.5,1.7-0.8,2.5
			c0,0,0,0,0,0c-0.4-1.7-0.8-3.3-1.2-5c-0.3,0-2.3,0-2.5,0c0.9,3.2,1.8,6.4,2.6,9.6C57.1,13.7,57.8,13.7,58.4,13.7z M50,4.1
			c0-0.2,0-0.4-0.1-0.5c-0.3-1.7-2-2.8-3.7-2.5c-1.4,0.3-2.4,1.5-2.5,2.9c0,0.4,0,0.9-0.2,1.3c-0.4,1.4-1.1,2.4-2.4,3.1
			c-1.2,0.7-1.7,2-1.5,3.3c0.3,1.7,2,2.8,3.7,2.4c1.5-0.3,2.5-1.7,2.5-3c0-0.9,0.2-1.8,0.7-2.6c0.4-0.7,1-1.3,1.8-1.7
			C49.5,6.2,50,5.3,50,4.1z M31.7,11.1c0,0.1,0,0.3,0,0.5c0.2,1.3,1,2.2,2.3,2.5c1.2,0.3,2.5-0.1,3.2-1.1c0.5-0.6,0.7-1.2,0.7-2
			c0-0.3,0-0.6,0.1-1c0.3-1.5,1.1-2.5,2.4-3.3C41.5,6.1,42,5,41.9,3.7c-0.2-1.6-1.7-2.8-3.4-2.6c-1.6,0.2-2.8,1.5-2.8,3.1
			c0,0.4-0.1,0.9-0.2,1.3c-0.4,1.3-1.2,2.3-2.3,3C32.2,9.1,31.7,10,31.7,11.1z M97.3,5.2c-0.4-0.4-0.9-0.8-1.4-1
			C95,4,94.1,3.9,93.2,4.2c-1.1,0.3-1.9,1.1-2.3,2.2c-0.1,0.4-0.2,0.8-0.2,1.2c0,0.7,0,1.4,0,2.1c0,0.4,0,0.8,0.1,1.2
			c0.2,1.2,0.9,2.1,2,2.6c1,0.4,2.1,0.4,3.1,0c1-0.4,1.6-1.1,1.9-2.1c0.1-0.4,0.2-0.9,0.2-1.3c0-0.6,0-1.2,0-1.8c0,0,0-0.1,0-0.1
			c-0.2,0-3.1,0-3.2,0c0,0.3,0,1.5,0,1.6c0.2,0,0.4,0,0.6,0c0.2,0,0.4,0,0.6,0c0,0.1,0,0.2,0,0.3c0,0.1,0,0.2,0,0.3
			c-0.1,0.7-0.5,1.2-1.4,1.3c-0.6,0-1.2-0.4-1.3-1c0-0.1,0-0.2-0.1-0.3c-0.1-0.9-0.1-1.8,0-2.7c0-0.2,0-0.5,0.1-0.7
			c0.1-0.4,0.4-0.7,0.8-0.8c0.4-0.1,0.8-0.1,1.2,0.2c0.1,0.1,0.2,0.2,0.4,0.3c0.1,0,0.1,0.1,0.1,0.1C96.2,6.3,96.8,5.7,97.3,5.2z
			 M79,6.2c0.2,0,0.4,0,0.6,0c0.2,0,0.4,0,0.6,0c0.2,0,0.4,0,0.6,0c0.2,0,0.4,0,0.6,0c0.2,0,0.4,0,0.6,0c0.2,0,0.4,0,0.6,0
			c-0.1,0.1-0.1,0.2-0.2,0.2c-1.1,1.8-2.3,3.5-3.4,5.3c-0.1,0.1-0.1,0.2-0.1,0.3c0,0.5,0,1,0,1.4c0,0.1,0,0.1,0,0.2
			c0.3,0,6.4,0,6.5,0c0-0.3,0-1.9,0-2.1c-0.6,0-1.2,0-1.8,0c-0.6,0-1.2,0-1.8,0c0.1-0.1,0.1-0.1,0.1-0.2c1.2-1.8,2.3-3.5,3.5-5.3
			c0.1-0.1,0.1-0.2,0.1-0.3c0-0.5,0-1,0-1.6c0,0,0-0.1,0-0.1c-2.1,0-4.2,0-6.3,0C79,4.8,79,5.5,79,6.2z M75.5,13.7c0-2.5,0-5,0-7.5
			c0.8,0,1.6,0,2.4,0c0-0.7,0-1.4,0-2.1c-0.2,0-6.9,0-7.1,0c0,0.3,0,1.9,0,2.1c0.3,0,0.5,0,0.8,0c0.3,0,0.5,0,0.8,0
			c0.3,0,0.5,0,0.8,0c0,0.7,0,1.3,0,1.9c0,0.6,0,1.2,0,1.9s0,1.2,0,1.9c0,0.6,0,1.2,0,1.9C73.9,13.7,74.7,13.7,75.5,13.7z M33.8,4.1
			c0-1.7-1.4-3.1-3.1-3.1c-1.7,0-3.1,1.4-3.1,3.1c0,1.7,1.4,3.1,3.1,3.1C32.4,7.2,33.8,5.8,33.8,4.1z M67.1,4.1c0,0.3,0,9.5,0,9.6
			c0.8,0,1.6,0,2.3,0c0-3.2,0-6.4,0-9.6C68.6,4.1,67.9,4.1,67.1,4.1z M86.9,4.1c0,3.2,0,6.4,0,9.6c0.8,0,1.6,0,2.3,0
			c0-0.3,0-9.5,0-9.6C88.5,4.1,87.7,4.1,86.9,4.1z M98,21.6c0.1-0.2,0-3.9,0-4c-0.2,0-0.4,0-0.6,0c-0.1,0.2-0.2,0.3-0.2,0.5
			c-0.1,0.2-0.2,0.3-0.2,0.5c-0.1,0.2-0.2,0.3-0.2,0.5c-0.1,0.2-0.1,0.3-0.2,0.5c-0.1,0.2-0.1,0.3-0.3,0.5c-0.4-0.8-0.8-1.7-1.2-2.5
			c-0.2,0-0.4,0-0.6,0c0,0.2,0,3.9,0,4c0.2,0,0.4,0,0.6,0c0-0.1,0-0.2,0-0.2c0-0.7,0-1.4,0-2.1c0-0.1,0-0.1,0-0.2c0,0,0,0,0,0
			c0.3,0.6,0.6,1.2,0.9,1.9c0.2,0,0.3,0,0.5,0c0.3-0.6,0.6-1.2,0.9-1.9c0,0,0,0,0,0c0,0.1,0,0.1,0,0.2c0,0.7,0,1.4,0,2.1
			c0,0.1,0,0.2,0,0.2c0.1,0,0.1,0,0.2,0C97.7,21.6,97.9,21.6,98,21.6z M108.1,20.3C108,20.3,108,20.3,108.1,20.3
			c-0.7-0.9-1.3-1.8-1.9-2.7c-0.2,0-0.4,0-0.5,0c0,0.2,0,3.9,0,4c0.2,0,0.4,0,0.6,0c0-0.3,0-0.6,0-0.9c0-0.3,0-0.6,0-0.9
			c0-0.3,0-0.6,0-0.9c0.3,0.4,0.6,0.9,0.9,1.4c0.3,0.5,0.6,0.9,0.9,1.4c0.2,0,0.4,0,0.5,0c0-0.2,0-3.9,0-4c-0.2,0-0.4,0-0.6,0
			c0,0.3,0,0.6,0,0.9c0,0.3,0,0.6,0,0.9C108.1,19.7,108.1,20,108.1,20.3z M61.5,19.9c0,0.6,0,1.1,0,1.7c0.2,0,0.4,0,0.6,0
			c0-0.1,0-0.1,0-0.2c0-1.2,0-2.4,0-3.6c0-0.1,0-0.1,0-0.2c-0.2,0-0.4,0-0.6,0c0,0.6,0,1.1,0,1.7c-0.2,0.1-1.4,0.1-1.6,0
			c0-0.6,0-1.1,0-1.7c-0.2,0-0.4,0-0.6,0c0,0.2,0,3.9,0,4c0.2,0,0.4,0,0.6,0c0-0.1,0-0.1,0-0.2c0-0.4,0-0.9,0-1.3c0-0.1,0-0.1,0-0.2
			C60.1,19.8,61.3,19.8,61.5,19.9z M70.7,19.6c0-0.3,0-0.6,0-0.9c0-0.3-0.2-0.6-0.4-0.8c-0.3-0.3-0.7-0.4-1.1-0.4
			c-0.6,0-1.2,0.5-1.3,1.1c-0.1,0.6-0.1,1.2,0,1.8c0,0.3,0.2,0.5,0.4,0.7c0.4,0.4,0.8,0.5,1.3,0.4c0.6-0.1,1.1-0.5,1.2-1.2
			C70.7,20.1,70.7,19.9,70.7,19.6z M90.8,19.6c0,0.3,0,0.5,0,0.8c0,0.4,0.2,0.8,0.6,1c0.3,0.2,0.7,0.3,1.1,0.2
			c0.5-0.1,1.1-0.5,1.2-1.2c0.1-0.6,0.1-1.2,0-1.8c0-0.4-0.3-0.7-0.6-0.9c-0.3-0.2-0.6-0.3-0.9-0.2c-0.6,0-1.3,0.4-1.3,1.3
			C90.8,19.1,90.8,19.3,90.8,19.6z M82.8,17.6c0,0.1,0,0.1,0,0.2c0,1.2,0,2.4,0,3.6c0,0.1,0,0.1,0,0.2c0.3,0,2.4,0,2.6,0
			c0-0.2,0-0.3,0-0.5c-0.7,0-1.3,0-1.9,0c-0.1-0.2,0-1,0-1.2c0.5,0,1.1,0,1.6,0c0-0.2,0-0.3,0-0.5c-0.1,0-0.2,0-0.2,0
			c-0.4,0-0.8,0-1.2,0c-0.1,0-0.1,0-0.2,0c-0.1-0.2,0-1,0-1.2c0.3,0,0.6,0,1,0c0.3,0,0.6,0,1,0c0-0.2,0-0.4,0-0.5
			C84.5,17.6,83.7,17.6,82.8,17.6z M63,21.6c0.8,0,1.7,0,2.5,0c0-0.2,0-0.4,0-0.6c-0.6,0-1.3,0-1.9,0c-0.1-0.2-0.1-1,0-1.2
			c0.5,0,1.1,0,1.6,0c0-0.2,0-0.4,0-0.5c-0.6,0-1.1,0-1.6,0c-0.1-0.2,0-1,0-1.2c0.3,0,0.6,0,1,0c0.3,0,0.6,0,0.9,0
			c0.1-0.2,0-0.4,0-0.5c-0.2,0-2.4,0-2.5,0C62.9,17.7,62.9,21.4,63,21.6z M99.5,21.6c0-0.5,0-1,0-1.6c0.1,0,0.2,0,0.2,0
			c0.3,0,0.6,0,0.9,0c0.5,0,1-0.4,1.1-0.9c0.1-0.6-0.1-1.1-0.5-1.4c-0.2-0.1-0.4-0.2-0.7-0.2c-0.5,0-0.9,0-1.4,0c-0.1,0-0.1,0-0.2,0
			c0,0.3,0,3.9,0,4C99.1,21.6,99.3,21.6,99.5,21.6z M103.1,17.6c-0.2,0.3-1.5,3.9-1.5,4c0.2,0,0.4,0,0.6,0c0.1-0.3,0.2-0.5,0.3-0.8
			c0.5,0,1.1,0,1.6,0c0.1,0.3,0.2,0.5,0.3,0.8c0.2,0,0.4,0,0.6,0c0-0.2-1.4-3.9-1.5-4C103.4,17.6,103.3,17.6,103.1,17.6z M75.4,21.6
			c0-0.1,0-0.2,0-0.2c0-0.4,0-0.8,0-1.2c0-0.1,0-0.1,0-0.2c0.6,0,1.1,0,1.7,0c0-0.2,0-0.4,0-0.5c-0.3,0-0.6,0-0.8,0
			c-0.3,0-0.5,0-0.8,0c-0.1-0.2-0.1-1.1,0-1.2c0.2,0,0.4,0,0.6,0c0.2,0,0.4,0,0.6,0c0.2,0,0.4,0,0.7,0c0-0.2,0-0.4,0-0.5
			c-0.2,0-2.4,0-2.5,0c0,0.2,0,3.8,0,4C75,21.6,75.2,21.6,75.4,21.6z M71.5,21.6c0.2,0,0.4,0,0.6,0c0-0.6,0-1.1,0-1.7
			c0.6,0,1.1,0,1.7,0c0-0.2,0-0.4,0-0.6c-0.1,0-0.2,0-0.2,0c-0.4,0-0.8,0-1.2,0c-0.1,0-0.1,0-0.2,0c0-0.3,0-1.1,0-1.2
			c0.6,0,1.3,0,1.9,0c0-0.2,0-0.4,0-0.5c-0.2,0-2.4,0-2.5,0C71.5,17.7,71.5,21.4,71.5,21.6z M81.6,20.8c-0.1,0.1-0.1,0.1-0.2,0.2
			c-0.5,0.4-1.2,0.1-1.3-0.5c-0.1-0.6-0.1-1.1,0-1.7c0-0.2,0.1-0.3,0.2-0.4c0.3-0.3,0.8-0.3,1.1-0.1c0.1,0,0.1,0.1,0.2,0.2
			c0.1-0.1,0.3-0.3,0.4-0.4c0,0,0-0.1,0-0.1c0,0-0.1-0.1-0.1-0.1c-0.3-0.3-0.7-0.4-1.2-0.4c-0.7,0.1-1.2,0.5-1.3,1.2
			c-0.1,0.6-0.1,1.1,0,1.7c0,0.3,0.1,0.5,0.3,0.8c0.5,0.6,1.5,0.6,2.1,0.1c0,0,0.1-0.1,0.1-0.1c-0.1-0.1-0.2-0.2-0.3-0.3
			C81.7,20.8,81.7,20.8,81.6,20.8z M89.8,20.8c-0.1,0.1-0.1,0.1-0.2,0.2c-0.4,0.3-1.2,0.2-1.3-0.5c-0.1-0.5-0.1-1.1,0-1.6
			c0-0.2,0.1-0.4,0.2-0.5c0.3-0.3,0.8-0.3,1.1,0c0.1,0,0.1,0.1,0.2,0.2c0.1-0.1,0.3-0.3,0.4-0.4c0,0-0.1-0.1-0.1-0.1
			c-0.3-0.3-0.7-0.4-1.2-0.4c-0.6,0.1-1.3,0.5-1.3,1.3c0,0.5,0,1,0,1.5c0,0.3,0.1,0.6,0.3,0.9c0.5,0.5,1.3,0.5,1.8,0.3
			c0.2-0.1,0.3-0.2,0.4-0.3C90.1,21,90,20.9,89.8,20.8z M109.2,17.6c0,0.1,0.1,0.2,0.1,0.2c0.3,0.6,0.6,1.3,1,1.9
			c0.1,0.2,0.1,0.3,0.1,0.5c0,0.4,0,0.8,0,1.2c0,0.1,0,0.1,0,0.2c0.2,0,0.4,0,0.6,0c0-0.1,0-0.1,0-0.2c0-0.4,0-0.8,0-1.2
			c0-0.1,0-0.3,0.1-0.4c0.3-0.7,0.7-1.3,1-2c0-0.1,0.1-0.1,0.1-0.2c-0.2,0-0.4,0-0.7,0c-0.1,0.2-0.2,0.4-0.3,0.6
			c-0.1,0.2-0.2,0.4-0.3,0.6c-0.1,0.2-0.2,0.4-0.3,0.6c-0.3-0.6-0.6-1.2-0.8-1.7C109.6,17.6,109.4,17.6,109.2,17.6z M57.4,21.6
			c0-1.2,0-2.3,0-3.5c0.4,0,0.7,0,1.1,0c0-0.2,0-0.4,0-0.5c-0.3,0-2.7,0-2.8,0c0,0.2,0,0.3,0,0.5c0.4,0,0.7,0,1.1,0
			c0,0.1,0,0.2,0,0.3c0,1,0,2,0,3c0,0.1,0,0.2,0,0.2C57,21.6,57.2,21.6,57.4,21.6z M78.1,17.6c0,0.3,0,3.9,0,4c0.2,0,0.4,0,0.6,0
			c0-0.1,0-0.1,0-0.2c0-1.2,0-2.4,0-3.6c0-0.1,0-0.1,0-0.2C78.4,17.6,78.2,17.6,78.1,17.6z"/>
		<path d="M58.4,13.7c-0.6,0-1.3,0-1.9,0c-0.9-3.2-1.8-6.4-2.6-9.6c0.1,0,2.1-0.1,2.5,0c0.4,1.7,0.8,3.3,1.2,5c0,0,0,0,0,0
			c0.3-0.8,0.5-1.7,0.8-2.5c0.3-0.8,0.5-1.7,0.8-2.5c0.6,0,1.1,0,1.7,0c0,0.1,0.1,0.1,0.1,0.2c0.5,1.5,0.9,3,1.4,4.5
			c0,0.1,0,0.2,0.1,0.2c0.2-0.6,0.3-1.1,0.4-1.7c0.1-0.6,0.3-1.1,0.4-1.7c0.1-0.6,0.3-1.1,0.4-1.7c0.8,0,1.6,0,2.4,0
			c0,0.2-2.3,8.5-2.6,9.6c-0.6,0-1.3,0-1.9,0c-0.5-1.6-1-3.1-1.5-4.7c0,0,0,0,0,0C59.4,10.6,58.9,12.2,58.4,13.7z"/>
		<path class="st2" d="M50,4.1c0,1.2-0.5,2.1-1.5,2.7c-0.7,0.4-1.3,1-1.8,1.7c-0.5,0.8-0.7,1.7-0.7,2.6c0,1.4-0.9,2.7-2.5,3
			c-1.7,0.4-3.3-0.7-3.7-2.4c-0.3-1.3,0.3-2.6,1.5-3.3c1.2-0.7,2-1.8,2.4-3.1c0.1-0.4,0.1-0.9,0.2-1.3c0.1-1.5,1-2.6,2.5-2.9
			C48,0.7,49.7,1.9,50,3.6C50,3.7,50,3.9,50,4.1z"/>
		<path class="st3" d="M31.7,11.1c0-1.2,0.5-2.1,1.6-2.7c1.2-0.7,2-1.7,2.3-3c0.1-0.4,0.2-0.9,0.2-1.3c0-1.6,1.2-2.9,2.8-3.1
			c1.6-0.2,3.2,1,3.4,2.6C42,5,41.5,6.1,40.4,6.8c-1.3,0.8-2.1,1.9-2.4,3.3c-0.1,0.3-0.1,0.6-0.1,1c0,0.7-0.2,1.4-0.7,2
			c-0.8,1-2,1.4-3.2,1.1c-1.3-0.4-2-1.2-2.3-2.5C31.7,11.4,31.7,11.3,31.7,11.1z"/>
		<path d="M97.3,5.2c-0.5,0.5-1.1,1.1-1.6,1.6c0,0-0.1-0.1-0.1-0.1c-0.1-0.1-0.2-0.2-0.4-0.3c-0.4-0.3-0.8-0.3-1.2-0.2
			c-0.4,0.1-0.7,0.4-0.8,0.8c-0.1,0.2-0.1,0.5-0.1,0.7c-0.1,0.9-0.1,1.8,0,2.7c0,0.1,0,0.2,0.1,0.3c0.1,0.6,0.7,1,1.3,1
			c0.9-0.1,1.3-0.6,1.4-1.3c0-0.1,0-0.2,0-0.3c0-0.1,0-0.2,0-0.3c-0.2,0-0.4,0-0.6,0c-0.2,0-0.4,0-0.6,0c0-0.1-0.1-1.3,0-1.6
			c0.1,0,3,0,3.2,0c0,0,0,0.1,0,0.1c0,0.6,0,1.2,0,1.8c0,0.5-0.1,0.9-0.2,1.3c-0.3,1-1,1.7-1.9,2.1c-1,0.4-2.1,0.4-3.1,0
			c-1.1-0.5-1.8-1.4-2-2.6c-0.1-0.4-0.1-0.8-0.1-1.2c0-0.7,0-1.4,0-2.1c0-0.4,0.1-0.8,0.2-1.2c0.4-1.1,1.2-1.9,2.3-2.2
			C94.1,3.9,95,4,95.9,4.2C96.4,4.4,96.9,4.8,97.3,5.2z"/>
		<path d="M79,6.2c0-0.7,0-1.4,0-2.1c2.1,0,4.2,0,6.3,0c0,0.1,0,0.1,0,0.1c0,0.5,0,1,0,1.6c0,0.1,0,0.2-0.1,0.3
			c-1.2,1.8-2.3,3.5-3.5,5.3c0,0.1-0.1,0.1-0.1,0.2c0.6,0,1.2,0,1.8,0c0.6,0,1.2,0,1.8,0c0,0.2,0.1,1.7,0,2.1c-0.1,0-6.2,0-6.5,0
			c0-0.1,0-0.1,0-0.2c0-0.5,0-1,0-1.4c0-0.1,0-0.2,0.1-0.3c1.1-1.8,2.3-3.5,3.4-5.3c0-0.1,0.1-0.1,0.2-0.2c-0.2,0-0.4,0-0.6,0
			c-0.2,0-0.4,0-0.6,0c-0.2,0-0.4,0-0.6,0c-0.2,0-0.4,0-0.6,0c-0.2,0-0.4,0-0.6,0C79.3,6.2,79.2,6.2,79,6.2z"/>
		<path d="M75.5,13.7c-0.8,0-1.6,0-2.4,0c0-0.6,0-1.2,0-1.9c0-0.6,0-1.2,0-1.9s0-1.2,0-1.9c0-0.6,0-1.2,0-1.9c-0.3,0-0.5,0-0.8,0
			c-0.3,0-0.5,0-0.8,0c-0.3,0-0.5,0-0.8,0c0-0.1-0.1-1.8,0-2.1c0.1,0,6.9,0,7.1,0c0,0.7,0,1.4,0,2.1c-0.8,0-1.6,0-2.4,0
			C75.5,8.7,75.5,11.2,75.5,13.7z"/>
		<path class="st3" d="M33.8,4.1c0,1.7-1.4,3.1-3.1,3.1c-1.7,0-3.1-1.4-3.1-3.1C27.6,2.4,29,1,30.7,1C32.4,1,33.8,2.4,33.8,4.1z"/>
		<path d="M67.1,4.1c0.8,0,1.6,0,2.3,0c0,3.2,0,6.4,0,9.6c-0.8,0-1.6,0-2.3,0C67,13.6,67,4.5,67.1,4.1z"/>
		<path d="M86.9,4.1c0.8,0,1.6,0,2.3,0c0,0.1,0,9.3,0,9.6c-0.8,0-1.5,0-2.3,0C86.9,10.5,86.9,7.3,86.9,4.1z"/>
		<path class="st4" d="M98,21.6c-0.1,0-0.3,0-0.4,0c0,0-0.1,0-0.2,0c0-0.1,0-0.2,0-0.2c0-0.7,0-1.4,0-2.1c0-0.1,0-0.1,0-0.2
			c0,0,0,0,0,0c-0.3,0.6-0.6,1.2-0.9,1.9c-0.2,0-0.3,0-0.5,0c-0.3-0.6-0.6-1.2-0.9-1.9c0,0,0,0,0,0c0,0.1,0,0.1,0,0.2
			c0,0.7,0,1.4,0,2.1c0,0.1,0,0.2,0,0.2c-0.2,0-0.4,0-0.6,0c-0.1-0.2-0.1-3.8,0-4c0.2,0,0.4,0,0.6,0c0.4,0.8,0.8,1.6,1.2,2.5
			c0.1-0.2,0.2-0.3,0.3-0.5c0.1-0.2,0.2-0.3,0.2-0.5c0.1-0.2,0.2-0.3,0.2-0.5c0.1-0.2,0.1-0.3,0.2-0.5c0.1-0.2,0.2-0.3,0.2-0.5
			c0.2,0,0.4,0,0.6,0C98,17.7,98,21.4,98,21.6z"/>
		<path class="st4" d="M108.1,20.3c0-0.3,0-0.6,0-0.9c0-0.3,0-0.6,0-0.9c0-0.3,0-0.6,0-0.9c0.2,0,0.4,0,0.6,0c0,0.1,0.1,3.8,0,4
			c-0.2,0-0.3,0-0.5,0c-0.3-0.4-0.6-0.9-0.9-1.4c-0.3-0.5-0.6-0.9-0.9-1.4c0,0.3,0,0.6,0,0.9c0,0.3,0,0.6,0,0.9c0,0.3,0,0.6,0,0.9
			c-0.2,0-0.4,0-0.6,0c0-0.1-0.1-3.8,0-4c0.2,0,0.3,0,0.5,0C106.8,18.5,107.4,19.4,108.1,20.3C108,20.3,108,20.3,108.1,20.3z"/>
		<path class="st5" d="M61.5,19.9c-0.2,0-1.4-0.1-1.6,0c0,0.1,0,0.1,0,0.2c0,0.4,0,0.9,0,1.3c0,0.1,0,0.1,0,0.2c-0.2,0-0.4,0-0.6,0
			c0-0.2,0-3.8,0-4c0.2,0,0.4,0,0.6,0c0,0.6,0,1.1,0,1.7c0.2,0.1,1.5,0.1,1.6,0c0-0.5,0-1.1,0-1.7c0.2,0,0.4,0,0.6,0
			c0,0.1,0,0.1,0,0.2c0,1.2,0,2.4,0,3.6c0,0.1,0,0.1,0,0.2c-0.2,0-0.4,0-0.6,0C61.5,21,61.5,20.4,61.5,19.9z"/>
		<path class="st4" d="M70.7,19.6c0,0.3,0,0.6,0,0.8c0,0.7-0.6,1.2-1.2,1.2c-0.5,0.1-0.9,0-1.3-0.4c-0.2-0.2-0.3-0.4-0.4-0.7
			c-0.1-0.6-0.1-1.2,0-1.8c0.1-0.7,0.7-1.1,1.3-1.1c0.4,0,0.8,0.1,1.1,0.4c0.2,0.2,0.4,0.5,0.4,0.8C70.7,19,70.7,19.3,70.7,19.6z
			 M70.1,19.6c0-0.3,0-0.6-0.1-0.8c0-0.1-0.1-0.3-0.2-0.4c-0.2-0.3-0.5-0.3-0.9-0.2c-0.3,0.1-0.5,0.3-0.6,0.6c-0.1,0.5,0,1,0,1.5
			c0,0.1,0,0.2,0,0.3c0.1,0.2,0.2,0.4,0.4,0.5c0.4,0.2,1.1,0.1,1.2-0.6C70.1,20.1,70.1,19.9,70.1,19.6z"/>
		<path class="st4" d="M90.8,19.6c0-0.2,0-0.5,0-0.7c0-0.9,0.8-1.3,1.3-1.3c0.3,0,0.7,0,0.9,0.2c0.3,0.2,0.6,0.5,0.6,0.9
			c0.1,0.6,0.1,1.2,0,1.8c-0.1,0.7-0.7,1.1-1.2,1.2c-0.4,0.1-0.8,0-1.1-0.2c-0.4-0.3-0.5-0.6-0.6-1C90.8,20.1,90.8,19.8,90.8,19.6z
			 M93.1,19.6c0-0.3,0-0.6-0.1-0.9c0-0.2-0.1-0.3-0.2-0.4c-0.3-0.2-0.5-0.3-0.8-0.2c-0.3,0.1-0.5,0.3-0.5,0.6
			c-0.1,0.5-0.1,1.1,0,1.6c0.1,0.4,0.4,0.7,0.8,0.7c0.4,0,0.7-0.2,0.8-0.7C93.1,20.2,93.1,19.9,93.1,19.6z"/>
		<path class="st5" d="M82.8,17.6c0.9,0,1.7,0,2.6,0c0,0.2,0,0.3,0,0.5c-0.3,0-0.7,0-1,0c-0.3,0-0.6,0-1,0c-0.1,0.2-0.1,1,0,1.2
			c0.1,0,0.1,0,0.2,0c0.4,0,0.8,0,1.2,0c0.1,0,0.1,0,0.2,0c0,0.2,0,0.3,0,0.5c-0.6,0-1.1,0-1.6,0c-0.1,0.1-0.1,1,0,1.2
			c0.6,0,1.3,0,1.9,0c0.1,0.2,0,0.3,0,0.5c-0.2,0-2.3,0.1-2.6,0c0-0.1,0-0.1,0-0.2c0-1.2,0-2.4,0-3.6C82.8,17.7,82.8,17.6,82.8,17.6
			z"/>
		<path class="st4" d="M63,21.6c0-0.3,0-3.9,0-4c0.1,0,2.3,0,2.5,0c0,0.1,0,0.3,0,0.5c-0.3,0-0.6,0-0.9,0c-0.3,0-0.6,0-1,0
			c-0.1,0.2-0.1,1,0,1.2c0.5,0,1.1,0,1.6,0c0,0.2,0,0.3,0,0.5c-0.6,0-1.1,0-1.6,0c-0.1,0.2-0.1,1,0,1.2c0.6,0,1.3,0,1.9,0
			c0,0.2,0,0.4,0,0.6C64.7,21.6,63.8,21.6,63,21.6z"/>
		<path class="st4" d="M99.5,21.6c-0.2,0-0.4,0-0.6,0c0-0.1-0.1-3.7,0-4c0.1,0,0.1,0,0.2,0c0.5,0,0.9,0,1.4,0c0.2,0,0.5,0.1,0.7,0.2
			c0.5,0.3,0.7,0.8,0.5,1.4c-0.1,0.5-0.5,0.9-1.1,0.9c-0.3,0-0.6,0-0.9,0c-0.1,0-0.1,0-0.2,0C99.5,20.6,99.5,21.1,99.5,21.6z
			 M99.5,19.4C99.5,19.4,99.6,19.4,99.5,19.4c0.4,0,0.7,0,1,0c0.4,0,0.6-0.3,0.6-0.6c0-0.4-0.2-0.7-0.6-0.7c-0.3,0-0.6,0-0.9,0
			c0,0,0,0-0.1,0C99.5,18.6,99.5,19,99.5,19.4z"/>
		<path class="st4" d="M103.1,17.6c0.2,0,0.3,0,0.5,0c0.1,0.2,1.5,3.9,1.5,4c-0.2,0-0.4,0-0.6,0c-0.1-0.3-0.2-0.5-0.3-0.8
			c-0.5,0-1,0-1.6,0c-0.1,0.3-0.2,0.5-0.3,0.8c-0.2,0-0.4,0-0.6,0C101.7,21.4,103,17.9,103.1,17.6z M102.8,20.2c0.2,0.1,1.1,0,1.2,0
			c-0.2-0.6-0.4-1.1-0.6-1.7c0,0,0,0,0,0C103.2,19.1,103,19.7,102.8,20.2z"/>
		<path class="st4" d="M75.4,21.6c-0.2,0-0.4,0-0.6,0c0-0.2-0.1-3.8,0-4c0.1,0,2.3-0.1,2.5,0c0,0.2,0,0.3,0,0.5c-0.2,0-0.4,0-0.7,0
			c-0.2,0-0.4,0-0.6,0c-0.2,0-0.4,0-0.6,0c-0.1,0.2-0.1,1,0,1.2c0.3,0,0.5,0,0.8,0c0.3,0,0.5,0,0.8,0c0,0.2,0,0.4,0,0.5
			c-0.6,0-1.1,0-1.7,0c0,0.1,0,0.2,0,0.2c0,0.4,0,0.8,0,1.2C75.4,21.4,75.4,21.5,75.4,21.6z"/>
		<path class="st4" d="M71.5,21.6c-0.1-0.2-0.1-3.9,0-4c0.2,0,2.3,0,2.5,0c0,0.2,0,0.3,0,0.5c-0.6,0-1.3,0-1.9,0
			c-0.1,0.1-0.1,1,0,1.2c0.1,0,0.1,0,0.2,0c0.4,0,0.8,0,1.2,0c0.1,0,0.1,0,0.2,0c0,0.2,0,0.4,0,0.6c-0.6,0-1.1,0-1.7,0
			c0,0.6,0,1.1,0,1.7C71.9,21.6,71.7,21.6,71.5,21.6z"/>
		<path class="st4" d="M81.6,20.8c0.1,0,0.1,0.1,0.1,0.1c0.1,0.1,0.2,0.2,0.3,0.3c0,0-0.1,0.1-0.1,0.1c-0.6,0.5-1.6,0.5-2.1-0.1
			c-0.2-0.2-0.3-0.5-0.3-0.8c-0.1-0.6-0.1-1.1,0-1.7c0.1-0.7,0.6-1.1,1.3-1.2c0.4,0,0.8,0.1,1.2,0.4c0,0,0.1,0.1,0.1,0.1
			c0,0,0,0,0,0.1c-0.1,0.1-0.3,0.3-0.4,0.4c-0.1-0.1-0.1-0.1-0.2-0.2c-0.3-0.3-0.8-0.2-1.1,0.1c-0.1,0.1-0.2,0.3-0.2,0.4
			c-0.1,0.6-0.1,1.1,0,1.7c0.1,0.6,0.8,0.9,1.3,0.5C81.5,20.9,81.5,20.8,81.6,20.8z"/>
		<path class="st4" d="M89.8,20.8c0.1,0.1,0.3,0.3,0.4,0.4c-0.1,0.2-0.3,0.2-0.4,0.3c-0.5,0.2-1.3,0.2-1.8-0.3
			c-0.2-0.2-0.3-0.5-0.3-0.9c0-0.5,0-1,0-1.5c0-0.9,0.7-1.3,1.3-1.3c0.5,0,0.9,0.1,1.2,0.4c0,0,0,0.1,0.1,0.1
			c-0.1,0.1-0.3,0.3-0.4,0.4c-0.1-0.1-0.1-0.1-0.2-0.2c-0.3-0.3-0.8-0.2-1.1,0c-0.1,0.1-0.2,0.3-0.2,0.5c-0.1,0.5-0.1,1.1,0,1.6
			c0.1,0.7,0.9,0.8,1.3,0.5C89.7,20.9,89.8,20.8,89.8,20.8z"/>
		<path class="st4" d="M109.2,17.6c0.2,0,0.4,0,0.7,0c0.3,0.6,0.5,1.1,0.8,1.7c0.1-0.2,0.2-0.4,0.3-0.6c0.1-0.2,0.2-0.4,0.3-0.6
			c0.1-0.2,0.2-0.4,0.3-0.6c0.2,0,0.4,0,0.7,0c0,0.1-0.1,0.2-0.1,0.2c-0.3,0.7-0.7,1.3-1,2c-0.1,0.1-0.1,0.2-0.1,0.4
			c0,0.4,0,0.8,0,1.2c0,0.1,0,0.1,0,0.2c-0.2,0-0.4,0.1-0.6,0c0-0.1,0-0.1,0-0.2c0-0.4,0-0.8,0-1.2c0-0.2,0-0.3-0.1-0.5
			c-0.3-0.6-0.7-1.3-1-1.9C109.2,17.7,109.2,17.7,109.2,17.6z"/>
		<path class="st5" d="M57.4,21.6c-0.2,0-0.4,0-0.6,0c0-0.1,0-0.2,0-0.2c0-1,0-2,0-3c0-0.1,0-0.2,0-0.3c-0.4,0-0.7,0-1.1,0
			c0-0.2,0-0.3,0-0.5c0.1,0,2.5-0.1,2.8,0c0,0.2,0,0.3,0,0.5c-0.4,0-0.7,0-1.1,0C57.4,19.3,57.5,20.4,57.4,21.6z"/>
		<path class="st5" d="M78.1,17.6c0.2,0,0.4,0,0.6,0c0,0.1,0,0.1,0,0.2c0,1.2,0,2.4,0,3.6c0,0.1,0,0.1,0,0.2c-0.2,0-0.4,0-0.6,0
			C78,21.4,78,17.8,78.1,17.6z"/>
		<path class="st6" d="M70.1,19.6c0,0.3,0,0.5-0.1,0.8C70,21,69.3,21.2,68.9,21c-0.2-0.1-0.3-0.3-0.4-0.5c0-0.1,0-0.2,0-0.3
			c0-0.5,0-1,0-1.5c0-0.3,0.2-0.6,0.6-0.6c0.3-0.1,0.6,0,0.9,0.2c0.1,0.1,0.2,0.2,0.2,0.4C70.1,19,70.1,19.3,70.1,19.6z"/>
		<path class="st6" d="M93.1,19.6c0,0.3,0,0.6-0.1,0.9c-0.1,0.4-0.4,0.7-0.8,0.7c-0.4,0-0.7-0.3-0.8-0.7c-0.1-0.5-0.1-1.1,0-1.6
			c0-0.3,0.2-0.5,0.5-0.6c0.3-0.1,0.6-0.1,0.8,0.2c0.1,0.1,0.2,0.3,0.2,0.4C93,19,93.1,19.3,93.1,19.6z"/>
		<path class="st6" d="M99.5,19.4c0-0.4,0-0.9,0-1.3c0,0,0.1,0,0.1,0c0.3,0,0.6,0,0.9,0c0.4,0,0.6,0.3,0.6,0.7
			c0,0.4-0.2,0.6-0.6,0.6C100.2,19.5,99.9,19.4,99.5,19.4C99.6,19.4,99.5,19.4,99.5,19.4z"/>
		<path class="st6" d="M102.8,20.2c0.2-0.6,0.4-1.1,0.6-1.7c0,0,0,0,0,0c0.2,0.6,0.4,1.1,0.6,1.7C103.8,20.3,103,20.3,102.8,20.2z"
			/>
	</g>
</g>
</svg>
